;TYPE=PLATED
;Layer: PTH_Through
;EasyEDA Pro v3.2.117, 2026-06-19 14:17:39
;Gerber Generator version 0.3
M48
METRIC,LZ,0000.00000
;Hole size 1 = 0.30500 METRIC
T01C0.30500
;Hole size 2 = 0.90002 METRIC
T02C0.90002
;Hole size 3 = 1.00000 METRIC
T03C1.00000
;Hole size 4 = 1.10002 METRIC
T04C1.10002
;Hole size 5 = 1.40000 METRIC
T05C1.40000
;Hole size 6 = 1.50000 METRIC
T06C1.50000
%
G05
G90
T01
X75.184Y59.436
X74.168Y58.547
X74.676Y77.851
X32.893Y77.597
X45.466Y74.93
X32.99975Y58.80133
X33.655Y59.563
X32.22392Y59.563
X33.655Y78.232
X33.655Y77.089
X42.418Y74.549
X43.434Y78.105
X43.434Y77.089
X59.563Y77.851
X47.44995Y75.67469
X48.082Y76.4353
X49.657Y76.073
X48.844Y75.31126
X50.546Y74.549
X49.657Y70.358
X49.19109Y51.8593
X51.308Y49.9543
X50.724Y51.9863
X32.385Y42.418
X33.48061Y42.2275
X33.147Y39.878
X68.453Y80.645
X68.453Y74.041
X69.977Y32.004
X53.594Y55.626
X34.493Y61.798
X34.925Y32.39364
X19.812Y21.209
X27.813Y66.167
X38.735Y66.319
X63.246Y40.767
X48.57135Y49.68725
X58.42Y59.817
X46.482Y59.69
X44.46865Y59.69
X58.30287Y58.33999
X47.117Y51.689
X51.943Y52.959
X54.16398Y54.92902
X65.278Y19.177
X45.466Y72.009
X52.959Y60.833
X64.135Y69.342
X64.897Y68.58
X64.008Y65.278
X64.897Y64.643
X48.26Y61.468
X50.673Y66.167
X44.069Y45.339
X45.212Y73.279
X35.306Y71.628
X28.321Y77.089
X35.433Y73.533
X29.337Y77.216
X2.89814Y7.97813
X2.89814Y10.51813
X2.89814Y13.05813
X2.89814Y15.59813
X2.89814Y18.13813
X2.89814Y20.67813
X2.89814Y23.21813
X2.89814Y25.75813
X2.89814Y28.29813
X5.43814Y5.43813
X5.43814Y7.97813
X5.43814Y10.51813
X5.43814Y13.05813
X5.43814Y15.59813
X5.43814Y18.13813
X5.43814Y23.21813
X5.43814Y25.75813
X5.43814Y35.91813
X5.43814Y38.45813
X5.43814Y40.99813
X5.43814Y43.53813
X5.43814Y46.07813
X7.97814Y2.89813
X7.97814Y5.43813
X7.97814Y7.97813
X7.97814Y10.51813
X7.97814Y13.05813
X7.97814Y15.59813
X7.97814Y18.13813
X7.97814Y20.67813
X7.97814Y23.21813
X7.97814Y25.75813
X7.97814Y28.29813
X7.97814Y30.83813
X7.97814Y33.37813
X7.97814Y61.31813
X10.51814Y2.89813
X10.51814Y5.43813
X10.51814Y7.97813
X10.51814Y10.51813
X10.51814Y13.05813
X10.51814Y15.59813
X10.51814Y18.13813
X10.51814Y20.67813
X10.51814Y23.21813
X10.51814Y25.75813
X10.51814Y28.29813
X10.51814Y30.83813
X10.51814Y33.37813
X10.51814Y35.91813
X10.51814Y38.45813
X10.51814Y40.99813
X10.51814Y43.53813
X10.51814Y46.07813
X10.51814Y48.61813
X10.51814Y51.15813
X10.51814Y58.77813
X10.51814Y61.31813
X10.51814Y63.85813
X10.51814Y66.39813
X10.51814Y68.93813
X10.51814Y71.47813
X10.51814Y74.01813
X10.51814Y76.55813
X13.05814Y2.89813
X13.05814Y5.43813
X13.05814Y7.97813
X13.05814Y10.51813
X13.05814Y13.05813
X13.05814Y15.59813
X13.05814Y18.13813
X13.05814Y23.21813
X13.05814Y25.75813
X13.05814Y28.29813
X13.05814Y30.83813
X13.05814Y35.91813
X13.05814Y38.45813
X13.05814Y40.99813
X13.05814Y43.53813
X13.05814Y51.15813
X13.05814Y56.23813
X13.05814Y58.77813
X13.05814Y66.39813
X13.05814Y68.93813
X13.05814Y71.47813
X13.05814Y74.01813
X13.05814Y79.09813
X15.59814Y2.89813
X15.59814Y5.43813
X15.59814Y7.97813
X15.59814Y23.21813
X15.59814Y46.07813
X15.59814Y48.61813
X15.59814Y51.15813
X15.59814Y56.23813
X15.59814Y58.77813
X15.59814Y61.31813
X15.59814Y63.85813
X15.59814Y66.39813
X15.59814Y68.93813
X15.59814Y71.47813
X15.59814Y74.01813
X15.59814Y79.09813
X15.59814Y81.63813
X18.13814Y2.89813
X18.13814Y5.43813
X18.13814Y7.97813
X18.13814Y10.51813
X18.13814Y13.05813
X18.13814Y15.59813
X18.13814Y18.13813
X18.13814Y20.67813
X18.13814Y23.21813
X18.13814Y30.83813
X18.13814Y33.37813
X18.13814Y35.91813
X18.13814Y38.45813
X18.13814Y40.99813
X18.13814Y43.53813
X18.13814Y48.61813
X18.13814Y51.15813
X18.13814Y53.69813
X18.13814Y71.47813
X18.13814Y74.01813
X18.13814Y76.55813
X18.13814Y79.09813
X20.67814Y2.89813
X20.67814Y5.43813
X20.67814Y7.97813
X20.67814Y13.05813
X20.67814Y15.59813
X20.67814Y23.21813
X20.67814Y28.29813
X20.67814Y35.91813
X20.67814Y38.45813
X20.67814Y43.53813
X20.67814Y46.07813
X20.67814Y53.69813
X20.67814Y56.23813
X20.67814Y58.77813
X20.67814Y61.31813
X20.67814Y71.47813
X20.67814Y74.01813
X20.67814Y76.55813
X20.67814Y81.63813
X20.67814Y84.17813
X23.21814Y5.43813
X23.21814Y7.97813
X23.21814Y10.51813
X23.21814Y13.05813
X23.21814Y15.59813
X23.21814Y18.13813
X23.21814Y20.67813
X23.21814Y25.75813
X23.21814Y28.29813
X23.21814Y30.83813
X23.21814Y35.91813
X23.21814Y38.45813
X23.21814Y40.99813
X23.21814Y43.53813
X23.21814Y46.07813
X23.21814Y48.61813
X23.21814Y51.15813
X23.21814Y53.69813
X23.21814Y56.23813
X23.21814Y58.77813
X23.21814Y61.31813
X23.21814Y66.39813
X23.21814Y68.93813
X23.21814Y71.47813
X23.21814Y74.01813
X23.21814Y76.55813
X23.21814Y79.09813
X23.21814Y81.63813
X23.21814Y84.17813
X23.21814Y86.71813
X25.75814Y7.97813
X25.75814Y10.51813
X25.75814Y13.05813
X25.75814Y15.59813
X25.75814Y18.13813
X25.75814Y38.45813
X25.75814Y40.99813
X25.75814Y43.53813
X25.75814Y48.61813
X25.75814Y51.15813
X25.75814Y53.69813
X25.75814Y56.23813
X25.75814Y58.77813
X25.75814Y61.31813
X25.75814Y71.47813
X25.75814Y74.01813
X25.75814Y76.55813
X25.75814Y81.63813
X25.75814Y84.17813
X25.75814Y86.71813
X28.29814Y89.25813
X28.29814Y10.51813
X28.29814Y13.05813
X28.29814Y15.59813
X28.29814Y18.13813
X28.29814Y20.67813
X28.29814Y23.21813
X28.29814Y25.75813
X28.29814Y28.29813
X28.29814Y30.83813
X28.29814Y33.37813
X28.29814Y35.91813
X28.29814Y40.99813
X28.29814Y43.53813
X28.29814Y51.15813
X28.29814Y53.69813
X28.29814Y56.23813
X28.29814Y58.77813
X28.29814Y71.47813
X30.83814Y89.25813
X30.83814Y15.59813
X30.83814Y18.13813
X30.83814Y23.21813
X30.83814Y25.75813
X30.83814Y33.37813
X30.83814Y35.91813
X30.83814Y38.45813
X30.83814Y40.99813
X30.83814Y43.53813
X30.83814Y46.07813
X30.83814Y48.61813
X30.83814Y51.15813
X30.83814Y53.69813
X30.83814Y56.23813
X30.83814Y58.77813
X30.83814Y76.55813
X30.83814Y81.63813
X30.83814Y84.17813
X33.37814Y89.25813
X33.37814Y91.79813
X33.37814Y20.67813
X33.37814Y23.21813
X33.37814Y25.75813
X33.37814Y28.29813
X33.37814Y30.83813
X33.37814Y33.37813
X33.37814Y35.91813
X35.91814Y89.25813
X35.91814Y91.79813
X35.91814Y25.75813
X35.91814Y28.29813
X35.91814Y30.83813
X35.91814Y35.91813
X35.91814Y38.45813
X35.91814Y40.99813
X35.91814Y43.53813
X35.91814Y46.07813
X35.91814Y48.61813
X35.91814Y51.15813
X35.91814Y53.69813
X35.91814Y56.23813
X35.91814Y61.31813
X38.45814Y89.25813
X38.45814Y91.79813
X38.45814Y94.33813
X38.45814Y30.83813
X38.45814Y33.37813
X38.45814Y81.63813
X40.99814Y89.25813
X40.99814Y91.79813
X40.99814Y94.33813
X40.99814Y35.91813
X40.99814Y81.63813
X40.99814Y84.17813
X43.53814Y40.99813
X43.53814Y51.15813
X43.53814Y53.69813
X43.53814Y56.23813
X43.53814Y61.31813
X43.53814Y84.17813
X46.07814Y40.99813
X46.07814Y43.53813
X46.07814Y48.61813
X46.07814Y51.15813
X46.07814Y53.69813
X46.07814Y56.23813
X46.07814Y81.63813
X48.61814Y40.99813
X48.61814Y43.53813
X51.15814Y40.99813
X53.69814Y40.99813
X53.69814Y48.61813
X53.69814Y51.15813
X53.69814Y53.69813
X53.69814Y63.85813
X56.23814Y35.91813
X56.23814Y40.99813
X56.23814Y48.61813
X56.23814Y51.15813
X56.23814Y53.69813
X56.23814Y56.23813
X56.23814Y71.47813
X56.23814Y74.01813
X56.23814Y81.63813
X56.23814Y84.17813
X58.77814Y89.25813
X58.77814Y91.79813
X58.77814Y94.33813
X58.77814Y30.83813
X58.77814Y33.37813
X58.77814Y35.91813
X58.77814Y40.99813
X58.77814Y43.53813
X58.77814Y48.61813
X58.77814Y51.15813
X58.77814Y53.69813
X58.77814Y56.23813
X58.77814Y74.01813
X58.77814Y81.63813
X58.77814Y84.17813
X61.31814Y89.25813
X61.31814Y91.79813
X61.31814Y25.75813
X61.31814Y28.29813
X61.31814Y30.83813
X61.31814Y33.37813
X61.31814Y35.91813
X61.31814Y40.99813
X61.31814Y43.53813
X61.31814Y46.07813
X61.31814Y48.61813
X61.31814Y51.15813
X61.31814Y53.69813
X61.31814Y56.23813
X61.31814Y63.85813
X61.31814Y71.47813
X61.31814Y74.01813
X61.31814Y81.63813
X61.31814Y84.17813
X63.85814Y89.25813
X63.85814Y91.79813
X63.85814Y20.67813
X63.85814Y23.21813
X63.85814Y25.75813
X63.85814Y28.29813
X63.85814Y33.37813
X63.85814Y71.47813
X63.85814Y74.01813
X63.85814Y81.63813
X63.85814Y84.17813
X66.39814Y89.25813
X66.39814Y91.79813
X66.39814Y23.21813
X66.39814Y28.29813
X66.39814Y30.83813
X66.39814Y33.37813
X66.39814Y74.01813
X66.39814Y81.63813
X66.39814Y84.17813
X68.93814Y89.25813
X68.93814Y13.05813
X68.93814Y18.13813
X68.93814Y28.29813
X68.93814Y30.83813
X68.93814Y35.91813
X68.93814Y38.45813
X68.93814Y40.99813
X68.93814Y43.53813
X68.93814Y46.07813
X68.93814Y48.61813
X68.93814Y51.15813
X68.93814Y63.85813
X68.93814Y66.39813
X68.93814Y68.93813
X68.93814Y71.47813
X71.47814Y7.97813
X71.47814Y10.51813
X71.47814Y15.59813
X71.47814Y18.13813
X71.47814Y30.83813
X71.47814Y33.37813
X71.47814Y35.91813
X71.47814Y38.45813
X71.47814Y40.99813
X71.47814Y43.53813
X71.47814Y51.15813
X71.47814Y56.23813
X71.47814Y66.39813
X71.47814Y68.93813
X71.47814Y71.47813
X71.47814Y74.01813
X71.47814Y81.63813
X71.47814Y86.71813
X74.01814Y5.43813
X74.01814Y7.97813
X74.01814Y10.51813
X74.01814Y15.59813
X74.01814Y18.13813
X74.01814Y20.67813
X74.01814Y25.75813
X74.01814Y28.29813
X74.01814Y86.71813
X76.55814Y2.89813
X76.55814Y5.43813
X76.55814Y7.97813
X76.55814Y10.51813
X76.55814Y18.13813
X76.55814Y33.37813
X76.55814Y40.99813
X76.55814Y43.53813
X76.55814Y46.07813
X76.55814Y48.61813
X76.55814Y51.15813
X76.55814Y74.01813
X76.55814Y76.55813
X76.55814Y81.63813
X79.09814Y2.89813
X79.09814Y5.43813
X79.09814Y7.97813
X79.09814Y10.51813
X79.09814Y13.05813
X79.09814Y18.13813
X79.09814Y20.67813
X79.09814Y25.75813
X79.09814Y28.29813
X79.09814Y30.83813
X79.09814Y33.37813
X79.09814Y35.91813
X79.09814Y38.45813
X79.09814Y40.99813
X79.09814Y43.53813
X79.09814Y46.07813
X79.09814Y48.61813
X79.09814Y51.15813
X79.09814Y53.69813
X79.09814Y56.23813
X79.09814Y58.77813
X79.09814Y61.31813
X79.09814Y71.47813
X79.09814Y74.01813
X79.09814Y76.55813
X79.09814Y79.09813
X81.63814Y2.89813
X81.63814Y5.43813
X81.63814Y7.97813
X81.63814Y10.51813
X81.63814Y13.05813
X81.63814Y18.13813
X81.63814Y20.67813
X81.63814Y25.75813
X81.63814Y28.29813
X81.63814Y30.83813
X81.63814Y33.37813
X81.63814Y35.91813
X81.63814Y38.45813
X81.63814Y40.99813
X81.63814Y43.53813
X81.63814Y46.07813
X81.63814Y48.61813
X81.63814Y51.15813
X81.63814Y53.69813
X81.63814Y56.23813
X81.63814Y58.77813
X81.63814Y61.31813
X81.63814Y63.85813
X81.63814Y66.39813
X81.63814Y68.93813
X81.63814Y71.47813
X81.63814Y74.01813
X81.63814Y76.55813
X81.63814Y79.09813
X81.63814Y81.63813
X84.17814Y2.89813
X84.17814Y5.43813
X84.17814Y7.97813
X84.17814Y10.51813
X84.17814Y13.05813
X84.17814Y18.13813
X84.17814Y20.67813
X84.17814Y30.83813
X84.17814Y33.37813
X84.17814Y35.91813
X84.17814Y38.45813
X84.17814Y40.99813
X84.17814Y43.53813
X84.17814Y51.15813
X84.17814Y53.69813
X84.17814Y56.23813
X84.17814Y58.77813
X84.17814Y66.39813
X84.17814Y68.93813
X84.17814Y71.47813
X84.17814Y74.01813
X86.71814Y2.89813
X86.71814Y5.43813
X86.71814Y7.97813
X86.71814Y10.51813
X86.71814Y13.05813
X86.71814Y18.13813
X86.71814Y20.67813
X86.71814Y30.83813
X86.71814Y33.37813
X86.71814Y35.91813
X86.71814Y38.45813
X86.71814Y40.99813
X86.71814Y43.53813
X86.71814Y48.61813
X86.71814Y51.15813
X86.71814Y53.69813
X86.71814Y56.23813
X86.71814Y58.77813
X86.71814Y61.31813
X86.71814Y66.39813
X86.71814Y68.93813
X86.71814Y71.47813
X86.71814Y74.01813
X86.71814Y76.55813
X86.71814Y79.09813
X89.25814Y2.89813
X89.25814Y5.43813
X89.25814Y7.97813
X89.25814Y10.51813
X89.25814Y13.05813
X89.25814Y15.59813
X89.25814Y18.13813
X89.25814Y20.67813
X89.25814Y23.21813
X89.25814Y25.75813
X89.25814Y28.29813
X89.25814Y30.83813
X89.25814Y33.37813
X89.25814Y35.91813
X89.25814Y38.45813
X89.25814Y40.99813
X89.25814Y43.53813
X89.25814Y46.07813
X89.25814Y48.61813
X89.25814Y51.15813
X89.25814Y53.69813
X89.25814Y56.23813
X89.25814Y58.77813
X89.25814Y61.31813
X89.25814Y63.85813
X89.25814Y66.39813
X91.79814Y5.43813
X91.79814Y7.97813
X91.79814Y10.51813
X91.79814Y13.05813
X91.79814Y18.13813
X91.79814Y20.67813
X91.79814Y25.75813
X91.79814Y28.29813
X91.79814Y30.83813
X91.79814Y33.37813
X91.79814Y35.91813
X91.79814Y38.45813
X91.79814Y40.99813
X91.79814Y43.53813
X91.79814Y46.07813
X91.79814Y48.61813
X91.79814Y51.15813
X94.33814Y7.97813
X94.33814Y10.51813
X94.33814Y13.05813
X94.33814Y15.59813
X94.33814Y18.13813
X94.33814Y20.67813
X94.33814Y25.75813
X94.33814Y28.29813
X94.33814Y30.83813
X94.33814Y33.37813
X96.87814Y13.05813
X96.87814Y15.59813
X96.87814Y18.13813
X36.93414Y75.15373
X36.93414Y67.53373
X39.47414Y72.61373
X46.355Y61.468
T02
X35.29809Y84.93004
X36.289Y83.19277
X33.56083Y83.93913
X34.55173Y82.20186
X31.82356Y82.94822
X32.81456Y81.21101
X37.03536Y85.92094
X38.02626Y84.18368
T03
X10.5Y55.0
X10.5Y57.0
X10.5Y53.0
X20.5Y65.0
X22.5Y65.0
X18.5Y65.0
X68.5Y55.0
X68.5Y57.0
X68.5Y53.0
X78.5Y65.0
X80.5Y65.0
X76.5Y65.0
T04
X18.34459Y80.86427
X14.31966Y78.8518
X83.59757Y78.97868
X79.57263Y80.99115
T05
X20.58065Y79.18722
X14.31967Y76.05672
X83.59756Y76.18361
X77.33658Y79.3141
T06
X13.75Y47.25
X13.75Y62.75
X27.25Y62.75
X27.25Y47.25
X71.75Y47.25
X71.75Y62.75
X85.25Y62.75
X85.25Y47.25
M30