G04 Layer: TopPasteMaskLayer*
G04 EasyEDA Pro v3.2.117, 2026-06-19 14:17:38*
G04 Gerber Generator version 0.3*
G04 Scale: 100 percent, Rotated: No, Reflected: No*
G04 Dimensions in millimeters*
G04 Leading zeros omitted, absolute positions, 4 integers and 5 decimals*
G04 Generated by one-click*
%FSLAX45Y45*%
%MOMM*%
%ADD10R,0.8X0.9*%
%ADD11R,0.9X0.8*%
%ADD12R,0.8001X0.8001*%
%ADD13R,1.5X1.9*%
%ADD14R,1.9X1.5*%
%ADD15R,1.5X2.2*%
%ADD16O,1.865X0.63*%
%ADD17R,2.4013X3.29999*%
%ADD18R,2.4X3.29999*%
%ADD19R,2.1X1.0*%
%ADD20R,1.1X2.49999*%
%ADD21R,3.59999X2.34*%
%ADD22R,3.49999X1.5*%
%ADD23R,0.5X2.0*%
%ADD24R,0.9X2.0*%
%ADD25R,1.6X1.6*%
G75*


G04 PolygonModel Start*
G36*
G01X7930002Y1632499D02*
G01X7935001Y1627497D01*
G01X7935001Y1547498D01*
G01X7930002Y1542499D01*
G01X7850002Y1542499D01*
G01X7845001Y1547498D01*
G01X7845001Y1571701D01*
G01X7882001Y1571701D01*
G01X7882001Y1604701D01*
G01X7845001Y1604701D01*
G01X7845001Y1627497D01*
G01X7850002Y1632499D01*
G01X7930002Y1632499D01*
G37*
G36*
G01X7690998Y1542501D02*
G01X7685999Y1547503D01*
G01X7685999Y1627502D01*
G01X7690998Y1632501D01*
G01X7770998Y1632501D01*
G01X7775999Y1627502D01*
G01X7775999Y1603299D01*
G01X7738999Y1603299D01*
G01X7738999Y1570299D01*
G01X7775999Y1570299D01*
G01X7775999Y1547503D01*
G01X7770998Y1542501D01*
G01X7690998Y1542501D01*
G37*
G36*
G01X5530301Y4437502D02*
G01X5535303Y4442501D01*
G01X5615302Y4442501D01*
G01X5620301Y4437502D01*
G01X5620301Y4357502D01*
G01X5615302Y4352501D01*
G01X5591099Y4352501D01*
G01X5591099Y4389501D01*
G01X5558099Y4389501D01*
G01X5558099Y4352501D01*
G01X5535303Y4352501D01*
G01X5530301Y4357502D01*
G01X5530301Y4437502D01*
G37*
G36*
G01X5620299Y4198498D02*
G01X5615297Y4193499D01*
G01X5535298Y4193499D01*
G01X5530299Y4198498D01*
G01X5530299Y4278498D01*
G01X5535298Y4283499D01*
G01X5559501Y4283499D01*
G01X5559501Y4246499D01*
G01X5592501Y4246499D01*
G01X5592501Y4283499D01*
G01X5615297Y4283499D01*
G01X5620299Y4278498D01*
G01X5620299Y4198498D01*
G37*
G36*
G01X5073101Y4437502D02*
G01X5078103Y4442501D01*
G01X5158102Y4442501D01*
G01X5163101Y4437502D01*
G01X5163101Y4357502D01*
G01X5158102Y4352501D01*
G01X5133899Y4352501D01*
G01X5133899Y4389501D01*
G01X5100899Y4389501D01*
G01X5100899Y4352501D01*
G01X5078103Y4352501D01*
G01X5073101Y4357502D01*
G01X5073101Y4437502D01*
G37*
G36*
G01X5163099Y4198498D02*
G01X5158097Y4193499D01*
G01X5078098Y4193499D01*
G01X5073099Y4198498D01*
G01X5073099Y4278498D01*
G01X5078098Y4283499D01*
G01X5102301Y4283499D01*
G01X5102301Y4246499D01*
G01X5135301Y4246499D01*
G01X5135301Y4283499D01*
G01X5158097Y4283499D01*
G01X5163099Y4278498D01*
G01X5163099Y4198498D01*
G37*
G36*
G01X5258225Y4437502D02*
G01X5263227Y4442501D01*
G01X5343227Y4442501D01*
G01X5348225Y4437502D01*
G01X5348225Y4357502D01*
G01X5343227Y4352501D01*
G01X5319023Y4352501D01*
G01X5319023Y4389501D01*
G01X5286023Y4389501D01*
G01X5286023Y4352501D01*
G01X5263227Y4352501D01*
G01X5258225Y4357502D01*
G01X5258225Y4437502D01*
G37*
G36*
G01X5348223Y4198498D02*
G01X5343221Y4193499D01*
G01X5263222Y4193499D01*
G01X5258223Y4198498D01*
G01X5258223Y4278498D01*
G01X5263222Y4283499D01*
G01X5287425Y4283499D01*
G01X5287425Y4246499D01*
G01X5320425Y4246499D01*
G01X5320425Y4283499D01*
G01X5343221Y4283499D01*
G01X5348223Y4278498D01*
G01X5348223Y4198498D01*
G37*
G36*
G01X1607856Y4401858D02*
G01X1612855Y4396857D01*
G01X1612855Y4316857D01*
G01X1607856Y4311858D01*
G01X1527856Y4311858D01*
G01X1522855Y4316857D01*
G01X1522855Y4341060D01*
G01X1559855Y4341060D01*
G01X1559855Y4374060D01*
G01X1522855Y4374060D01*
G01X1522855Y4396857D01*
G01X1527856Y4401858D01*
G01X1607856Y4401858D01*
G37*
G36*
G01X1368852Y4311861D02*
G01X1363854Y4316862D01*
G01X1363854Y4396862D01*
G01X1368852Y4401860D01*
G01X1448852Y4401860D01*
G01X1453853Y4396862D01*
G01X1453853Y4372658D01*
G01X1416853Y4372658D01*
G01X1416853Y4339658D01*
G01X1453853Y4339658D01*
G01X1453853Y4316862D01*
G01X1448852Y4311861D01*
G01X1368852Y4311861D01*
G37*
G36*
G01X429052Y3152285D02*
G01X424054Y3157286D01*
G01X424054Y3237286D01*
G01X429052Y3242284D01*
G01X509052Y3242284D01*
G01X514053Y3237286D01*
G01X514053Y3213082D01*
G01X477053Y3213082D01*
G01X477053Y3180082D01*
G01X514053Y3180082D01*
G01X514053Y3157286D01*
G01X509052Y3152285D01*
G01X429052Y3152285D01*
G37*
G36*
G01X668056Y3242282D02*
G01X673055Y3237281D01*
G01X673055Y3157281D01*
G01X668056Y3152282D01*
G01X588056Y3152282D01*
G01X583055Y3157281D01*
G01X583055Y3181484D01*
G01X620055Y3181484D01*
G01X620055Y3214484D01*
G01X583055Y3214484D01*
G01X583055Y3237281D01*
G01X588056Y3242282D01*
G01X668056Y3242282D01*
G37*
G36*
G01X1580002Y2178599D02*
G01X1585001Y2173597D01*
G01X1585001Y2093598D01*
G01X1580002Y2088599D01*
G01X1500002Y2088599D01*
G01X1495001Y2093598D01*
G01X1495001Y2117801D01*
G01X1532001Y2117801D01*
G01X1532001Y2150801D01*
G01X1495001Y2150801D01*
G01X1495001Y2173597D01*
G01X1500002Y2178599D01*
G01X1580002Y2178599D01*
G37*
G36*
G01X1340998Y2088601D02*
G01X1335999Y2093603D01*
G01X1335999Y2173602D01*
G01X1340998Y2178601D01*
G01X1420998Y2178601D01*
G01X1425999Y2173602D01*
G01X1425999Y2149399D01*
G01X1388999Y2149399D01*
G01X1388999Y2116399D01*
G01X1425999Y2116399D01*
G01X1425999Y2093603D01*
G01X1420998Y2088601D01*
G01X1340998Y2088601D01*
G37*
G36*
G01X2724699Y3195198D02*
G01X2719697Y3190199D01*
G01X2639698Y3190199D01*
G01X2634699Y3195198D01*
G01X2634699Y3275198D01*
G01X2639698Y3280199D01*
G01X2663901Y3280199D01*
G01X2663901Y3243199D01*
G01X2696901Y3243199D01*
G01X2696901Y3280199D01*
G01X2719697Y3280199D01*
G01X2724699Y3275198D01*
G01X2724699Y3195198D01*
G37*
G36*
G01X2634701Y3434202D02*
G01X2639703Y3439201D01*
G01X2719702Y3439201D01*
G01X2724701Y3434202D01*
G01X2724701Y3354202D01*
G01X2719702Y3349201D01*
G01X2695499Y3349201D01*
G01X2695499Y3386201D01*
G01X2662499Y3386201D01*
G01X2662499Y3349201D01*
G01X2639703Y3349201D01*
G01X2634701Y3354202D01*
G01X2634701Y3434202D01*
G37*
G36*
G01X2393401Y8069702D02*
G01X2398403Y8074701D01*
G01X2478402Y8074701D01*
G01X2483401Y8069702D01*
G01X2483401Y7989702D01*
G01X2478402Y7984701D01*
G01X2454199Y7984701D01*
G01X2454199Y8021701D01*
G01X2421199Y8021701D01*
G01X2421199Y7984701D01*
G01X2398403Y7984701D01*
G01X2393401Y7989702D01*
G01X2393401Y8069702D01*
G37*
G36*
G01X2483399Y7830698D02*
G01X2478397Y7825699D01*
G01X2398398Y7825699D01*
G01X2393399Y7830698D01*
G01X2393399Y7910698D01*
G01X2398398Y7915699D01*
G01X2422601Y7915699D01*
G01X2422601Y7878699D01*
G01X2455601Y7878699D01*
G01X2455601Y7915699D01*
G01X2478397Y7915699D01*
G01X2483399Y7910698D01*
G01X2483399Y7830698D01*
G37*
G36*
G01X7663302Y8401599D02*
G01X7668301Y8396597D01*
G01X7668301Y8316598D01*
G01X7663302Y8311599D01*
G01X7583302Y8311599D01*
G01X7578301Y8316598D01*
G01X7578301Y8340801D01*
G01X7615301Y8340801D01*
G01X7615301Y8373801D01*
G01X7578301Y8373801D01*
G01X7578301Y8396597D01*
G01X7583302Y8401599D01*
G01X7663302Y8401599D01*
G37*
G36*
G01X7424298Y8311601D02*
G01X7419299Y8316603D01*
G01X7419299Y8396602D01*
G01X7424298Y8401601D01*
G01X7504298Y8401601D01*
G01X7509299Y8396602D01*
G01X7509299Y8372399D01*
G01X7472299Y8372399D01*
G01X7472299Y8339399D01*
G01X7509299Y8339399D01*
G01X7509299Y8316603D01*
G01X7504298Y8311601D01*
G01X7424298Y8311601D01*
G37*

G04 Pad Start*
G54D10*
G01X7029298Y2755900D03*
G01X7169302Y2755900D03*
G54D11*
G01X8001000Y2063598D03*
G01X8001000Y2203602D03*
G01X8534400Y2063598D03*
G01X8534400Y2203602D03*
G54D10*
G01X7715098Y2717800D03*
G01X7855102Y2717800D03*
G01X7245198Y4038600D03*
G01X7385202Y4038600D03*
G01X3908694Y4409445D03*
G01X4048699Y4409445D03*
G01X4397797Y4403247D03*
G01X4257792Y4403247D03*
G54D11*
G01X5765800Y4382430D03*
G01X5765800Y4242425D03*
G01X5981700Y4382430D03*
G01X5981700Y4242425D03*
G01X3708400Y5505602D03*
G01X3708400Y5365598D03*
G01X2031992Y6724508D03*
G01X2031992Y6864513D03*
G01X6578600Y5492902D03*
G01X6578600Y5352898D03*
G01X7937500Y6724498D03*
G01X7937500Y6864502D03*
G54D12*
G01X6866890Y2401316D03*
G01X6706870Y2400808D03*
G01X6866890Y2033016D03*
G01X6706870Y2032508D03*
G01X6716776Y2569964D03*
G01X6876796Y2570472D03*
G01X6716776Y2221484D03*
G01X6876796Y2221992D03*
G54D13*
G01X6451600Y3112501D03*
G01X6451600Y3872499D03*
G54D14*
G01X8535401Y1587500D03*
G01X9295399Y1587500D03*
G54D15*
G01X1565694Y3227603D03*
G01X1565694Y4087597D03*
G01X2015706Y3227603D03*
G01X2015706Y4087597D03*
G01X1540294Y954303D03*
G01X1540294Y1814297D03*
G01X1990306Y954303D03*
G01X1990306Y1814297D03*
G01X473794Y2068787D03*
G01X473794Y2928780D03*
G01X923806Y2068787D03*
G01X923806Y2928780D03*
G01X2607094Y2097303D03*
G01X2607094Y2957297D03*
G01X3057106Y2097303D03*
G01X3057106Y2957297D03*
G54D16*
G01X7714769Y2075680D03*
G01X7714769Y2202680D03*
G01X7714769Y2329680D03*
G01X7714769Y2456680D03*
G01X7178270Y2075680D03*
G01X7178270Y2202680D03*
G01X7178270Y2329680D03*
G01X7178270Y2456680D03*
G54D18*
G01X7446520Y2266180D03*
G54D19*
G01X8267700Y2398700D03*
G01X8267700Y2198700D03*
G54D20*
G01X7259298Y3153700D03*
G01X7489295Y3153700D03*
G01X7719292Y3153700D03*
G54D21*
G01X7489295Y3747692D03*
G54D22*
G01X9259989Y2370976D03*
G01X8520011Y2919006D03*
G01X8519986Y2668994D03*
G01X9260015Y3217024D03*
G54D23*
G01X3938003Y4698987D03*
G01X4008006Y4698987D03*
G01X4078008Y4698987D03*
G01X4148011Y4698987D03*
G01X4217988Y4698987D03*
G01X4287990Y4698987D03*
G01X4357992Y4698987D03*
G01X4427995Y4698987D03*
G01X4497997Y4698987D03*
G01X4568000Y4698987D03*
G01X4638002Y4698987D03*
G01X4708004Y4698987D03*
G01X4778007Y4698987D03*
G01X4848009Y4698987D03*
G01X4917986Y4698987D03*
G01X4987989Y4698987D03*
G01X5057991Y4698987D03*
G01X5127993Y4698987D03*
G01X5197996Y4698987D03*
G01X5267998Y4698987D03*
G01X5338001Y4698987D03*
G01X5408003Y4698987D03*
G01X5478005Y4698987D03*
G01X5548008Y4698987D03*
G01X5617985Y4699013D03*
G01X5687987Y4698987D03*
G01X5757990Y4698987D03*
G01X5827992Y4698987D03*
G01X5897994Y4699013D03*
G01X5967997Y4698987D03*
G54D24*
G01X4475947Y8313852D03*
G01X4602947Y8313852D03*
G01X4729947Y8313852D03*
G01X4856947Y8313852D03*
G01X4983947Y8313852D03*
G01X5110947Y8313852D03*
G01X5237947Y8313852D03*
G01X5364947Y8313852D03*
G54D25*
G01X5424053Y9466148D03*
G04 Pad End*

M02*

