G04 Layer: BottomSilkscreenLayer*
G04 EasyEDA Pro v3.2.117, 2026-06-19 14:17:38*
G04 Gerber Generator version 0.3*
G04 Scale: 100 percent, Rotated: No, Reflected: No*
G04 Dimensions in millimeters*
G04 Leading zeros omitted, absolute positions, 4 integers and 5 decimals*
G04 Generated by one-click*
%FSLAX45Y45*%
%MOMM*%
%ADD10C,0.2032*%
%ADD11C,0.1524*%
%ADD12C,0.254*%
%ADD13C,0.15199*%
%ADD14C,0.2*%
%ADD15C,0.4066*%
%ADD16C,0.4*%
G75*


G04 Text Start*
G54D10*
G01X9401810Y2633980D02*
G01X9401810Y2447290D01*
G01X9464040Y2633980D02*
G01X9339580Y2633980D01*
G01X9276588Y2633980D02*
G01X9152128Y2447290D01*
G01X9152128Y2633980D02*
G01X9276588Y2447290D01*
G01X9089136Y2527300D02*
G01X8929116Y2527300D01*
G01X8741664Y2607310D02*
G01X8759444Y2625090D01*
G01X8786114Y2633980D01*
G01X8821674Y2633980D01*
G01X8848344Y2625090D01*
G01X8866124Y2607310D01*
G01X8866124Y2589530D01*
G01X8857234Y2571750D01*
G01X8848344Y2562860D01*
G01X8830564Y2553970D01*
G01X8777224Y2536190D01*
G01X8759444Y2527300D01*
G01X8750554Y2518410D01*
G01X8741664Y2500630D01*
G01X8741664Y2473960D01*
G01X8759444Y2456180D01*
G01X8786114Y2447290D01*
G01X8821674Y2447290D01*
G01X8848344Y2456180D01*
G01X8866124Y2473960D01*
G01X8616442Y2633980D02*
G01X8616442Y2447290D01*
G01X8678672Y2633980D02*
G01X8554212Y2633980D01*
G01X8491220Y2633980D02*
G01X8491220Y2447290D01*
G01X8491220Y2633980D02*
G01X8420100Y2447290D01*
G01X8348980Y2633980D02*
G01X8420100Y2447290D01*
G01X8348980Y2633980D02*
G01X8348980Y2447290D01*
G01X8268208Y2633980D02*
G01X8170418Y2633980D01*
G01X8223758Y2562860D01*
G01X8197088Y2562860D01*
G01X8179308Y2553970D01*
G01X8170418Y2545080D01*
G01X8161528Y2518410D01*
G01X8161528Y2500630D01*
G01X8170418Y2473960D01*
G01X8188198Y2456180D01*
G01X8214868Y2447290D01*
G01X8241538Y2447290D01*
G01X8268208Y2456180D01*
G01X8277098Y2465070D01*
G01X8285988Y2482850D01*
G01X8089646Y2589530D02*
G01X8089646Y2598420D01*
G01X8080756Y2616200D01*
G01X8071866Y2625090D01*
G01X8054086Y2633980D01*
G01X8018526Y2633980D01*
G01X8000746Y2625090D01*
G01X7991856Y2616200D01*
G01X7982966Y2598420D01*
G01X7982966Y2580640D01*
G01X7991856Y2562860D01*
G01X8009636Y2536190D01*
G01X8098536Y2447290D01*
G01X7974076Y2447290D01*
G01X7911084Y2527300D02*
G01X7751064Y2527300D01*
G01X7688072Y2633980D02*
G01X7616952Y2447290D01*
G01X7545832Y2633980D02*
G01X7616952Y2447290D01*
G01X7482840Y2598420D02*
G01X7465060Y2607310D01*
G01X7438390Y2633980D01*
G01X7438390Y2447290D01*
G01X7366508Y2491740D02*
G01X7375398Y2482850D01*
G01X7366508Y2473960D01*
G01X7357618Y2482850D01*
G01X7366508Y2491740D01*
G01X7294626Y2598420D02*
G01X7276846Y2607310D01*
G01X7250176Y2633980D01*
G01X7250176Y2447290D01*
G01X9464040Y2329180D02*
G01X9464040Y2142490D01*
G01X9464040Y2329180D02*
G01X9401810Y2329180D01*
G01X9375140Y2320290D01*
G01X9357360Y2302510D01*
G01X9348470Y2284730D01*
G01X9339580Y2258060D01*
G01X9339580Y2213610D01*
G01X9348470Y2186940D01*
G01X9357360Y2169160D01*
G01X9375140Y2151380D01*
G01X9401810Y2142490D01*
G01X9464040Y2142490D01*
G01X9276588Y2329180D02*
G01X9276588Y2142490D01*
G01X9276588Y2329180D02*
G01X9161018Y2329180D01*
G01X9276588Y2240280D02*
G01X9205468Y2240280D01*
G01X9276588Y2142490D02*
G01X9161018Y2142490D01*
G01X8973566Y2302510D02*
G01X8991346Y2320290D01*
G01X9018016Y2329180D01*
G01X9053576Y2329180D01*
G01X9080246Y2320290D01*
G01X9098026Y2302510D01*
G01X9098026Y2284730D01*
G01X9089136Y2266950D01*
G01X9080246Y2258060D01*
G01X9062466Y2249170D01*
G01X9009126Y2231390D01*
G01X8991346Y2222500D01*
G01X8982456Y2213610D01*
G01X8973566Y2195830D01*
G01X8973566Y2169160D01*
G01X8991346Y2151380D01*
G01X9018016Y2142490D01*
G01X9053576Y2142490D01*
G01X9080246Y2151380D01*
G01X9098026Y2169160D01*
G01X8910574Y2329180D02*
G01X8910574Y2142490D01*
G01X8714232Y2284730D02*
G01X8723122Y2302510D01*
G01X8740902Y2320290D01*
G01X8758682Y2329180D01*
G01X8794242Y2329180D01*
G01X8812022Y2320290D01*
G01X8829802Y2302510D01*
G01X8838692Y2284730D01*
G01X8847582Y2258060D01*
G01X8847582Y2213610D01*
G01X8838692Y2186940D01*
G01X8829802Y2169160D01*
G01X8812022Y2151380D01*
G01X8794242Y2142490D01*
G01X8758682Y2142490D01*
G01X8740902Y2151380D01*
G01X8723122Y2169160D01*
G01X8714232Y2186940D01*
G01X8714232Y2213610D01*
G01X8758682Y2213610D02*
G01X8714232Y2213610D01*
G01X8651240Y2329180D02*
G01X8651240Y2142490D01*
G01X8651240Y2329180D02*
G01X8526780Y2142490D01*
G01X8526780Y2329180D02*
G01X8526780Y2142490D01*
G01X8463788Y2329180D02*
G01X8463788Y2142490D01*
G01X8463788Y2329180D02*
G01X8348218Y2329180D01*
G01X8463788Y2240280D02*
G01X8392668Y2240280D01*
G01X8463788Y2142490D02*
G01X8348218Y2142490D01*
G01X8285226Y2329180D02*
G01X8285226Y2142490D01*
G01X8285226Y2329180D02*
G01X8222996Y2329180D01*
G01X8196326Y2320290D01*
G01X8178546Y2302510D01*
G01X8169656Y2284730D01*
G01X8160766Y2258060D01*
G01X8160766Y2213610D01*
G01X8169656Y2186940D01*
G01X8178546Y2169160D01*
G01X8196326Y2151380D01*
G01X8222996Y2142490D01*
G01X8285226Y2142490D01*
G01X7898638Y2329180D02*
G01X7898638Y2142490D01*
G01X7898638Y2329180D02*
G01X7818628Y2329180D01*
G01X7791958Y2320290D01*
G01X7783068Y2311400D01*
G01X7774178Y2293620D01*
G01X7774178Y2275840D01*
G01X7783068Y2258060D01*
G01X7791958Y2249170D01*
G01X7818628Y2240280D01*
G01X7898638Y2240280D02*
G01X7818628Y2240280D01*
G01X7791958Y2231390D01*
G01X7783068Y2222500D01*
G01X7774178Y2204720D01*
G01X7774178Y2178050D01*
G01X7783068Y2160270D01*
G01X7791958Y2151380D01*
G01X7818628Y2142490D01*
G01X7898638Y2142490D01*
G01X7711186Y2329180D02*
G01X7640066Y2240280D01*
G01X7640066Y2142490D01*
G01X7568946Y2329180D02*
G01X7640066Y2240280D01*
G01X7306818Y2329180D02*
G01X7306818Y2142490D01*
G01X7306818Y2329180D02*
G01X7235698Y2142490D01*
G01X7164578Y2329180D02*
G01X7235698Y2142490D01*
G01X7164578Y2329180D02*
G01X7164578Y2142490D01*
G01X7101586Y2266950D02*
G01X7101586Y2142490D01*
G01X7101586Y2213610D02*
G01X7092696Y2240280D01*
G01X7074916Y2258060D01*
G01X7057136Y2266950D01*
G01X7030466Y2266950D01*
G01X6768338Y2329180D02*
G01X6723888Y2142490D01*
G01X6679438Y2329180D02*
G01X6723888Y2142490D01*
G01X6679438Y2329180D02*
G01X6634988Y2142490D01*
G01X6590538Y2329180D02*
G01X6634988Y2142490D01*
G01X6527546Y2266950D02*
G01X6527546Y2178050D01*
G01X6518656Y2151380D01*
G01X6500876Y2142490D01*
G01X6474206Y2142490D01*
G01X6456426Y2151380D01*
G01X6429756Y2178050D01*
G01X6429756Y2266950D02*
G01X6429756Y2142490D01*
G54D11*
G01X5978398Y6276340D02*
G01X5981446Y6282690D01*
G01X5987796Y6288786D01*
G01X5993892Y6291834D01*
G01X6006338Y6291834D01*
G01X6012434Y6288786D01*
G01X6018784Y6282690D01*
G01X6021832Y6276340D01*
G01X6024880Y6267196D01*
G01X6024880Y6251702D01*
G01X6021832Y6242304D01*
G01X6018784Y6236208D01*
G01X6012434Y6229858D01*
G01X6006338Y6226810D01*
G01X5993892Y6226810D01*
G01X5987796Y6229858D01*
G01X5981446Y6236208D01*
G01X5978398Y6242304D01*
G01X5948172Y6279388D02*
G01X5942076Y6282690D01*
G01X5932932Y6291834D01*
G01X5932932Y6226810D01*
G01X6206998Y6416040D02*
G01X6210046Y6422390D01*
G01X6216396Y6428486D01*
G01X6222492Y6431534D01*
G01X6234938Y6431534D01*
G01X6241034Y6428486D01*
G01X6247384Y6422390D01*
G01X6250432Y6416040D01*
G01X6253480Y6406896D01*
G01X6253480Y6391402D01*
G01X6250432Y6382004D01*
G01X6247384Y6375908D01*
G01X6241034Y6369558D01*
G01X6234938Y6366510D01*
G01X6222492Y6366510D01*
G01X6216396Y6369558D01*
G01X6210046Y6375908D01*
G01X6206998Y6382004D01*
G01X6173724Y6416040D02*
G01X6173724Y6419088D01*
G01X6170676Y6425438D01*
G01X6167628Y6428486D01*
G01X6161532Y6431534D01*
G01X6149086Y6431534D01*
G01X6142736Y6428486D01*
G01X6139688Y6425438D01*
G01X6136640Y6419088D01*
G01X6136640Y6412992D01*
G01X6139688Y6406896D01*
G01X6146038Y6397498D01*
G01X6176772Y6366510D01*
G01X6133592Y6366510D01*
G01X5952998Y7266940D02*
G01X5956046Y7273290D01*
G01X5962396Y7279386D01*
G01X5968492Y7282434D01*
G01X5980938Y7282434D01*
G01X5987034Y7279386D01*
G01X5993384Y7273290D01*
G01X5996432Y7266940D01*
G01X5999480Y7257796D01*
G01X5999480Y7242302D01*
G01X5996432Y7232904D01*
G01X5993384Y7226808D01*
G01X5987034Y7220458D01*
G01X5980938Y7217410D01*
G01X5968492Y7217410D01*
G01X5962396Y7220458D01*
G01X5956046Y7226808D01*
G01X5952998Y7232904D01*
G01X5916676Y7282434D02*
G01X5882640Y7282434D01*
G01X5901182Y7257796D01*
G01X5892038Y7257796D01*
G01X5885688Y7254748D01*
G01X5882640Y7251446D01*
G01X5879592Y7242302D01*
G01X5879592Y7235952D01*
G01X5882640Y7226808D01*
G01X5888736Y7220458D01*
G01X5898134Y7217410D01*
G01X5907532Y7217410D01*
G01X5916676Y7220458D01*
G01X5919724Y7223760D01*
G01X5922772Y7229856D01*
G01X4606798Y7940040D02*
G01X4609846Y7946390D01*
G01X4616196Y7952486D01*
G01X4622292Y7955534D01*
G01X4634738Y7955534D01*
G01X4640834Y7952486D01*
G01X4647184Y7946390D01*
G01X4650232Y7940040D01*
G01X4653280Y7930896D01*
G01X4653280Y7915402D01*
G01X4650232Y7906004D01*
G01X4647184Y7899908D01*
G01X4640834Y7893558D01*
G01X4634738Y7890510D01*
G01X4622292Y7890510D01*
G01X4616196Y7893558D01*
G01X4609846Y7899908D01*
G01X4606798Y7906004D01*
G01X4539488Y7946390D02*
G01X4542536Y7952486D01*
G01X4551934Y7955534D01*
G01X4558030Y7955534D01*
G01X4567428Y7952486D01*
G01X4573524Y7943088D01*
G01X4576572Y7927848D01*
G01X4576572Y7912354D01*
G01X4573524Y7899908D01*
G01X4567428Y7893558D01*
G01X4558030Y7890510D01*
G01X4554982Y7890510D01*
G01X4545838Y7893558D01*
G01X4539488Y7899908D01*
G01X4536440Y7909052D01*
G01X4536440Y7912354D01*
G01X4539488Y7921498D01*
G01X4545838Y7927848D01*
G01X4554982Y7930896D01*
G01X4558030Y7930896D01*
G01X4567428Y7927848D01*
G01X4573524Y7921498D01*
G01X4576572Y7912354D01*
G01X5600446Y7944612D02*
G01X5594096Y7947660D01*
G01X5588000Y7954010D01*
G01X5584952Y7960106D01*
G01X5584952Y7972552D01*
G01X5588000Y7978648D01*
G01X5594096Y7984998D01*
G01X5600446Y7988046D01*
G01X5609590Y7991094D01*
G01X5625084Y7991094D01*
G01X5634482Y7988046D01*
G01X5640578Y7984998D01*
G01X5646928Y7978648D01*
G01X5649976Y7972552D01*
G01X5649976Y7960106D01*
G01X5646928Y7954010D01*
G01X5640578Y7947660D01*
G01X5634482Y7944612D01*
G01X5584952Y7871206D02*
G01X5649976Y7902194D01*
G01X5584952Y7914386D02*
G01X5584952Y7871206D01*
G01X5559298Y5603240D02*
G01X5562346Y5609590D01*
G01X5568696Y5615686D01*
G01X5574792Y5618734D01*
G01X5587238Y5618734D01*
G01X5593334Y5615686D01*
G01X5599684Y5609590D01*
G01X5602732Y5603240D01*
G01X5605780Y5594096D01*
G01X5605780Y5578602D01*
G01X5602732Y5569204D01*
G01X5599684Y5563108D01*
G01X5593334Y5556758D01*
G01X5587238Y5553710D01*
G01X5574792Y5553710D01*
G01X5568696Y5556758D01*
G01X5562346Y5563108D01*
G01X5559298Y5569204D01*
G01X5513832Y5618734D02*
G01X5522976Y5615686D01*
G01X5526024Y5609590D01*
G01X5526024Y5603240D01*
G01X5522976Y5597144D01*
G01X5516880Y5594096D01*
G01X5504434Y5591048D01*
G01X5495036Y5587746D01*
G01X5488940Y5581650D01*
G01X5485892Y5575554D01*
G01X5485892Y5566156D01*
G01X5488940Y5560060D01*
G01X5491988Y5556758D01*
G01X5501386Y5553710D01*
G01X5513832Y5553710D01*
G01X5522976Y5556758D01*
G01X5526024Y5560060D01*
G01X5529072Y5566156D01*
G01X5529072Y5575554D01*
G01X5526024Y5581650D01*
G01X5519928Y5587746D01*
G01X5510530Y5591048D01*
G01X5498338Y5594096D01*
G01X5491988Y5597144D01*
G01X5488940Y5603240D01*
G01X5488940Y5609590D01*
G01X5491988Y5615686D01*
G01X5501386Y5618734D01*
G01X5513832Y5618734D01*
G01X4555998Y5603240D02*
G01X4559046Y5609590D01*
G01X4565396Y5615686D01*
G01X4571492Y5618734D01*
G01X4583938Y5618734D01*
G01X4590034Y5615686D01*
G01X4596384Y5609590D01*
G01X4599432Y5603240D01*
G01X4602480Y5594096D01*
G01X4602480Y5578602D01*
G01X4599432Y5569204D01*
G01X4596384Y5563108D01*
G01X4590034Y5556758D01*
G01X4583938Y5553710D01*
G01X4571492Y5553710D01*
G01X4565396Y5556758D01*
G01X4559046Y5563108D01*
G01X4555998Y5569204D01*
G01X4485640Y5597144D02*
G01X4488688Y5587746D01*
G01X4495038Y5581650D01*
G01X4504182Y5578602D01*
G01X4507230Y5578602D01*
G01X4516628Y5581650D01*
G01X4522724Y5587746D01*
G01X4525772Y5597144D01*
G01X4525772Y5600192D01*
G01X4522724Y5609590D01*
G01X4516628Y5615686D01*
G01X4507230Y5618734D01*
G01X4504182Y5618734D01*
G01X4495038Y5615686D01*
G01X4488688Y5609590D01*
G01X4485640Y5597144D01*
G01X4485640Y5581650D01*
G01X4488688Y5566156D01*
G01X4495038Y5556758D01*
G01X4504182Y5553710D01*
G01X4510532Y5553710D01*
G01X4519676Y5556758D01*
G01X4522724Y5563108D01*
G01X7123426Y6954982D02*
G01X7126474Y6961332D01*
G01X7132824Y6967428D01*
G01X7138920Y6970476D01*
G01X7151366Y6970476D01*
G01X7157462Y6967428D01*
G01X7163812Y6961332D01*
G01X7166860Y6954982D01*
G01X7169908Y6945838D01*
G01X7169908Y6930344D01*
G01X7166860Y6920946D01*
G01X7163812Y6914850D01*
G01X7157462Y6908500D01*
G01X7151366Y6905452D01*
G01X7138920Y6905452D01*
G01X7132824Y6908500D01*
G01X7126474Y6914850D01*
G01X7123426Y6920946D01*
G01X7087104Y6970476D02*
G01X7053068Y6970476D01*
G01X7071610Y6945838D01*
G01X7062466Y6945838D01*
G01X7056116Y6942790D01*
G01X7053068Y6939488D01*
G01X7050020Y6930344D01*
G01X7050020Y6923994D01*
G01X7053068Y6914850D01*
G01X7059164Y6908500D01*
G01X7068562Y6905452D01*
G01X7077960Y6905452D01*
G01X7087104Y6908500D01*
G01X7090152Y6911802D01*
G01X7093200Y6917898D01*
G01X6989060Y6970476D02*
G01X7019794Y6927296D01*
G01X6973566Y6927296D01*
G01X6989060Y6970476D02*
G01X6989060Y6905452D01*
G01X7113499Y6744632D02*
G01X7116547Y6750982D01*
G01X7122897Y6757078D01*
G01X7128993Y6760126D01*
G01X7141439Y6760126D01*
G01X7147535Y6757078D01*
G01X7153885Y6750982D01*
G01X7156933Y6744632D01*
G01X7159981Y6735488D01*
G01X7159981Y6719994D01*
G01X7156933Y6710596D01*
G01X7153885Y6704500D01*
G01X7147535Y6698150D01*
G01X7141439Y6695102D01*
G01X7128993Y6695102D01*
G01X7122897Y6698150D01*
G01X7116547Y6704500D01*
G01X7113499Y6710596D01*
G01X7077177Y6760126D02*
G01X7043141Y6760126D01*
G01X7061683Y6735488D01*
G01X7052539Y6735488D01*
G01X7046189Y6732440D01*
G01X7043141Y6729138D01*
G01X7040093Y6719994D01*
G01X7040093Y6713644D01*
G01X7043141Y6704500D01*
G01X7049237Y6698150D01*
G01X7058635Y6695102D01*
G01X7068033Y6695102D01*
G01X7077177Y6698150D01*
G01X7080225Y6701452D01*
G01X7083273Y6707548D01*
G01X6972783Y6760126D02*
G01X7003771Y6760126D01*
G01X7006819Y6732440D01*
G01X7003771Y6735488D01*
G01X6994627Y6738536D01*
G01X6985229Y6738536D01*
G01X6975831Y6735488D01*
G01X6969735Y6729138D01*
G01X6966687Y6719994D01*
G01X6966687Y6713644D01*
G01X6969735Y6704500D01*
G01X6975831Y6698150D01*
G01X6985229Y6695102D01*
G01X6994627Y6695102D01*
G01X7003771Y6698150D01*
G01X7006819Y6701452D01*
G01X7009867Y6707548D01*
G01X7113179Y7526281D02*
G01X7116227Y7532631D01*
G01X7122577Y7538727D01*
G01X7128673Y7541775D01*
G01X7141119Y7541775D01*
G01X7147215Y7538727D01*
G01X7153565Y7532631D01*
G01X7156613Y7526281D01*
G01X7159661Y7517137D01*
G01X7159661Y7501643D01*
G01X7156613Y7492245D01*
G01X7153565Y7486149D01*
G01X7147215Y7479799D01*
G01X7141119Y7476751D01*
G01X7128673Y7476751D01*
G01X7122577Y7479799D01*
G01X7116227Y7486149D01*
G01X7113179Y7492245D01*
G01X7076857Y7541775D02*
G01X7042821Y7541775D01*
G01X7061363Y7517137D01*
G01X7052219Y7517137D01*
G01X7045869Y7514089D01*
G01X7042821Y7510787D01*
G01X7039773Y7501643D01*
G01X7039773Y7495293D01*
G01X7042821Y7486149D01*
G01X7048917Y7479799D01*
G01X7058315Y7476751D01*
G01X7067713Y7476751D01*
G01X7076857Y7479799D01*
G01X7079905Y7483101D01*
G01X7082953Y7489197D01*
G01X6972463Y7532631D02*
G01X6975511Y7538727D01*
G01X6984909Y7541775D01*
G01X6991005Y7541775D01*
G01X7000403Y7538727D01*
G01X7006499Y7529329D01*
G01X7009547Y7514089D01*
G01X7009547Y7498595D01*
G01X7006499Y7486149D01*
G01X7000403Y7479799D01*
G01X6991005Y7476751D01*
G01X6987957Y7476751D01*
G01X6978813Y7479799D01*
G01X6972463Y7486149D01*
G01X6969415Y7495293D01*
G01X6969415Y7498595D01*
G01X6972463Y7507739D01*
G01X6978813Y7514089D01*
G01X6987957Y7517137D01*
G01X6991005Y7517137D01*
G01X7000403Y7514089D01*
G01X7006499Y7507739D01*
G01X7009547Y7498595D01*
G01X7113179Y7335781D02*
G01X7116227Y7342131D01*
G01X7122577Y7348227D01*
G01X7128673Y7351275D01*
G01X7141119Y7351275D01*
G01X7147215Y7348227D01*
G01X7153565Y7342131D01*
G01X7156613Y7335781D01*
G01X7159661Y7326637D01*
G01X7159661Y7311143D01*
G01X7156613Y7301745D01*
G01X7153565Y7295649D01*
G01X7147215Y7289299D01*
G01X7141119Y7286251D01*
G01X7128673Y7286251D01*
G01X7122577Y7289299D01*
G01X7116227Y7295649D01*
G01X7113179Y7301745D01*
G01X7076857Y7351275D02*
G01X7042821Y7351275D01*
G01X7061363Y7326637D01*
G01X7052219Y7326637D01*
G01X7045869Y7323589D01*
G01X7042821Y7320287D01*
G01X7039773Y7311143D01*
G01X7039773Y7304793D01*
G01X7042821Y7295649D01*
G01X7048917Y7289299D01*
G01X7058315Y7286251D01*
G01X7067713Y7286251D01*
G01X7076857Y7289299D01*
G01X7079905Y7292601D01*
G01X7082953Y7298697D01*
G01X6966367Y7351275D02*
G01X6997355Y7286251D01*
G01X7009547Y7351275D02*
G01X6966367Y7351275D01*
G01X7113179Y7145281D02*
G01X7116227Y7151631D01*
G01X7122577Y7157727D01*
G01X7128673Y7160775D01*
G01X7141119Y7160775D01*
G01X7147215Y7157727D01*
G01X7153565Y7151631D01*
G01X7156613Y7145281D01*
G01X7159661Y7136137D01*
G01X7159661Y7120643D01*
G01X7156613Y7111245D01*
G01X7153565Y7105149D01*
G01X7147215Y7098799D01*
G01X7141119Y7095751D01*
G01X7128673Y7095751D01*
G01X7122577Y7098799D01*
G01X7116227Y7105149D01*
G01X7113179Y7111245D01*
G01X7076857Y7160775D02*
G01X7042821Y7160775D01*
G01X7061363Y7136137D01*
G01X7052219Y7136137D01*
G01X7045869Y7133089D01*
G01X7042821Y7129787D01*
G01X7039773Y7120643D01*
G01X7039773Y7114293D01*
G01X7042821Y7105149D01*
G01X7048917Y7098799D01*
G01X7058315Y7095751D01*
G01X7067713Y7095751D01*
G01X7076857Y7098799D01*
G01X7079905Y7102101D01*
G01X7082953Y7108197D01*
G01X6994307Y7160775D02*
G01X7003451Y7157727D01*
G01X7006499Y7151631D01*
G01X7006499Y7145281D01*
G01X7003451Y7139185D01*
G01X6997355Y7136137D01*
G01X6984909Y7133089D01*
G01X6975511Y7129787D01*
G01X6969415Y7123691D01*
G01X6966367Y7117595D01*
G01X6966367Y7108197D01*
G01X6969415Y7102101D01*
G01X6972463Y7098799D01*
G01X6981861Y7095751D01*
G01X6994307Y7095751D01*
G01X7003451Y7098799D01*
G01X7006499Y7102101D01*
G01X7009547Y7108197D01*
G01X7009547Y7117595D01*
G01X7006499Y7123691D01*
G01X7000403Y7129787D01*
G01X6991005Y7133089D01*
G01X6978813Y7136137D01*
G01X6972463Y7139185D01*
G01X6969415Y7145281D01*
G01X6969415Y7151631D01*
G01X6972463Y7157727D01*
G01X6981861Y7160775D01*
G01X6994307Y7160775D01*
G01X7663043Y7295134D02*
G01X7663043Y7230110D01*
G01X7663043Y7230110D02*
G01X7625959Y7230110D01*
G01X7558649Y7295134D02*
G01X7589637Y7295134D01*
G01X7592685Y7267448D01*
G01X7589637Y7270496D01*
G01X7580493Y7273544D01*
G01X7571095Y7273544D01*
G01X7561697Y7270496D01*
G01X7555601Y7264146D01*
G01X7552553Y7255002D01*
G01X7552553Y7248652D01*
G01X7555601Y7239508D01*
G01X7561697Y7233158D01*
G01X7571095Y7230110D01*
G01X7580493Y7230110D01*
G01X7589637Y7233158D01*
G01X7592685Y7236460D01*
G01X7595733Y7242556D01*
G01X5778500Y6299454D02*
G01X5778500Y6234430D01*
G01X5778500Y6299454D02*
G01X5750560Y6299454D01*
G01X5741416Y6296406D01*
G01X5738368Y6293358D01*
G01X5735066Y6287008D01*
G01X5735066Y6280912D01*
G01X5738368Y6274816D01*
G01X5741416Y6271768D01*
G01X5750560Y6268466D01*
G01X5778500Y6268466D01*
G01X5756910Y6268466D02*
G01X5735066Y6234430D01*
G01X5704840Y6287008D02*
G01X5698744Y6290310D01*
G01X5689600Y6299454D01*
G01X5689600Y6234430D01*
G01X5237480Y7777734D02*
G01X5237480Y7712710D01*
G01X5237480Y7777734D02*
G01X5209540Y7777734D01*
G01X5200396Y7774686D01*
G01X5197348Y7771638D01*
G01X5194046Y7765288D01*
G01X5194046Y7759192D01*
G01X5197348Y7753096D01*
G01X5200396Y7750048D01*
G01X5209540Y7746746D01*
G01X5237480Y7746746D01*
G01X5215890Y7746746D02*
G01X5194046Y7712710D01*
G01X5160772Y7762240D02*
G01X5160772Y7765288D01*
G01X5157724Y7771638D01*
G01X5154676Y7774686D01*
G01X5148580Y7777734D01*
G01X5136134Y7777734D01*
G01X5129784Y7774686D01*
G01X5126736Y7771638D01*
G01X5123688Y7765288D01*
G01X5123688Y7759192D01*
G01X5126736Y7753096D01*
G01X5133086Y7743698D01*
G01X5163820Y7712710D01*
G01X5120640Y7712710D01*
G01X5466080Y7955534D02*
G01X5466080Y7890510D01*
G01X5466080Y7955534D02*
G01X5438140Y7955534D01*
G01X5428996Y7952486D01*
G01X5425948Y7949438D01*
G01X5422646Y7943088D01*
G01X5422646Y7936992D01*
G01X5425948Y7930896D01*
G01X5428996Y7927848D01*
G01X5438140Y7924546D01*
G01X5466080Y7924546D01*
G01X5444490Y7924546D02*
G01X5422646Y7890510D01*
G01X5386324Y7955534D02*
G01X5352288Y7955534D01*
G01X5370830Y7930896D01*
G01X5361686Y7930896D01*
G01X5355336Y7927848D01*
G01X5352288Y7924546D01*
G01X5349240Y7915402D01*
G01X5349240Y7909052D01*
G01X5352288Y7899908D01*
G01X5358384Y7893558D01*
G01X5367782Y7890510D01*
G01X5377180Y7890510D01*
G01X5386324Y7893558D01*
G01X5389372Y7896860D01*
G01X5392420Y7902956D01*
G01X4928396Y6841402D02*
G01X4974878Y6841402D01*
G01X4984022Y6838354D01*
G01X4990372Y6832004D01*
G01X4993420Y6822860D01*
G01X4993420Y6816510D01*
G01X4990372Y6807366D01*
G01X4984022Y6801270D01*
G01X4974878Y6797968D01*
G01X4928396Y6797968D01*
G01X4940842Y6767742D02*
G01X4937540Y6761646D01*
G01X4928396Y6752502D01*
G01X4993420Y6752502D01*
G01X6241034Y6675120D02*
G01X6176010Y6718554D01*
G01X6241034Y6718554D02*
G01X6176010Y6675120D01*
G01X6228588Y6748780D02*
G01X6231890Y6754876D01*
G01X6241034Y6764020D01*
G01X6176010Y6764020D01*
G04 Text End*

G04 PolygonModel Start*
G54D12*
G01X6022419Y6037743D02*
G01X6102416Y6037743D01*
G01X5966374Y6037697D02*
G01X5886376Y6037697D01*
G01X6022419Y6179711D02*
G01X6102416Y6179711D01*
G01X5966374Y6179663D02*
G01X5886376Y6179663D01*
G01X6133391Y6068725D02*
G01X6133391Y6148730D01*
G01X5855399Y6148677D02*
G01X5855399Y6068675D01*
G01X5886381Y6179663D02*
G03X5855399Y6148677I0J-30983D01*
G01X5855399Y6068680D02*
G03X5886381Y6037697I30983J0D01*
G01X6102411Y6037743D02*
G03X6133391Y6068725I-3J30983D01*
G01X6133391Y6148723D02*
G03X6102411Y6179711I-30983J5D01*
G01X5971619Y6329843D02*
G01X6051616Y6329843D01*
G01X5915574Y6329797D02*
G01X5835576Y6329797D01*
G01X5971619Y6471811D02*
G01X6051616Y6471811D01*
G01X5915574Y6471763D02*
G01X5835576Y6471763D01*
G01X6082591Y6360825D02*
G01X6082591Y6440830D01*
G01X5804599Y6440777D02*
G01X5804599Y6360775D01*
G01X5835581Y6471763D02*
G03X5804599Y6440777I0J-30983D01*
G01X5804599Y6360780D02*
G03X5835581Y6329797I30983J0D01*
G01X6051611Y6329843D02*
G03X6082591Y6360825I-3J30983D01*
G01X6082591Y6440823D02*
G03X6051611Y6471811I-30983J5D01*
G01X5976690Y7010579D02*
G01X6056687Y7010579D01*
G01X5920645Y7010533D02*
G01X5840647Y7010533D01*
G01X5976690Y7152547D02*
G01X6056687Y7152547D01*
G01X5920645Y7152499D02*
G01X5840647Y7152499D01*
G01X6087662Y7041562D02*
G01X6087662Y7121567D01*
G01X5809670Y7121514D02*
G01X5809670Y7041511D01*
G01X5840653Y7152499D02*
G03X5809670Y7121514I0J-30983D01*
G01X5809670Y7041516D02*
G03X5840653Y7010533I30983J0D01*
G01X6056682Y7010579D02*
G03X6087662Y7041562I-3J30983D01*
G01X6087662Y7121559D02*
G03X6056682Y7152547I-30983J5D01*
G01X4593079Y7829004D02*
G01X4513077Y7829004D01*
G01X4624065Y7718029D02*
G01X4624065Y7798026D01*
G01X4482099Y7718029D02*
G01X4482099Y7798026D01*
G01X4624647Y7660439D02*
G01X4624647Y7580440D01*
G01X4593664Y7549457D02*
G01X4513666Y7549457D01*
G01X4482686Y7660439D02*
G01X4482686Y7580440D01*
G01X4593664Y7549452D02*
G03X4624647Y7580434I0J30983D01*
G01X4482681Y7580434D02*
G03X4513666Y7549452I30983J0D01*
G01X4624065Y7798021D02*
G03X4593079Y7829004I-30983J0D01*
G01X4513082Y7829004D02*
G03X4482099Y7798021I0J-30983D01*
G01X5666077Y7822502D02*
G01X5586075Y7822502D01*
G01X5697063Y7711526D02*
G01X5697063Y7791524D01*
G01X5555097Y7711526D02*
G01X5555097Y7791524D01*
G01X5697644Y7653937D02*
G01X5697644Y7573937D01*
G01X5666661Y7542954D02*
G01X5586664Y7542954D01*
G01X5555684Y7653937D02*
G01X5555684Y7573937D01*
G01X5666661Y7542949D02*
G03X5697644Y7573932I0J30983D01*
G01X5555679Y7573932D02*
G03X5586664Y7542949I30983J0D01*
G01X5697063Y7791519D02*
G03X5666077Y7822502I-30983J0D01*
G01X5586080Y7822502D02*
G03X5555097Y7791519I0J-30983D01*
G01X5577177Y5942902D02*
G01X5497175Y5942902D01*
G01X5608163Y5831926D02*
G01X5608163Y5911924D01*
G01X5466197Y5831926D02*
G01X5466197Y5911924D01*
G01X5608744Y5774337D02*
G01X5608744Y5694337D01*
G01X5577761Y5663354D02*
G01X5497764Y5663354D01*
G01X5466784Y5774337D02*
G01X5466784Y5694337D01*
G01X5577761Y5663349D02*
G03X5608744Y5694332I0J30983D01*
G01X5466779Y5694332D02*
G03X5497764Y5663349I30983J0D01*
G01X5608163Y5911919D02*
G03X5577177Y5942902I-30983J0D01*
G01X5497180Y5942902D02*
G03X5466197Y5911919I0J-30983D01*
G01X4573877Y5930202D02*
G01X4493875Y5930202D01*
G01X4604863Y5819226D02*
G01X4604863Y5899224D01*
G01X4462897Y5819226D02*
G01X4462897Y5899224D01*
G01X4605444Y5761637D02*
G01X4605444Y5681637D01*
G01X4574461Y5650654D02*
G01X4494464Y5650654D01*
G01X4463484Y5761637D02*
G01X4463484Y5681637D01*
G01X4574461Y5650649D02*
G03X4605444Y5681632I0J30983D01*
G01X4463479Y5681632D02*
G03X4494464Y5650649I30983J0D01*
G01X4604863Y5899219D02*
G03X4573877Y5930202I-30983J0D01*
G01X4493880Y5930202D02*
G03X4462897Y5899219I0J-30983D01*
G01X7337981Y7005157D02*
G01X7257984Y7005157D01*
G01X7394026Y7005203D02*
G01X7474024Y7005203D01*
G01X7337981Y6863189D02*
G01X7257984Y6863189D01*
G01X7394026Y6863237D02*
G01X7474024Y6863237D01*
G01X7227009Y6974175D02*
G01X7227009Y6894170D01*
G01X7505002Y6894223D02*
G01X7505002Y6974225D01*
G01X7474019Y6863237D02*
G03X7505002Y6894223I0J30983D01*
G01X7505002Y6974220D02*
G03X7474019Y7005203I-30983J0D01*
G01X7257989Y7005157D02*
G03X7227009Y6974175I3J-30983D01*
G01X7227009Y6894177D02*
G03X7257989Y6863189I30983J-5D01*
G01X7328054Y6807507D02*
G01X7248056Y6807507D01*
G01X7384099Y6807553D02*
G01X7464096Y6807553D01*
G01X7328054Y6665539D02*
G01X7248056Y6665539D01*
G01X7384099Y6665587D02*
G01X7464096Y6665587D01*
G01X7217081Y6776524D02*
G01X7217081Y6696520D01*
G01X7495074Y6696573D02*
G01X7495074Y6776575D01*
G01X7464091Y6665587D02*
G03X7495074Y6696573I0J30983D01*
G01X7495074Y6776570D02*
G03X7464091Y6807553I-30983J0D01*
G01X7248061Y6807507D02*
G03X7217081Y6776524I3J-30983D01*
G01X7217081Y6696527D02*
G03X7248061Y6665539I30983J-5D01*
G01X7327734Y7581998D02*
G01X7247736Y7581998D01*
G01X7383779Y7582044D02*
G01X7463776Y7582044D01*
G01X7327734Y7440030D02*
G01X7247736Y7440030D01*
G01X7383779Y7440078D02*
G01X7463776Y7440078D01*
G01X7216761Y7551015D02*
G01X7216761Y7471010D01*
G01X7494754Y7471064D02*
G01X7494754Y7551066D01*
G01X7463771Y7440078D02*
G03X7494754Y7471064I0J30983D01*
G01X7494754Y7551061D02*
G03X7463771Y7582044I-30983J0D01*
G01X7247741Y7581998D02*
G03X7216761Y7551015I3J-30983D01*
G01X7216761Y7471018D02*
G03X7247741Y7440030I30983J-5D01*
G01X7327734Y7391498D02*
G01X7247736Y7391498D01*
G01X7383779Y7391544D02*
G01X7463776Y7391544D01*
G01X7327734Y7249530D02*
G01X7247736Y7249530D01*
G01X7383779Y7249578D02*
G01X7463776Y7249578D01*
G01X7216761Y7360515D02*
G01X7216761Y7280510D01*
G01X7494754Y7280564D02*
G01X7494754Y7360566D01*
G01X7463771Y7249578D02*
G03X7494754Y7280564I0J30983D01*
G01X7494754Y7360561D02*
G03X7463771Y7391544I-30983J0D01*
G01X7247741Y7391498D02*
G03X7216761Y7360515I3J-30983D01*
G01X7216761Y7280518D02*
G03X7247741Y7249530I30983J-5D01*
G01X7327734Y7208156D02*
G01X7247736Y7208156D01*
G01X7383779Y7208202D02*
G01X7463776Y7208202D01*
G01X7327734Y7066188D02*
G01X7247736Y7066188D01*
G01X7383779Y7066236D02*
G01X7463776Y7066236D01*
G01X7216761Y7177173D02*
G01X7216761Y7097168D01*
G01X7494754Y7097222D02*
G01X7494754Y7177224D01*
G01X7463771Y7066236D02*
G03X7494754Y7097222I0J30983D01*
G01X7494754Y7177219D02*
G03X7463771Y7208202I-30983J0D01*
G01X7247741Y7208156D02*
G03X7216761Y7177173I3J-30983D01*
G01X7216761Y7097176D02*
G03X7247741Y7066188I30983J-5D01*
G54D11*
G01X7684999Y7150100D02*
G01X7669764Y7165510D01*
G01X7669764Y7165510D02*
G01X7568121Y7165510D01*
G01X7568121Y7165510D02*
G01X7554864Y7150100D01*
G01X7554864Y6896100D02*
G01X7569965Y6880685D01*
G01X7569965Y6880685D02*
G01X7671608Y6880685D01*
G01X7671608Y6880685D02*
G01X7684864Y6896100D01*
G54D13*
G01X7554864Y7150301D02*
G01X7554864Y7074101D01*
G01X7684864Y6895894D02*
G01X7684864Y6972094D01*
G01X7684864Y7150301D02*
G01X7684864Y7074101D01*
G01X7554864Y6895894D02*
G01X7554864Y6972094D01*
G54D11*
G01X5793760Y5977179D02*
G01X5793760Y5881291D01*
G01X5793760Y5881291D02*
G01X5661640Y5881291D01*
G01X5661640Y5881291D02*
G01X5661640Y5977179D01*
G01X5793760Y6062421D02*
G01X5793760Y6158309D01*
G01X5793760Y6158309D02*
G01X5661640Y6158309D01*
G01X5661640Y6158309D02*
G01X5661640Y6062421D01*
G01X5285760Y7488479D02*
G01X5285760Y7392591D01*
G01X5285760Y7392591D02*
G01X5153640Y7392591D01*
G01X5153640Y7392591D02*
G01X5153640Y7488479D01*
G01X5285760Y7573721D02*
G01X5285760Y7669609D01*
G01X5285760Y7669609D02*
G01X5153640Y7669609D01*
G01X5153640Y7669609D02*
G01X5153640Y7573721D01*
G01X5331440Y7726121D02*
G01X5331440Y7822009D01*
G01X5331440Y7822009D02*
G01X5463560Y7822009D01*
G01X5463560Y7822009D02*
G01X5463560Y7726121D01*
G01X5331440Y7640879D02*
G01X5331440Y7544991D01*
G01X5331440Y7544991D02*
G01X5463560Y7544991D01*
G01X5463560Y7544991D02*
G01X5463560Y7640879D01*
G54D14*
G01X4615990Y7089560D02*
G01X4615990Y6469800D01*
G01X4615990Y6469800D02*
G01X5281470Y6469800D01*
G01X5281470Y6469800D02*
G01X5281470Y7132740D01*
G01X5281470Y7132740D02*
G01X4615990Y7132740D01*
G01X4615990Y7132740D02*
G01X4615990Y7056540D01*
G54D16*
G01X5355999Y7138999D02*
G02X5395998Y7138872I20000J-127D01*
G02X5355999Y7138745I-20000J0D01*
G54D11*
G01X6116519Y6941496D02*
G01X5780797Y6941496D01*
G01X5780797Y6941496D02*
G01X5780797Y6535777D01*
G01X5780797Y6535777D02*
G01X6116519Y6535777D01*
G01X6116519Y6535777D02*
G01X6116519Y6941496D01*
G01X5973660Y6964356D02*
G01X6139379Y6964356D01*
G01X6139379Y6964356D02*
G01X6139379Y6778636D01*

G04 Circle Start*
G54D12*
G01X5215963Y7062001D02*
G03X5250050Y7062001I17043J0D01*
G03X5215963Y7062001I-17043J0D01*
G04 Circle End*

M02*

