G04 Layer: BottomLayer*
G04 EasyEDA Pro v3.2.117, 2026-06-19 14:17:38*
G04 Gerber Generator version 0.3*
G04 Scale: 100 percent, Rotated: No, Reflected: No*
G04 Dimensions in millimeters*
G04 Leading zeros omitted, absolute positions, 4 integers and 5 decimals*
G04 Generated by one-click*
%FSLAX45Y45*%
%MOMM*%
%AMRect*21,1,$1,$2,0,0,$3*%
%ADD10C,0.2032*%
%ADD11R,0.8X0.9*%
%ADD12R,0.9X0.8*%
%ADD13R,0.86401X0.8*%
%ADD14R,0.86401X0.80648*%
%ADD15C,1.7*%
%ADD16C,2.2*%
%ADD17O,1.5X0.27*%
%ADD18O,0.27X1.5*%
%ADD19C,2.5093*%
%ADD20C,2.5*%
%ADD21C,1.5*%
%ADD22R,1.2X1.4*%
%ADD23Rect,1.5X1.5X29.7*%
%ADD24C,0.61*%
%ADD25C,0.254*%
%ADD26C,0.762*%
%ADD27C,0.508*%
G75*


G04 Copper Start*
G36*
G01X2024381Y8473766D02*
G01X2120279Y8560195D01*
G01X2218773Y8643653D01*
G01X2319772Y8724062D01*
G01X2423181Y8801347D01*
G01X2528904Y8875436D01*
G01X2636841Y8946260D01*
G01X2746891Y9013753D01*
G01X2858953Y9077851D01*
G01X2972922Y9138494D01*
G01X3088690Y9195627D01*
G01X3206150Y9249195D01*
G01X3325192Y9299149D01*
G01X3445705Y9345442D01*
G01X3567576Y9388030D01*
G01X3690692Y9426875D01*
G01X3814938Y9461939D01*
G01X3940197Y9493190D01*
G01X4066352Y9520599D01*
G01X4193286Y9544140D01*
G01X4193286Y8811514D01*
G01X3848100Y8811514D01*
G01X3831249Y8809568D01*
G01X3815286Y8803831D01*
G01X3801051Y8794606D01*
G01X3789293Y8782378D01*
G01X3724243Y8717327D01*
G01X3720501Y8714011D01*
G01X3716755Y8711335D01*
G01X3712391Y8708763D01*
G01X3707776Y8706498D01*
G01X3703315Y8704688D01*
G01X3699489Y8703441D01*
G01X3696975Y8702836D01*
G01X3695215Y8702600D01*
G01X3676181Y8699481D01*
G01X3657976Y8693110D01*
G01X3641152Y8683679D01*
G01X3626218Y8671474D01*
G01X3613626Y8656864D01*
G01X3603759Y8640291D01*
G01X3596914Y8622259D01*
G01X3593299Y8603314D01*
G01X3593025Y8584028D01*
G01X3578214Y8592696D01*
G01X3562243Y8598972D01*
G01X3545494Y8602708D01*
G01X3528369Y8603813D01*
G01X3511279Y8602261D01*
G01X3503833Y8601921D01*
G01X3497089Y8602048D01*
G01X3492900Y8602609D01*
G01X3349004Y8746505D01*
G01X3338956Y8754214D01*
G01X3327256Y8759061D01*
G01X3314699Y8760714D01*
G01X2971800Y8760714D01*
G01X2959244Y8759061D01*
G01X2947543Y8754214D01*
G01X2937495Y8746505D01*
G01X2797795Y8606805D01*
G01X2790086Y8596757D01*
G01X2785239Y8585056D01*
G01X2783586Y8572500D01*
G01X2783586Y7755055D01*
G01X2782721Y7753484D01*
G01X2781134Y7751327D01*
G01X2772695Y7738373D01*
G01X2767485Y7723817D01*
G01X2765787Y7708450D01*
G01X2767694Y7693107D01*
G01X2773101Y7678623D01*
G01X2781715Y7665785D01*
G01X2793067Y7655290D01*
G01X2806541Y7647709D01*
G01X2821405Y7643454D01*
G01X2836849Y7642756D01*
G01X2852036Y7645653D01*
G01X2866139Y7651988D01*
G01X2878391Y7661417D01*
G01X2888128Y7673426D01*
G01X2899506Y7664781D01*
G01X2912473Y7658775D01*
G01X2926425Y7655686D01*
G01X2940714Y7655658D01*
G01X2954678Y7658692D01*
G01X2967668Y7664646D01*
G01X2979081Y7673246D01*
G01X2988386Y7684090D01*
G01X2995152Y7696677D01*
G01X2999065Y7710420D01*
G01X2999942Y7724683D01*
G01X2997744Y7738803D01*
G01X2992572Y7752123D01*
G01X2984666Y7764027D01*
G01X2983079Y7766184D01*
G01X2982214Y7767755D01*
G01X2982214Y8488905D01*
G01X3017295Y8523986D01*
G01X3157414Y8523986D01*
G01X3246906Y8434494D01*
G01X3247423Y8430313D01*
G01X3247498Y8423505D01*
G01X3247047Y8415296D01*
G01X3246764Y8412008D01*
G01X3245293Y8392058D01*
G01X3247433Y8372168D01*
G01X3253114Y8352987D01*
G01X3262150Y8335141D01*
G01X3274248Y8319209D01*
G01X3289013Y8305712D01*
G01X3305964Y8295090D01*
G01X3324549Y8287688D01*
G01X3344161Y8283748D01*
G01X3364162Y8283398D01*
G01X3355097Y8267759D01*
G01X3348695Y8250854D01*
G01X3345127Y8233134D01*
G01X3340553Y8241151D01*
G01X3333547Y8249896D01*
G01X3324182Y8256048D01*
G01X3313374Y8259005D01*
G01X3302182Y8258477D01*
G01X3291700Y8254516D01*
G01X3161405Y8180199D01*
G01X3152660Y8173193D01*
G01X3146508Y8163827D01*
G01X3143551Y8153019D01*
G01X3144079Y8141827D01*
G01X3148040Y8131345D01*
G01X3222358Y8001050D01*
G01X3229364Y7992305D01*
G01X3238729Y7986153D01*
G01X3249537Y7983197D01*
G01X3260730Y7983724D01*
G01X3271211Y7987685D01*
G01X3401506Y8062003D01*
G01X3410251Y8069009D01*
G01X3416403Y8078374D01*
G01X3419360Y8089182D01*
G01X3418832Y8100375D01*
G01X3414871Y8110857D01*
G01X3410298Y8118874D01*
G01X3429953Y8112288D01*
G01X3450491Y8109477D01*
G01X3471193Y8110540D01*
G01X3491335Y8115441D01*
G01X3510211Y8124007D01*
G01X3527162Y8135938D01*
G01X3541594Y8150818D01*
G01X3553003Y8168126D01*
G01X3560988Y8187256D01*
G01X3565271Y8207538D01*
G01X3565702Y8228262D01*
G01X3584138Y8217915D01*
G01X3604203Y8211257D01*
G01X3625168Y8208531D01*
G01X3646269Y8209837D01*
G01X3666739Y8215125D01*
G01X3685831Y8224205D01*
G01X3702851Y8236746D01*
G01X3717180Y8252291D01*
G01X3728296Y8270274D01*
G01X3735795Y8290041D01*
G01X3739403Y8310872D01*
G01X3738989Y8332009D01*
G01X3734569Y8352683D01*
G01X3726302Y8372142D01*
G01X3714491Y8389676D01*
G01X3699565Y8404648D01*
G01X3682067Y8416513D01*
G01X3662634Y8424839D01*
G01X3641974Y8429323D01*
G01X3620838Y8429802D01*
G01X3630218Y8446109D01*
G01X3636704Y8463767D01*
G01X3640110Y8482269D01*
G01X3640337Y8501079D01*
G01X3658780Y8490729D01*
G01X3678854Y8484071D01*
G01X3699826Y8481348D01*
G01X3720934Y8482658D01*
G01X3741409Y8487955D01*
G01X3760504Y8497045D01*
G01X3777525Y8509597D01*
G01X3791851Y8525154D01*
G01X3802961Y8543150D01*
G01X3810450Y8562928D01*
G01X3814045Y8583769D01*
G01X3814281Y8585530D01*
G01X3814886Y8588043D01*
G01X3816133Y8591869D01*
G01X3817944Y8596330D01*
G01X3820208Y8600945D01*
G01X3822780Y8605309D01*
G01X3825456Y8609056D01*
G01X3828773Y8612797D01*
G01X3879662Y8663686D01*
G01X4193286Y8663686D01*
G01X4193286Y8610600D01*
G01X4194681Y8605393D01*
G01X4198493Y8601581D01*
G01X4203700Y8600186D01*
G01X5727700Y8600186D01*
G01X5732907Y8601581D01*
G01X5736719Y8605393D01*
G01X5738114Y8610600D01*
G01X5738114Y8663686D01*
G01X6732759Y8663686D01*
G01X6771386Y8625059D01*
G01X6771386Y8064500D01*
G01X6773239Y8048053D01*
G01X6778706Y8032430D01*
G01X6787512Y8018415D01*
G01X6799215Y8006712D01*
G01X6813230Y7997906D01*
G01X6828853Y7992439D01*
G01X6845300Y7990586D01*
G01X6861747Y7992439D01*
G01X6877370Y7997906D01*
G01X6891385Y8006712D01*
G01X6903088Y8018415D01*
G01X6911894Y8032430D01*
G01X6917361Y8048053D01*
G01X6919214Y8064500D01*
G01X6919214Y8091873D01*
G01X7836673Y8091873D01*
G01X7839763Y8071042D01*
G01X7846422Y8051063D01*
G01X7856450Y8032545D01*
G01X7869541Y8016049D01*
G01X7885297Y8002077D01*
G01X7903241Y7991053D01*
G01X7922826Y7983312D01*
G01X7943457Y7979090D01*
G01X7964509Y7978515D01*
G01X7985340Y7981604D01*
G01X8005319Y7988264D01*
G01X8023837Y7998291D01*
G01X8040333Y8011382D01*
G01X8054306Y8027139D01*
G01X8065329Y8045082D01*
G01X8065329Y8045082D01*
G01X8073070Y8064667D01*
G01X8077292Y8085299D01*
G01X8077867Y8106350D01*
G01X8074778Y8127182D01*
G01X8068118Y8147160D01*
G01X8058091Y8165679D01*
G01X8045000Y8182175D01*
G01X8029243Y8196147D01*
G01X8011300Y8207171D01*
G01X7991715Y8214912D01*
G01X7971083Y8219134D01*
G01X7950032Y8219709D01*
G01X7929200Y8216620D01*
G01X7909222Y8209960D01*
G01X7890703Y8199933D01*
G01X7874207Y8186842D01*
G01X7860235Y8171085D01*
G01X7849211Y8153142D01*
G01X7841471Y8133557D01*
G01X7837249Y8112925D01*
G01X7836673Y8091873D01*
G01X6919214Y8091873D01*
G01X6919214Y8655675D01*
G01X6917794Y8670095D01*
G01X6913588Y8683961D01*
G01X6906757Y8696739D01*
G01X6897565Y8707940D01*
G01X6815640Y8789865D01*
G01X6804439Y8799057D01*
G01X6791661Y8805888D01*
G01X6777795Y8810094D01*
G01X6763375Y8811514D01*
G01X5738114Y8811514D01*
G01X5738114Y9519697D01*
G01X5863993Y9492210D01*
G01X5988976Y9460896D01*
G01X6112945Y9425786D01*
G01X6235786Y9386911D01*
G01X6357384Y9344307D01*
G01X6477626Y9298015D01*
G01X6596400Y9248077D01*
G01X6713597Y9194540D01*
G01X6829105Y9137454D01*
G01X6942819Y9076871D01*
G01X7054633Y9012848D01*
G01X7164442Y8945445D01*
G01X7272144Y8874725D01*
G01X7377639Y8800752D01*
G01X7480829Y8723597D01*
G01X7581618Y8643330D01*
G01X7679912Y8560027D01*
G01X7775619Y8473765D01*
G01X7783983Y8467966D01*
G01X8767446Y7976234D01*
G01X9713527Y1882599D01*
G01X9714295Y1878958D01*
G01X9732188Y1804431D01*
G01X9746156Y1729069D01*
G01X9756161Y1653080D01*
G01X9762177Y1576671D01*
G01X9764186Y1500053D01*
G01X9762183Y1423434D01*
G01X9756173Y1347025D01*
G01X9746173Y1271035D01*
G01X9732210Y1195672D01*
G01X9714323Y1121144D01*
G01X9692560Y1047653D01*
G01X9666982Y975402D01*
G01X9637657Y904589D01*
G01X9604668Y835407D01*
G01X9568103Y768046D01*
G01X9528063Y702691D01*
G01X9484659Y639520D01*
G01X9438008Y578707D01*
G01X9388239Y520419D01*
G01X9335488Y464815D01*
G01X9279900Y412048D01*
G01X9221626Y362262D01*
G01X9160827Y315593D01*
G01X9097670Y272170D01*
G01X9032326Y232111D01*
G01X8964976Y195527D01*
G01X8895804Y162517D01*
G01X8824999Y133172D01*
G01X8752755Y107572D01*
G01X8679271Y85787D01*
G01X8604748Y67878D01*
G01X8529390Y53893D01*
G01X8453403Y43871D01*
G01X8376995Y37839D01*
G01X8300377Y35813D01*
G01X8223758Y37799D01*
G01X8147347Y43792D01*
G01X8071355Y53775D01*
G01X7995990Y67721D01*
G01X7921457Y85592D01*
G01X7847962Y107339D01*
G01X7775705Y132901D01*
G01X7704885Y162210D01*
G01X7635696Y195184D01*
G01X7568327Y231734D01*
G01X7502963Y271759D01*
G01X7439783Y315150D01*
G01X7378960Y361787D01*
G01X7320661Y411543D01*
G01X7265045Y464282D01*
G01X7212265Y519859D01*
G01X7162466Y578121D01*
G01X7115784Y638910D01*
G01X7072347Y702058D01*
G01X7032274Y767392D01*
G01X5833625Y3013060D01*
G01X5816191Y3072538D01*
G01X5794973Y3130773D01*
G01X5770058Y3187524D01*
G01X5741548Y3242558D01*
G01X5709562Y3295646D01*
G01X5674232Y3346571D01*
G01X5635703Y3395120D01*
G01X5594135Y3441094D01*
G01X5549700Y3484302D01*
G01X5502580Y3524567D01*
G01X5452971Y3561722D01*
G01X5401078Y3595613D01*
G01X5347115Y3626101D01*
G01X5291305Y3653059D01*
G01X5233879Y3676376D01*
G01X5175073Y3695956D01*
G01X5115131Y3711717D01*
G01X5054300Y3723596D01*
G01X4992831Y3731542D01*
G01X4930979Y3735523D01*
G01X4869000Y3735523D01*
G01X4807148Y3731541D01*
G01X4745680Y3723593D01*
G01X4684849Y3711714D01*
G01X4624907Y3695951D01*
G01X4566101Y3676370D01*
G01X4508675Y3653052D01*
G01X4452866Y3626093D01*
G01X4398903Y3595605D01*
G01X4347011Y3561713D01*
G01X4297402Y3524557D01*
G01X4250284Y3484292D01*
G01X4205849Y3441082D01*
G01X4164282Y3395108D01*
G01X4125754Y3346558D01*
G01X4090424Y3295633D01*
G01X4058439Y3242544D01*
G01X4029930Y3187510D01*
G01X4005016Y3130758D01*
G01X3983799Y3072523D01*
G01X3966366Y3013045D01*
G01X2767726Y767394D01*
G01X2727653Y702059D01*
G01X2684215Y638911D01*
G01X2637533Y578122D01*
G01X2587734Y519860D01*
G01X2534955Y464283D01*
G01X2479339Y411544D01*
G01X2421040Y361788D01*
G01X2360217Y315151D01*
G01X2297037Y271760D01*
G01X2231673Y231735D01*
G01X2164304Y195185D01*
G01X2095115Y162211D01*
G01X2024295Y132902D01*
G01X1952038Y107340D01*
G01X1878543Y85593D01*
G01X1804010Y67723D01*
G01X1728644Y53777D01*
G01X1652652Y43793D01*
G01X1576242Y37800D01*
G01X1499623Y35814D01*
G01X1423004Y37840D01*
G01X1346597Y43872D01*
G01X1270610Y53895D01*
G01X1195252Y67879D01*
G01X1120728Y85789D01*
G01X1047244Y107573D01*
G01X975001Y133173D01*
G01X904196Y162518D01*
G01X835024Y195528D01*
G01X767674Y232113D01*
G01X702330Y272171D01*
G01X639172Y315594D01*
G01X578374Y362263D01*
G01X520100Y412049D01*
G01X464512Y464817D01*
G01X411761Y520421D01*
G01X361992Y578709D01*
G01X315341Y639521D01*
G01X271936Y702692D01*
G01X231897Y768047D01*
G01X195332Y835408D01*
G01X162342Y904590D01*
G01X133018Y975403D01*
G01X107440Y1047654D01*
G01X85677Y1121145D01*
G01X67790Y1195674D01*
G01X53827Y1271036D01*
G01X43827Y1347026D01*
G01X37817Y1423435D01*
G01X35814Y1500054D01*
G01X37823Y1576673D01*
G01X43838Y1653081D01*
G01X53844Y1729071D01*
G01X67812Y1804432D01*
G01X85705Y1878959D01*
G01X86473Y1882600D01*
G01X122246Y2113011D01*
G01X1915357Y2113011D01*
G01X1919241Y2097264D01*
G01X1926831Y2082932D01*
G01X1937673Y2070870D01*
G01X1951119Y2061801D01*
G01X1966364Y2056267D01*
G01X1982496Y2054599D01*
G01X1998551Y2056896D01*
G01X2013568Y2063022D01*
G01X2026649Y2072610D01*
G01X2037011Y2085086D01*
G01X2133600Y2085086D01*
G01X2146156Y2086739D01*
G01X2157857Y2091586D01*
G01X2167905Y2099295D01*
G01X2218705Y2150095D01*
G01X2226414Y2160143D01*
G01X2231261Y2171844D01*
G01X2232914Y2184400D01*
G01X2232914Y4725000D01*
G01X2564186Y4725000D01*
G01X2566166Y4699843D01*
G01X2572057Y4675306D01*
G01X2581714Y4651992D01*
G01X2594899Y4630476D01*
G01X2611287Y4611287D01*
G01X2630476Y4594899D01*
G01X2651992Y4581714D01*
G01X2675306Y4572057D01*
G01X2699843Y4566166D01*
G01X2725000Y4564186D01*
G01X2750157Y4566166D01*
G01X2774694Y4572057D01*
G01X2798008Y4581714D01*
G01X2819524Y4594899D01*
G01X2838713Y4611287D01*
G01X2855101Y4630476D01*
G01X2868286Y4651992D01*
G01X2877943Y4675306D01*
G01X2883834Y4699843D01*
G01X2885814Y4725000D01*
G01X2883834Y4750157D01*
G01X2877943Y4774694D01*
G01X2868286Y4798008D01*
G01X2855101Y4819524D01*
G01X2838713Y4838713D01*
G01X2819524Y4855101D01*
G01X2798008Y4868286D01*
G01X2774694Y4877943D01*
G01X2750157Y4883834D01*
G01X2725000Y4885814D01*
G01X2699843Y4883834D01*
G01X2675306Y4877943D01*
G01X2651992Y4868286D01*
G01X2630476Y4855101D01*
G01X2611287Y4838713D01*
G01X2594899Y4819524D01*
G01X2581714Y4798008D01*
G01X2572057Y4774694D01*
G01X2566166Y4750157D01*
G01X2564186Y4725000D01*
G01X2564186Y4725000D01*
G01X2232914Y4725000D01*
G01X2232914Y5964431D01*
G01X3156578Y5964431D01*
G01X3156578Y5948169D01*
G01X3160536Y5932396D01*
G01X3160536Y3784600D01*
G01X3162289Y3773533D01*
G01X3167376Y3763549D01*
G01X3175299Y3755626D01*
G01X3185283Y3750539D01*
G01X3196350Y3748786D01*
G01X3403600Y3748786D01*
G01X3414667Y3750539D01*
G01X3424651Y3755626D01*
G01X3432574Y3763549D01*
G01X3437661Y3773533D01*
G01X3439414Y3784600D01*
G01X3439414Y6114227D01*
G01X3454805Y6113715D01*
G01X3469900Y6116767D01*
G01X3483883Y6123218D01*
G01X3496002Y6132720D01*
G01X3505602Y6144762D01*
G01X3512165Y6158693D01*
G01X3515339Y6173762D01*
G01X3515742Y6176409D01*
G01X3516242Y6178132D01*
G01X3855990Y6517881D01*
G01X3972771Y6517881D01*
G01X3775695Y6320805D01*
G01X3767986Y6310757D01*
G01X3763139Y6299056D01*
G01X3761486Y6286500D01*
G01X3761486Y3576959D01*
G01X3761486Y3576959D01*
G01X3490832Y3306305D01*
G01X3489109Y3305806D01*
G01X3486462Y3305402D01*
G01X3471786Y3302359D01*
G01X3458168Y3296099D01*
G01X3446304Y3286940D01*
G01X3436800Y3275350D01*
G01X3430141Y3261922D01*
G01X3426668Y3247342D01*
G01X3426557Y3232355D01*
G01X3429816Y3217725D01*
G01X3436276Y3204201D01*
G01X3445609Y3192472D01*
G01X3457337Y3183140D01*
G01X3470861Y3176679D01*
G01X3485491Y3173421D01*
G01X3500479Y3173531D01*
G01X3515059Y3177005D01*
G01X3528487Y3183663D01*
G01X3540076Y3193168D01*
G01X3549235Y3205032D01*
G01X3555496Y3218650D01*
G01X3558539Y3233326D01*
G01X3558942Y3235973D01*
G01X3559441Y3237696D01*
G01X3844305Y3522559D01*
G01X3852014Y3532607D01*
G01X3856861Y3544307D01*
G01X3858514Y3556864D01*
G01X3858514Y6266405D01*
G01X4058695Y6466586D01*
G01X4448336Y6466586D01*
G01X4004295Y6022546D01*
G01X3996586Y6012498D01*
G01X3991739Y6000798D01*
G01X3990086Y5988241D01*
G01X3990086Y3962400D01*
G01X3991739Y3949844D01*
G01X3996586Y3938143D01*
G01X4004295Y3928095D01*
G01X4067795Y3864595D01*
G01X4077843Y3856886D01*
G01X4089544Y3852039D01*
G01X4102100Y3850386D01*
G01X6025105Y3850386D01*
G01X6479286Y3396205D01*
G01X6479286Y1963855D01*
G01X6478421Y1962284D01*
G01X6476834Y1960127D01*
G01X6468608Y1947598D01*
G01X6463406Y1933541D01*
G01X6461493Y1918676D01*
G01X6462968Y1903760D01*
G01X6467754Y1889557D01*
G01X6475608Y1876791D01*
G01X6486128Y1866115D01*
G01X6498776Y1858075D01*
G01X6512908Y1853080D01*
G01X6527800Y1851386D01*
G01X6542692Y1853080D01*
G01X6556824Y1858075D01*
G01X6569472Y1866115D01*
G01X6579992Y1876791D01*
G01X6587846Y1889557D01*
G01X6592632Y1903760D01*
G01X6594107Y1918676D01*
G01X6592194Y1933541D01*
G01X6586992Y1947598D01*
G01X6578766Y1960127D01*
G01X6577179Y1962284D01*
G01X6576314Y1963855D01*
G01X6576314Y3416300D01*
G01X6574661Y3428856D01*
G01X6569814Y3440557D01*
G01X6562105Y3450605D01*
G01X6079505Y3933205D01*
G01X6069457Y3940914D01*
G01X6057756Y3945761D01*
G01X6045200Y3947414D01*
G01X4122195Y3947414D01*
G01X4087114Y3982495D01*
G01X4087114Y5968146D01*
G01X4554048Y6435080D01*
G01X4625680Y6435080D01*
G01X4625680Y6397503D01*
G01X4624998Y6396264D01*
G01X4620829Y6390205D01*
G01X4615315Y6383938D01*
G01X4499595Y6268218D01*
G01X4491886Y6258170D01*
G01X4487039Y6246469D01*
G01X4485386Y6233913D01*
G01X4485386Y6055614D01*
G01X4393715Y6055614D01*
G01X4382648Y6053861D01*
G01X4372664Y6048774D01*
G01X4364741Y6040851D01*
G01X4359654Y6030867D01*
G01X4357901Y6019800D01*
G01X4357901Y5803130D01*
G01X4359654Y5792063D01*
G01X4364741Y5782079D01*
G01X4372664Y5774156D01*
G01X4382648Y5769069D01*
G01X4393715Y5767316D01*
G01X4706521Y5767316D01*
G01X4717893Y5769170D01*
G01X4717893Y5243702D01*
G01X4710032Y5235841D01*
G01X4708309Y5235342D01*
G01X4705662Y5234939D01*
G01X4690986Y5231896D01*
G01X4677368Y5225635D01*
G01X4665504Y5216476D01*
G01X4656000Y5204887D01*
G01X4649341Y5191459D01*
G01X4645868Y5176879D01*
G01X4645757Y5161891D01*
G01X4649016Y5147261D01*
G01X4655476Y5133737D01*
G01X4664809Y5122009D01*
G01X4676537Y5112676D01*
G01X4690061Y5106216D01*
G01X4704691Y5102957D01*
G01X4719679Y5103068D01*
G01X4734259Y5106541D01*
G01X4747687Y5113200D01*
G01X4759276Y5122704D01*
G01X4768435Y5134568D01*
G01X4774696Y5148186D01*
G01X4777739Y5162862D01*
G01X4778142Y5165509D01*
G01X4778641Y5167232D01*
G01X4800712Y5189302D01*
G01X4808421Y5199350D01*
G01X4813268Y5211051D01*
G01X4814921Y5223607D01*
G01X4814921Y6081418D01*
G01X4828573Y6080536D01*
G01X4842116Y6082474D01*
G01X4854973Y6087150D01*
G01X4866596Y6094365D01*
G01X4876492Y6103811D01*
G01X4876492Y5236821D01*
G01X4866204Y5225973D01*
G01X4858604Y5213097D01*
G01X4854077Y5198847D01*
G01X4852854Y5183946D01*
G01X4854995Y5169148D01*
G01X4860393Y5155205D01*
G01X4868774Y5142823D01*
G01X4879712Y5132630D01*
G01X4892654Y5125143D01*
G01X4906943Y5120741D01*
G01X4917953Y5119626D01*
G01X4928995Y5120357D01*
G01X4928995Y5109195D01*
G01X4855468Y5035667D01*
G01X4853744Y5035167D01*
G01X4851097Y5034764D01*
G01X4836421Y5031721D01*
G01X4822803Y5025460D01*
G01X4810939Y5016301D01*
G01X4801435Y5004712D01*
G01X4794776Y4991284D01*
G01X4791303Y4976704D01*
G01X4791193Y4961716D01*
G01X4794451Y4947087D01*
G01X4800912Y4933562D01*
G01X4810244Y4921834D01*
G01X4821972Y4912502D01*
G01X4835497Y4906041D01*
G01X4850126Y4902783D01*
G01X4865114Y4902893D01*
G01X4879694Y4906366D01*
G01X4893122Y4913025D01*
G01X4904711Y4922529D01*
G01X4913870Y4934393D01*
G01X4920131Y4948011D01*
G01X4923174Y4962687D01*
G01X4923577Y4965334D01*
G01X4924077Y4967058D01*
G01X5011814Y5054795D01*
G01X5019524Y5064843D01*
G01X5024370Y5076543D01*
G01X5026023Y5089100D01*
G01X5026023Y5151230D01*
G01X5038109Y5141870D01*
G01X5052017Y5135526D01*
G01X5067008Y5132535D01*
G01X5082286Y5133057D01*
G01X5082286Y5041585D01*
G01X5081421Y5040014D01*
G01X5079834Y5037857D01*
G01X5071608Y5025328D01*
G01X5066406Y5011271D01*
G01X5064493Y4996406D01*
G01X5065968Y4981490D01*
G01X5070754Y4967287D01*
G01X5078608Y4954521D01*
G01X5089128Y4943845D01*
G01X5101776Y4935805D01*
G01X5115908Y4930810D01*
G01X5130800Y4929116D01*
G01X5145692Y4930810D01*
G01X5159824Y4935805D01*
G01X5172472Y4943845D01*
G01X5182992Y4954521D01*
G01X5190846Y4967287D01*
G01X5195632Y4981490D01*
G01X5197107Y4996406D01*
G01X5195194Y5011271D01*
G01X5189992Y5025328D01*
G01X5181766Y5037857D01*
G01X5180179Y5040014D01*
G01X5179314Y5041585D01*
G01X5179314Y5231301D01*
G01X5194450Y5229586D01*
G01X5209579Y5231370D01*
G01X5223901Y5236559D01*
G01X5236661Y5244880D01*
G01X5247186Y5255892D01*
G01X5254920Y5269016D01*
G01X5259456Y5283559D01*
G01X5260553Y5298752D01*
G01X5258154Y5313795D01*
G01X5252385Y5327894D01*
G01X5243552Y5340305D01*
G01X5232120Y5350372D01*
G01X5232120Y6065145D01*
G01X5237535Y6051818D01*
G01X5245697Y6039973D01*
G01X5256221Y6030167D01*
G01X5268612Y6022860D01*
G01X5282288Y6018398D01*
G01X5296603Y6016990D01*
G01X5310886Y6018701D01*
G01X5310886Y5608755D01*
G01X5310021Y5607184D01*
G01X5308434Y5605027D01*
G01X5300630Y5593318D01*
G01X5295471Y5580226D01*
G01X5293192Y5566341D01*
G01X5293893Y5552287D01*
G01X5297543Y5538698D01*
G01X5303979Y5526184D01*
G01X5312910Y5515311D01*
G01X5323935Y5506566D01*
G01X5336556Y5500345D01*
G01X5350206Y5496926D01*
G01X5351021Y5481790D01*
G01X5355253Y5467235D01*
G01X5362679Y5454020D01*
G01X5372912Y5442837D01*
G01X5385417Y5434270D01*
G01X5399540Y5428767D01*
G01X5414545Y5426614D01*
G01X5429646Y5427925D01*
G01X5444056Y5432631D01*
G01X5457020Y5440487D01*
G01X5467861Y5451081D01*
G01X5476014Y5463860D01*
G01X5481051Y5478156D01*
G01X5482711Y5493223D01*
G01X5480906Y5508274D01*
G01X5475730Y5522521D01*
G01X5474027Y5526245D01*
G01X5472718Y5529803D01*
G01X5472266Y5531387D01*
G01X5472266Y5766174D01*
G01X5472253Y5767316D01*
G01X5879883Y5767316D01*
G01X5890950Y5769069D01*
G01X5900934Y5774156D01*
G01X5908857Y5782079D01*
G01X5913944Y5792063D01*
G01X5915697Y5803130D01*
G01X5915697Y5953694D01*
G01X6276086Y5593305D01*
G01X6276086Y4122855D01*
G01X6275221Y4121284D01*
G01X6273634Y4119127D01*
G01X6265408Y4106598D01*
G01X6260206Y4092541D01*
G01X6258293Y4077676D01*
G01X6259768Y4062760D01*
G01X6264554Y4048557D01*
G01X6272408Y4035791D01*
G01X6282928Y4025115D01*
G01X6295576Y4017075D01*
G01X6309708Y4012080D01*
G01X6324600Y4010386D01*
G01X6339492Y4012080D01*
G01X6353624Y4017075D01*
G01X6366272Y4025115D01*
G01X6376792Y4035791D01*
G01X6384646Y4048557D01*
G01X6389432Y4062760D01*
G01X6390907Y4077676D01*
G01X6388994Y4092541D01*
G01X6383792Y4106598D01*
G01X6375566Y4119127D01*
G01X6373979Y4121284D01*
G01X6373114Y4122855D01*
G01X6373114Y5613400D01*
G01X6371461Y5625956D01*
G01X6366614Y5637657D01*
G01X6358905Y5647705D01*
G01X5976585Y6030024D01*
G01X5986161Y6035257D01*
G01X5993716Y6043131D01*
G01X5998549Y6052915D01*
G01X6000212Y6063700D01*
G01X6000212Y6153700D01*
G01X5998459Y6164767D01*
G01X5993372Y6174751D01*
G01X5985448Y6182674D01*
G01X5975465Y6187761D01*
G01X5964398Y6189514D01*
G01X5884398Y6189514D01*
G01X5874053Y6187987D01*
G01X5864590Y6183538D01*
G01X5856816Y6176545D01*
G01X5851393Y6167604D01*
G01X5848784Y6157479D01*
G01X5846298Y6157214D01*
G01X5809000Y6157214D01*
G01X5801094Y6158626D01*
G01X5794165Y6162689D01*
G01X5785912Y6167976D01*
G01X5776534Y6170828D01*
G01X5776214Y6173560D01*
G01X5776214Y6491986D01*
G01X5825084Y6491986D01*
G01X5825084Y6483900D01*
G01X5824571Y6480458D01*
G01X5813857Y6475682D01*
G01X5805261Y6467701D01*
G01X5799705Y6457371D01*
G01X5797784Y6445800D01*
G01X5797784Y6355800D01*
G01X5799537Y6344733D01*
G01X5804624Y6334749D01*
G01X5812547Y6326826D01*
G01X5822531Y6321739D01*
G01X5833598Y6319986D01*
G01X5913598Y6319986D01*
G01X5924665Y6321739D01*
G01X5934648Y6326826D01*
G01X5942572Y6334749D01*
G01X5947659Y6344733D01*
G01X5949412Y6355800D01*
G01X5949412Y6445800D01*
G01X5947491Y6457371D01*
G01X5941934Y6467701D01*
G01X5933338Y6475682D01*
G01X5922624Y6480458D01*
G01X5922112Y6483900D01*
G01X5922112Y6491986D01*
G01X6172200Y6491986D01*
G01X6177407Y6493381D01*
G01X6181219Y6497193D01*
G01X6182614Y6502400D01*
G01X6182614Y6985000D01*
G01X6326886Y6985000D01*
G01X6326886Y6426200D01*
G01X6328639Y6415133D01*
G01X6333726Y6405149D01*
G01X6341649Y6397226D01*
G01X6351633Y6392139D01*
G01X6362700Y6390386D01*
G01X6525103Y6390386D01*
G01X6534248Y6391573D01*
G01X6542786Y6395056D01*
G01X6542786Y3683000D01*
G01X6544206Y3668580D01*
G01X6548412Y3654714D01*
G01X6555243Y3641936D01*
G01X6564435Y3630735D01*
G01X6923786Y3271384D01*
G01X6923786Y3200400D01*
G01X6925639Y3183953D01*
G01X6931106Y3168330D01*
G01X6939912Y3154315D01*
G01X6951615Y3142612D01*
G01X6965630Y3133806D01*
G01X6981253Y3128339D01*
G01X6997700Y3126486D01*
G01X7014147Y3128339D01*
G01X7029770Y3133806D01*
G01X7043785Y3142612D01*
G01X7055488Y3154315D01*
G01X7064294Y3168330D01*
G01X7069761Y3183953D01*
G01X7071614Y3200400D01*
G01X7071614Y3302000D01*
G01X7070194Y3316420D01*
G01X7065988Y3330286D01*
G01X7059157Y3343064D01*
G01X7049965Y3354265D01*
G01X6690614Y3713616D01*
G01X6690614Y4725000D01*
G01X7014186Y4725000D01*
G01X7016166Y4699843D01*
G01X7022057Y4675306D01*
G01X7031714Y4651992D01*
G01X7044899Y4630476D01*
G01X7061287Y4611287D01*
G01X7080476Y4594899D01*
G01X7101992Y4581714D01*
G01X7125306Y4572057D01*
G01X7149843Y4566166D01*
G01X7175000Y4564186D01*
G01X7200157Y4566166D01*
G01X7224694Y4572057D01*
G01X7248008Y4581714D01*
G01X7269524Y4594899D01*
G01X7288713Y4611287D01*
G01X7305101Y4630476D01*
G01X7318286Y4651992D01*
G01X7327943Y4675306D01*
G01X7333834Y4699843D01*
G01X7335814Y4725000D01*
G01X8364186Y4725000D01*
G01X8366166Y4699843D01*
G01X8372057Y4675306D01*
G01X8381714Y4651992D01*
G01X8394899Y4630476D01*
G01X8411287Y4611287D01*
G01X8430476Y4594899D01*
G01X8451992Y4581714D01*
G01X8475306Y4572057D01*
G01X8499843Y4566166D01*
G01X8525000Y4564186D01*
G01X8550157Y4566166D01*
G01X8574694Y4572057D01*
G01X8598008Y4581714D01*
G01X8619524Y4594899D01*
G01X8638713Y4611287D01*
G01X8655101Y4630476D01*
G01X8668286Y4651992D01*
G01X8677943Y4675306D01*
G01X8683834Y4699843D01*
G01X8685814Y4725000D01*
G01X8683834Y4750157D01*
G01X8677943Y4774694D01*
G01X8668286Y4798008D01*
G01X8655101Y4819524D01*
G01X8638713Y4838713D01*
G01X8619524Y4855101D01*
G01X8598008Y4868286D01*
G01X8574694Y4877943D01*
G01X8550157Y4883834D01*
G01X8525000Y4885814D01*
G01X8499843Y4883834D01*
G01X8475306Y4877943D01*
G01X8451992Y4868286D01*
G01X8430476Y4855101D01*
G01X8411287Y4838713D01*
G01X8394899Y4819524D01*
G01X8381714Y4798008D01*
G01X8372057Y4774694D01*
G01X8366166Y4750157D01*
G01X8364186Y4725000D01*
G01X8364186Y4725000D01*
G01X7335814Y4725000D01*
G01X7333834Y4750157D01*
G01X7327943Y4774694D01*
G01X7318286Y4798008D01*
G01X7305101Y4819524D01*
G01X7288713Y4838713D01*
G01X7269524Y4855101D01*
G01X7248008Y4868286D01*
G01X7224694Y4877943D01*
G01X7200157Y4883834D01*
G01X7175000Y4885814D01*
G01X7149843Y4883834D01*
G01X7125306Y4877943D01*
G01X7101992Y4868286D01*
G01X7080476Y4855101D01*
G01X7061287Y4838713D01*
G01X7044899Y4819524D01*
G01X7031714Y4798008D01*
G01X7022057Y4774694D01*
G01X7016166Y4750157D01*
G01X7014186Y4725000D01*
G01X7014186Y4725000D01*
G01X6690614Y4725000D01*
G01X6690614Y5298882D01*
G01X6739192Y5298882D01*
G01X6741380Y5278057D01*
G01X6747447Y5258016D01*
G01X6757175Y5239475D01*
G01X6770218Y5223094D01*
G01X6786109Y5209459D01*
G01X6804281Y5199056D01*
G01X6824086Y5192258D01*
G01X6844816Y5189307D01*
G01X6865731Y5190308D01*
G01X6886085Y5195226D01*
G01X6905150Y5203884D01*
G01X6922246Y5215974D01*
G01X6923658Y5217052D01*
G01X6925863Y5218401D01*
G01X6929450Y5220225D01*
G01X6933885Y5222099D01*
G01X6938749Y5223762D01*
G01X6943653Y5225029D01*
G01X6948195Y5225785D01*
G01X6953185Y5226086D01*
G01X7547900Y5226086D01*
G01X7562320Y5227506D01*
G01X7576185Y5231712D01*
G01X7588964Y5238543D01*
G01X7600165Y5247735D01*
G01X7702265Y5349835D01*
G01X7711457Y5361036D01*
G01X7718288Y5373814D01*
G01X7722494Y5387680D01*
G01X7723914Y5402100D01*
G01X7723914Y6275000D01*
G01X8364186Y6275000D01*
G01X8366166Y6249843D01*
G01X8372057Y6225306D01*
G01X8381714Y6201992D01*
G01X8394899Y6180476D01*
G01X8411287Y6161287D01*
G01X8430476Y6144899D01*
G01X8451992Y6131714D01*
G01X8475306Y6122057D01*
G01X8499843Y6116166D01*
G01X8525000Y6114186D01*
G01X8550157Y6116166D01*
G01X8574694Y6122057D01*
G01X8598008Y6131714D01*
G01X8619524Y6144899D01*
G01X8638713Y6161287D01*
G01X8655101Y6180476D01*
G01X8668286Y6201992D01*
G01X8677943Y6225306D01*
G01X8683834Y6249843D01*
G01X8685814Y6275000D01*
G01X8683834Y6300157D01*
G01X8677943Y6324694D01*
G01X8668286Y6348008D01*
G01X8655101Y6369524D01*
G01X8638713Y6388713D01*
G01X8619524Y6405101D01*
G01X8598008Y6418286D01*
G01X8574694Y6427943D01*
G01X8550157Y6433834D01*
G01X8525000Y6435814D01*
G01X8499843Y6433834D01*
G01X8475306Y6427943D01*
G01X8451992Y6418286D01*
G01X8430476Y6405101D01*
G01X8411287Y6388713D01*
G01X8394899Y6369524D01*
G01X8381714Y6348008D01*
G01X8372057Y6324694D01*
G01X8366166Y6300157D01*
G01X8364186Y6275000D01*
G01X8364186Y6275000D01*
G01X7723914Y6275000D01*
G01X7723914Y6396814D01*
G01X7724215Y6401805D01*
G01X7724971Y6406347D01*
G01X7726238Y6411251D01*
G01X7727900Y6416115D01*
G01X7729775Y6420550D01*
G01X7731599Y6424137D01*
G01X7732948Y6426342D01*
G01X7734026Y6427754D01*
G01X7742825Y6439475D01*
G01X7750000Y6452253D01*
G01X7760133Y6435165D01*
G01X7773154Y6420160D01*
G01X7788646Y6407721D01*
G01X7806109Y6398249D01*
G01X7824983Y6392047D01*
G01X7844662Y6389315D01*
G01X7864512Y6390140D01*
G01X7883895Y6394497D01*
G01X7902189Y6402245D01*
G01X7918806Y6413135D01*
G01X7933211Y6426817D01*
G01X7944941Y6442852D01*
G01X7953620Y6460723D01*
G01X7958968Y6479857D01*
G01X7960813Y6499638D01*
G01X7959097Y6519431D01*
G01X7953874Y6538599D01*
G01X7945312Y6556527D01*
G01X7933687Y6572638D01*
G01X7919372Y6586413D01*
G01X7902827Y6597412D01*
G01X7884584Y6605279D01*
G01X7865229Y6609762D01*
G01X7845385Y6610718D01*
G01X7846314Y6622400D01*
G01X7846314Y7010400D01*
G01X7844894Y7024820D01*
G01X7840688Y7038686D01*
G01X7833857Y7051464D01*
G01X7824665Y7062665D01*
G01X7741975Y7145355D01*
G01X7734472Y7151908D01*
G01X7734472Y7198781D01*
G01X7732720Y7209848D01*
G01X7727633Y7219832D01*
G01X7719709Y7227755D01*
G01X7709726Y7232842D01*
G01X7698658Y7234595D01*
G01X7554052Y7234595D01*
G01X7554052Y7595771D01*
G01X7552300Y7606838D01*
G01X7548826Y7613655D01*
G01X8214013Y7613655D01*
G01X8216778Y7589732D01*
G01X8223442Y7566590D01*
G01X8233825Y7544861D01*
G01X8247643Y7525137D01*
G01X8264519Y7507957D01*
G01X8283993Y7493789D01*
G01X8305533Y7483019D01*
G01X8328551Y7475941D01*
G01X8352421Y7472748D01*
G01X8376491Y7473528D01*
G01X8400104Y7478259D01*
G01X8422617Y7486813D01*
G01X8443414Y7498954D01*
G01X8461930Y7514354D01*
G01X8477658Y7532591D01*
G01X8490170Y7553168D01*
G01X8490170Y7553168D01*
G01X8499124Y7575524D01*
G01X8504277Y7599048D01*
G01X8505487Y7623100D01*
G01X8502722Y7647023D01*
G01X8496057Y7670165D01*
G01X8485674Y7691894D01*
G01X8471857Y7711618D01*
G01X8454981Y7728799D01*
G01X8435507Y7742967D01*
G01X8413967Y7753737D01*
G01X8390948Y7760815D01*
G01X8367078Y7764007D01*
G01X8343009Y7763227D01*
G01X8319396Y7758496D01*
G01X8296883Y7749943D01*
G01X8276086Y7737801D01*
G01X8257570Y7722402D01*
G01X8241842Y7704165D01*
G01X8229330Y7683588D01*
G01X8220376Y7661232D01*
G01X8215223Y7637707D01*
G01X8214013Y7613655D01*
G01X7548826Y7613655D01*
G01X7547213Y7616822D01*
G01X7539289Y7624745D01*
G01X7529306Y7629832D01*
G01X7518238Y7631585D01*
G01X7356669Y7631585D01*
G01X7345601Y7629832D01*
G01X7335618Y7624745D01*
G01X7327694Y7616822D01*
G01X7322607Y7606838D01*
G01X7320855Y7595771D01*
G01X7320855Y7225351D01*
G01X7314473Y7217722D01*
G01X7310436Y7208631D01*
G01X7309054Y7198781D01*
G01X7309054Y7033681D01*
G01X7310363Y7024089D01*
G01X7314192Y7015198D01*
G01X7320263Y7007657D01*
G01X7320263Y6343990D01*
G01X7307534Y6366082D01*
G01X7291472Y6385885D01*
G01X7272482Y6402900D01*
G01X7251042Y6416699D01*
G01X7227691Y6426937D01*
G01X7203014Y6433355D01*
G01X7177634Y6435792D01*
G01X7152187Y6434188D01*
G01X7127314Y6428581D01*
G01X7103640Y6419114D01*
G01X7081759Y6406024D01*
G01X7062222Y6389640D01*
G01X7045521Y6370374D01*
G01X7032074Y6348711D01*
G01X7022221Y6325195D01*
G01X7016207Y6300417D01*
G01X7014186Y6275000D01*
G01X7016207Y6249583D01*
G01X7022221Y6224805D01*
G01X7032074Y6201289D01*
G01X7045521Y6179625D01*
G01X7062222Y6160360D01*
G01X7081759Y6143976D01*
G01X7103640Y6130886D01*
G01X7127314Y6121419D01*
G01X7152187Y6115812D01*
G01X7177634Y6114207D01*
G01X7203014Y6116645D01*
G01X7227691Y6123063D01*
G01X7251042Y6133300D01*
G01X7272482Y6147100D01*
G01X7291472Y6164115D01*
G01X7307534Y6183917D01*
G01X7320263Y6206009D01*
G01X7320263Y5790726D01*
G01X7322016Y5779659D01*
G01X7327103Y5769675D01*
G01X7335027Y5761752D01*
G01X7345010Y5756665D01*
G01X7356077Y5754912D01*
G01X7518400Y5754912D01*
G01X7529467Y5756665D01*
G01X7539451Y5761752D01*
G01X7547374Y5769675D01*
G01X7552461Y5779659D01*
G01X7554214Y5790726D01*
G01X7554214Y5887789D01*
G01X7566556Y5898009D01*
G01X7576086Y5910891D01*
G01X7576086Y5432716D01*
G01X7517284Y5373914D01*
G01X7517284Y5373914D01*
G01X6953185Y5373914D01*
G01X6948195Y5374214D01*
G01X6943653Y5374971D01*
G01X6938749Y5376238D01*
G01X6933885Y5377900D01*
G01X6929450Y5379774D01*
G01X6925863Y5381598D01*
G01X6923658Y5382948D01*
G01X6922246Y5384026D01*
G01X6910525Y5392825D01*
G01X6897746Y5400000D01*
G01X6914855Y5410147D01*
G01X6929874Y5423189D01*
G01X6942319Y5438706D01*
G01X6951790Y5456198D01*
G01X6957980Y5475101D01*
G01X6960692Y5494806D01*
G01X6959837Y5514679D01*
G01X6955444Y5534079D01*
G01X6947652Y5552381D01*
G01X6936715Y5568995D01*
G01X6922983Y5583386D01*
G01X6906900Y5595090D01*
G01X6888983Y5603730D01*
G01X6869811Y5609029D01*
G01X6850000Y5610814D01*
G01X6830189Y5609029D01*
G01X6811017Y5603730D01*
G01X6793100Y5595090D01*
G01X6777017Y5583386D01*
G01X6763285Y5568995D01*
G01X6752348Y5552381D01*
G01X6744556Y5534079D01*
G01X6740163Y5514679D01*
G01X6739308Y5494806D01*
G01X6742020Y5475101D01*
G01X6748211Y5456198D01*
G01X6757681Y5438706D01*
G01X6770126Y5423189D01*
G01X6785145Y5410147D01*
G01X6802254Y5400000D01*
G01X6784295Y5389233D01*
G01X6768682Y5375280D01*
G01X6755973Y5358639D01*
G01X6746621Y5339905D01*
G01X6740959Y5319746D01*
G01X6739192Y5298882D01*
G01X6690614Y5298882D01*
G01X6690614Y7144884D01*
G01X6897565Y7351835D01*
G01X6907885Y7364775D01*
G01X6915066Y7379688D01*
G01X6918749Y7395824D01*
G01X6918749Y7412376D01*
G01X6915066Y7428512D01*
G01X6907885Y7443425D01*
G01X6897565Y7456365D01*
G01X6884625Y7466685D01*
G01X6869712Y7473866D01*
G01X6853576Y7477549D01*
G01X6837024Y7477549D01*
G01X6820888Y7473866D01*
G01X6805975Y7466685D01*
G01X6793035Y7456365D01*
G01X6564435Y7227765D01*
G01X6555243Y7216564D01*
G01X6548412Y7203786D01*
G01X6544206Y7189920D01*
G01X6542786Y7175500D01*
G01X6542786Y7016144D01*
G01X6534248Y7019627D01*
G01X6525103Y7020814D01*
G01X6525103Y7020814D01*
G01X6362700Y7020814D01*
G01X6351633Y7019061D01*
G01X6341649Y7013974D01*
G01X6333726Y7006051D01*
G01X6328639Y6996067D01*
G01X6326886Y6985000D01*
G01X6182614Y6985000D01*
G01X6181219Y6990207D01*
G01X6177407Y6994019D01*
G01X6172200Y6995414D01*
G01X6082186Y6995414D01*
G01X6082186Y6998437D01*
G01X6083605Y7007451D01*
G01X6087726Y7015593D01*
G01X6092755Y7025533D01*
G01X6094487Y7036537D01*
G01X6094487Y7126536D01*
G01X6092735Y7137604D01*
G01X6087648Y7147587D01*
G01X6079724Y7155511D01*
G01X6069741Y7160598D01*
G01X6058673Y7162350D01*
G01X5978674Y7162350D01*
G01X5967606Y7160598D01*
G01X5957623Y7155511D01*
G01X5949699Y7147587D01*
G01X5944612Y7137604D01*
G01X5942860Y7126536D01*
G01X5942860Y7036537D01*
G01X5944612Y7025469D01*
G01X5949699Y7015486D01*
G01X5957623Y7007562D01*
G01X5967606Y7002475D01*
G01X5978674Y7000723D01*
G01X5984935Y7000723D01*
G01X5985158Y6998437D01*
G01X5985158Y6995414D01*
G01X5742335Y6995414D01*
G01X5737128Y6994019D01*
G01X5733316Y6990207D01*
G01X5731921Y6985000D01*
G01X5731921Y6954960D01*
G01X5700481Y6923520D01*
G01X5485785Y6923520D01*
G01X5484262Y6937240D01*
G01X5478996Y6950000D01*
G01X5484073Y6962044D01*
G01X5485807Y6974999D01*
G01X5484077Y6987954D01*
G01X5479004Y7000000D01*
G01X5484077Y7012045D01*
G01X5485807Y7025001D01*
G01X5484073Y7037955D01*
G01X5478996Y7050000D01*
G01X5484034Y7061901D01*
G01X5485806Y7074703D01*
G01X5484191Y7087525D01*
G01X5479301Y7099488D01*
G01X5471470Y7109769D01*
G01X5461237Y7117663D01*
G01X5449305Y7122627D01*
G01X5436493Y7124320D01*
G01X5313493Y7124320D01*
G01X5300681Y7122627D01*
G01X5288749Y7117663D01*
G01X5278516Y7109769D01*
G01X5270685Y7099488D01*
G01X5265795Y7087525D01*
G01X5264180Y7074703D01*
G01X5265952Y7061901D01*
G01X5270989Y7050000D01*
G01X5265913Y7037955D01*
G01X5264179Y7025001D01*
G01X5265909Y7012045D01*
G01X5270982Y7000000D01*
G01X5265909Y6987954D01*
G01X5264179Y6974999D01*
G01X5265913Y6962044D01*
G01X5270989Y6950000D01*
G01X5265913Y6937956D01*
G01X5264179Y6925001D01*
G01X5265909Y6912046D01*
G01X5270982Y6900000D01*
G01X5265909Y6887954D01*
G01X5264179Y6874999D01*
G01X5265913Y6862044D01*
G01X5270989Y6850000D01*
G01X5265913Y6837956D01*
G01X5264179Y6825001D01*
G01X5265909Y6812046D01*
G01X5270982Y6800000D01*
G01X5265949Y6788099D01*
G01X5264180Y6775299D01*
G01X5265797Y6762478D01*
G01X5270689Y6750518D01*
G01X5278520Y6740240D01*
G01X5288752Y6732348D01*
G01X5300683Y6727385D01*
G01X5313493Y6725692D01*
G01X5436493Y6725692D01*
G01X5437377Y6725703D01*
G01X5453455Y6726101D01*
G01X5474920Y6726493D01*
G01X5638198Y6726493D01*
G01X5679186Y6685505D01*
G01X5679186Y6173560D01*
G01X5678866Y6170828D01*
G01X5668338Y6167420D01*
G01X5659353Y6160961D01*
G01X5652769Y6152068D01*
G01X5649214Y6141589D01*
G01X5649214Y6584934D01*
G01X5647561Y6597490D01*
G01X5642714Y6609191D01*
G01X5635005Y6619238D01*
G01X5544932Y6709311D01*
G01X5534884Y6717021D01*
G01X5523183Y6721868D01*
G01X5510627Y6723521D01*
G01X5474920Y6723521D01*
G01X5453455Y6723913D01*
G01X5437377Y6724310D01*
G01X5436493Y6724321D01*
G01X5313493Y6724321D01*
G01X5300681Y6722627D01*
G01X5288749Y6717663D01*
G01X5278516Y6709770D01*
G01X5270685Y6699489D01*
G01X5265795Y6687526D01*
G01X5264180Y6674704D01*
G01X5265952Y6661902D01*
G01X5270989Y6650000D01*
G01X5265913Y6637956D01*
G01X5264179Y6625001D01*
G01X5265909Y6612046D01*
G01X5270982Y6600001D01*
G01X5265909Y6587955D01*
G01X5264179Y6575000D01*
G01X5265913Y6562045D01*
G01X5270989Y6550001D01*
G01X5265952Y6538099D01*
G01X5264180Y6525297D01*
G01X5265795Y6512475D01*
G01X5270685Y6500513D01*
G01X5278516Y6490231D01*
G01X5288749Y6482338D01*
G01X5300681Y6477374D01*
G01X5313493Y6475680D01*
G01X5393049Y6475680D01*
G01X5398659Y6475286D01*
G01X5401286Y6474874D01*
G01X5404457Y6474162D01*
G01X5407234Y6473307D01*
G01X5409160Y6472502D01*
G01X5409821Y6472121D01*
G01X5410643Y6471448D01*
G01X5437886Y6444205D01*
G01X5437886Y6192295D01*
G01X5356289Y6110699D01*
G01X5349222Y6122725D01*
G01X5339795Y6133007D01*
G01X5328427Y6141089D01*
G01X5315619Y6146615D01*
G01X5301938Y6149339D01*
G01X5299291Y6149742D01*
G01X5297568Y6150241D01*
G01X5273520Y6174289D01*
G01X5273520Y6275081D01*
G01X5273912Y6296545D01*
G01X5274309Y6312623D01*
G01X5274320Y6313508D01*
G01X5274320Y6436507D01*
G01X5272626Y6449319D01*
G01X5267662Y6461252D01*
G01X5259769Y6471484D01*
G01X5249488Y6479315D01*
G01X5237525Y6484206D01*
G01X5224703Y6485820D01*
G01X5211901Y6484048D01*
G01X5200000Y6479011D01*
G01X5187955Y6484087D01*
G01X5175001Y6485821D01*
G01X5162045Y6484091D01*
G01X5150000Y6479018D01*
G01X5139194Y6483736D01*
G01X5127578Y6485754D01*
G01X5115814Y6484957D01*
G01X5115814Y6570545D01*
G01X5116679Y6572116D01*
G01X5118266Y6574273D01*
G01X5126492Y6586802D01*
G01X5131694Y6600859D01*
G01X5133607Y6615724D01*
G01X5132132Y6630640D01*
G01X5127346Y6644843D01*
G01X5119492Y6657609D01*
G01X5108972Y6668285D01*
G01X5096324Y6676325D01*
G01X5082192Y6681320D01*
G01X5067300Y6683014D01*
G01X5052408Y6681320D01*
G01X5038276Y6676325D01*
G01X5025628Y6668285D01*
G01X5015108Y6657609D01*
G01X5007254Y6644843D01*
G01X5002468Y6630640D01*
G01X5000993Y6615724D01*
G01X5002906Y6600859D01*
G01X5008108Y6586802D01*
G01X5016334Y6574273D01*
G01X5017921Y6572116D01*
G01X5018786Y6570545D01*
G01X5018786Y6485427D01*
G01X5009067Y6483174D01*
G01X5000000Y6479011D01*
G01X4987956Y6484087D01*
G01X4975001Y6485821D01*
G01X4962046Y6484091D01*
G01X4950000Y6479018D01*
G01X4937233Y6484281D01*
G01X4923508Y6485798D01*
G01X4923508Y6872506D01*
G01X4921855Y6885063D01*
G01X4917008Y6896763D01*
G01X4909298Y6906811D01*
G01X4696832Y7119278D01*
G01X4700001Y7120989D01*
G01X4712045Y7115913D01*
G01X4724999Y7114179D01*
G01X4737955Y7115909D01*
G01X4750000Y7120982D01*
G01X4762046Y7115909D01*
G01X4775001Y7114179D01*
G01X4787956Y7115913D01*
G01X4800000Y7120989D01*
G01X4812044Y7115913D01*
G01X4824999Y7114179D01*
G01X4837954Y7115909D01*
G01X4850000Y7120982D01*
G01X4862046Y7115909D01*
G01X4875001Y7114179D01*
G01X4887956Y7115913D01*
G01X4900000Y7120989D01*
G01X4912760Y7115724D01*
G01X4926480Y7114201D01*
G01X4926480Y7089273D01*
G01X4915585Y7079229D01*
G01X4907193Y7067016D01*
G01X4901722Y7053246D01*
G01X4899445Y7038604D01*
G01X4900477Y7023822D01*
G01X4904765Y7009638D01*
G01X4912095Y6996760D01*
G01X4922102Y6985832D01*
G01X4934286Y6977398D01*
G01X4948039Y6971881D01*
G01X4962673Y6969555D01*
G01X4977458Y6970537D01*
G01X4991656Y6974777D01*
G01X5004559Y6982064D01*
G01X5015521Y6992034D01*
G01X5023995Y7004189D01*
G01X5029559Y7017923D01*
G01X5031934Y7032549D01*
G01X5031003Y7047338D01*
G01X5026810Y7061550D01*
G01X5025291Y7065484D01*
G01X5024089Y7069343D01*
G01X5023508Y7071746D01*
G01X5023508Y7114202D01*
G01X5037233Y7115719D01*
G01X5050000Y7120982D01*
G01X5062046Y7115909D01*
G01X5075001Y7114179D01*
G01X5087956Y7115913D01*
G01X5100000Y7120989D01*
G01X5111901Y7115952D01*
G01X5124703Y7114180D01*
G01X5137525Y7115795D01*
G01X5149488Y7120685D01*
G01X5159769Y7128516D01*
G01X5167663Y7138749D01*
G01X5172627Y7150681D01*
G01X5174320Y7163493D01*
G01X5174320Y7286493D01*
G01X5172880Y7298323D01*
G01X5168644Y7309462D01*
G01X5161860Y7319259D01*
G01X5152924Y7327143D01*
G01X5142357Y7332654D01*
G01X5130777Y7335468D01*
G01X5165105Y7369795D01*
G01X5172814Y7379843D01*
G01X5177661Y7391544D01*
G01X5179314Y7404100D01*
G01X5179455Y7530299D01*
G01X5262900Y7530299D01*
G01X5272651Y7531652D01*
G01X5281666Y7535608D01*
G01X5289262Y7541870D01*
G01X5294867Y7549963D01*
G01X5298056Y7559277D01*
G01X5301000Y7559650D01*
G01X5316200Y7559650D01*
G01X5319552Y7559164D01*
G01X5324269Y7548326D01*
G01X5332255Y7539614D01*
G01X5342643Y7533976D01*
G01X5354300Y7532026D01*
G01X5440700Y7532026D01*
G01X5450586Y7533417D01*
G01X5450586Y7389114D01*
G01X5245100Y7389114D01*
G01X5232544Y7387461D01*
G01X5220843Y7382614D01*
G01X5210795Y7374905D01*
G01X5190701Y7354810D01*
G01X5183072Y7344903D01*
G01X5178230Y7333374D01*
G01X5176494Y7320990D01*
G01X5176102Y7301811D01*
G01X5175705Y7287483D01*
G01X5175692Y7286493D01*
G01X5175692Y7163493D01*
G01X5177689Y7149600D01*
G01X5183520Y7136832D01*
G01X5192712Y7126224D01*
G01X5204520Y7118635D01*
G01X5217988Y7114681D01*
G01X5232024Y7114681D01*
G01X5245492Y7118635D01*
G01X5257300Y7126224D01*
G01X5266491Y7136832D01*
G01X5272322Y7149600D01*
G01X5274320Y7163493D01*
G01X5274320Y7286493D01*
G01X5274306Y7287483D01*
G01X5274179Y7292086D01*
G01X5473700Y7292086D01*
G01X5486256Y7293739D01*
G01X5497957Y7298586D01*
G01X5508005Y7306295D01*
G01X5533405Y7331695D01*
G01X5541114Y7341743D01*
G01X5545961Y7353444D01*
G01X5547614Y7366000D01*
G01X5547614Y7653416D01*
G01X7581900Y7653416D01*
G01X7592967Y7655169D01*
G01X7602951Y7660256D01*
G01X7610874Y7668179D01*
G01X7615961Y7678163D01*
G01X7617714Y7689230D01*
G01X7617714Y7842997D01*
G01X7633097Y7825832D01*
G01X7650993Y7811306D01*
G01X7670954Y7799782D01*
G01X7692481Y7791547D01*
G01X7715038Y7786807D01*
G01X7738059Y7785680D01*
G01X7760971Y7788195D01*
G01X7783199Y7794290D01*
G01X7804190Y7803810D01*
G01X7823418Y7816520D01*
G01X7840404Y7832100D01*
G01X7854722Y7850163D01*
G01X7866014Y7870256D01*
G01X7874000Y7891877D01*
G01X7878479Y7914487D01*
G01X7879339Y7937520D01*
G01X7876559Y7960401D01*
G01X7870208Y7982558D01*
G01X7860445Y8003437D01*
G01X7847514Y8022517D01*
G01X7831737Y8039321D01*
G01X7813511Y8053429D01*
G01X7793288Y8064488D01*
G01X7771576Y8072223D01*
G01X7748916Y8076440D01*
G01X7725874Y8077033D01*
G01X7703027Y8073989D01*
G01X7680946Y8067382D01*
G01X7660181Y8057378D01*
G01X7641252Y8044227D01*
G01X7624631Y8028257D01*
G01X7610735Y8009869D01*
G01X7599910Y7989520D01*
G01X7592427Y7967719D01*
G01X7588473Y7945012D01*
G01X7588146Y7921965D01*
G01X7581900Y7922514D01*
G01X3200370Y7922514D01*
G01X3190120Y7921016D01*
G01X3180728Y7916647D01*
G01X3172978Y7909772D01*
G01X3167521Y7900968D01*
G01X3164811Y7890969D01*
G01X3161621Y7882750D01*
G01X3160536Y7874000D01*
G01X3160536Y5980204D01*
G01X3156578Y5964431D01*
G01X2232914Y5964431D01*
G01X2232914Y6177505D01*
G01X2330409Y6275000D01*
G01X2564186Y6275000D01*
G01X2566166Y6249843D01*
G01X2572057Y6225306D01*
G01X2581714Y6201992D01*
G01X2594899Y6180476D01*
G01X2611287Y6161287D01*
G01X2630476Y6144899D01*
G01X2651992Y6131714D01*
G01X2675306Y6122057D01*
G01X2699843Y6116166D01*
G01X2725000Y6114186D01*
G01X2750157Y6116166D01*
G01X2774694Y6122057D01*
G01X2798008Y6131714D01*
G01X2819524Y6144899D01*
G01X2838713Y6161287D01*
G01X2855101Y6180476D01*
G01X2868286Y6201992D01*
G01X2877943Y6225306D01*
G01X2883834Y6249843D01*
G01X2885814Y6275000D01*
G01X2883834Y6300157D01*
G01X2877943Y6324694D01*
G01X2868286Y6348008D01*
G01X2855101Y6369524D01*
G01X2838713Y6388713D01*
G01X2819524Y6405101D01*
G01X2798008Y6418286D01*
G01X2774694Y6427943D01*
G01X2750157Y6433834D01*
G01X2725000Y6435814D01*
G01X2699843Y6433834D01*
G01X2675306Y6427943D01*
G01X2651992Y6418286D01*
G01X2630476Y6405101D01*
G01X2611287Y6388713D01*
G01X2594899Y6369524D01*
G01X2581714Y6348008D01*
G01X2572057Y6324694D01*
G01X2566166Y6300157D01*
G01X2564186Y6275000D01*
G01X2564186Y6275000D01*
G01X2330409Y6275000D01*
G01X2623595Y6568186D01*
G01X2735145Y6568186D01*
G01X2736716Y6567321D01*
G01X2738873Y6565734D01*
G01X2751402Y6557508D01*
G01X2765459Y6552306D01*
G01X2780324Y6550393D01*
G01X2795240Y6551868D01*
G01X2809443Y6556654D01*
G01X2822209Y6564508D01*
G01X2832885Y6575028D01*
G01X2840925Y6587676D01*
G01X2845920Y6601808D01*
G01X2847614Y6616700D01*
G01X2845920Y6631592D01*
G01X2840925Y6645724D01*
G01X2832885Y6658372D01*
G01X2822209Y6668892D01*
G01X2809443Y6676746D01*
G01X2795240Y6681532D01*
G01X2780324Y6683007D01*
G01X2765459Y6681094D01*
G01X2751402Y6675892D01*
G01X2738873Y6667666D01*
G01X2736716Y6666079D01*
G01X2735145Y6665214D01*
G01X2603500Y6665214D01*
G01X2590944Y6663561D01*
G01X2579243Y6658714D01*
G01X2569195Y6651005D01*
G01X2150095Y6231905D01*
G01X2142386Y6221857D01*
G01X2137539Y6210156D01*
G01X2135886Y6197600D01*
G01X2135886Y2204495D01*
G01X2135886Y2204495D01*
G01X2113505Y2182114D01*
G01X2012723Y2182114D01*
G01X2011117Y2182236D01*
G01X2008108Y2182693D01*
G01X1998978Y2184787D01*
G01X1982939Y2187191D01*
G01X1966796Y2185631D01*
G01X1951514Y2180199D01*
G01X1938009Y2171219D01*
G01X1927086Y2159231D01*
G01X1919400Y2144949D01*
G01X1915411Y2129229D01*
G01X1915357Y2113011D01*
G01X122246Y2113011D01*
G01X527776Y4725000D01*
G01X1214186Y4725000D01*
G01X1216166Y4699843D01*
G01X1222057Y4675306D01*
G01X1231714Y4651992D01*
G01X1244899Y4630476D01*
G01X1261287Y4611287D01*
G01X1280476Y4594899D01*
G01X1301992Y4581714D01*
G01X1325306Y4572057D01*
G01X1349843Y4566166D01*
G01X1375000Y4564186D01*
G01X1400157Y4566166D01*
G01X1424694Y4572057D01*
G01X1448008Y4581714D01*
G01X1469524Y4594899D01*
G01X1488713Y4611287D01*
G01X1505101Y4630476D01*
G01X1518286Y4651992D01*
G01X1527943Y4675306D01*
G01X1533834Y4699843D01*
G01X1535814Y4725000D01*
G01X1533834Y4750157D01*
G01X1527943Y4774694D01*
G01X1518286Y4798008D01*
G01X1505101Y4819524D01*
G01X1488713Y4838713D01*
G01X1469524Y4855101D01*
G01X1448008Y4868286D01*
G01X1424694Y4877943D01*
G01X1400157Y4883834D01*
G01X1375000Y4885814D01*
G01X1349843Y4883834D01*
G01X1325306Y4877943D01*
G01X1301992Y4868286D01*
G01X1280476Y4855101D01*
G01X1261287Y4838713D01*
G01X1244899Y4819524D01*
G01X1231714Y4798008D01*
G01X1222057Y4774694D01*
G01X1216166Y4750157D01*
G01X1214186Y4725000D01*
G01X1214186Y4725000D01*
G01X527776Y4725000D01*
G01X616681Y5297634D01*
G01X939211Y5297634D01*
G01X941678Y5276632D01*
G01X948089Y5256481D01*
G01X958211Y5237915D01*
G01X971675Y5221610D01*
G01X987992Y5208159D01*
G01X1006566Y5198053D01*
G01X1026722Y5191658D01*
G01X1047726Y5189209D01*
G01X1068813Y5190794D01*
G01X1089214Y5196356D01*
G01X1108188Y5205692D01*
G01X1125042Y5218462D01*
G01X1132308Y5225022D01*
G01X1137195Y5229172D01*
G01X1142150Y5232970D01*
G01X1146758Y5235992D01*
G01X1150415Y5237879D01*
G01X1153014Y5238769D01*
G01X1153276Y5238786D01*
G01X1439200Y5238786D01*
G01X1451142Y5239962D01*
G01X1462625Y5243445D01*
G01X1473208Y5249102D01*
G01X1482485Y5256715D01*
G01X1893285Y5667515D01*
G01X1900897Y5676791D01*
G01X1906554Y5687374D01*
G01X1910038Y5698858D01*
G01X1911214Y5710800D01*
G01X1911214Y6396724D01*
G01X1911231Y6396986D01*
G01X1912120Y6399585D01*
G01X1914007Y6403242D01*
G01X1917030Y6407850D01*
G01X1920828Y6412805D01*
G01X1924978Y6417692D01*
G01X1931537Y6424958D01*
G01X1941789Y6437915D01*
G01X1950000Y6452253D01*
G01X1960147Y6435145D01*
G01X1973189Y6420126D01*
G01X1988706Y6407681D01*
G01X2006198Y6398210D01*
G01X2025101Y6392020D01*
G01X2044806Y6389308D01*
G01X2064679Y6390163D01*
G01X2084079Y6394556D01*
G01X2102381Y6402348D01*
G01X2118995Y6413285D01*
G01X2133386Y6427017D01*
G01X2145090Y6443100D01*
G01X2153731Y6461016D01*
G01X2159029Y6480189D01*
G01X2160814Y6500000D01*
G01X2159029Y6519811D01*
G01X2153731Y6538983D01*
G01X2145090Y6556900D01*
G01X2133386Y6572983D01*
G01X2118995Y6586715D01*
G01X2102381Y6597652D01*
G01X2084079Y6605444D01*
G01X2064679Y6609837D01*
G01X2044806Y6610692D01*
G01X2025101Y6607980D01*
G01X2006198Y6601789D01*
G01X1988706Y6592319D01*
G01X1973189Y6579874D01*
G01X1960147Y6564855D01*
G01X1950000Y6547746D01*
G01X1939110Y6565873D01*
G01X1924974Y6581600D01*
G01X1908109Y6594356D01*
G01X1889128Y6603676D01*
G01X1868722Y6609221D01*
G01X1847634Y6610789D01*
G01X1826632Y6608322D01*
G01X1806481Y6601911D01*
G01X1787915Y6591789D01*
G01X1771610Y6578325D01*
G01X1758159Y6562008D01*
G01X1748053Y6543434D01*
G01X1741658Y6523278D01*
G01X1739209Y6502274D01*
G01X1740794Y6481187D01*
G01X1746356Y6460786D01*
G01X1755692Y6441812D01*
G01X1768462Y6424958D01*
G01X1775022Y6417692D01*
G01X1779172Y6412805D01*
G01X1782970Y6407850D01*
G01X1785992Y6403242D01*
G01X1787880Y6399585D01*
G01X1788769Y6396986D01*
G01X1788786Y6396724D01*
G01X1788786Y5736156D01*
G01X1413844Y5361214D01*
G01X1413844Y5361214D01*
G01X1153276Y5361214D01*
G01X1153014Y5361231D01*
G01X1150415Y5362120D01*
G01X1146758Y5364007D01*
G01X1142150Y5367030D01*
G01X1137195Y5370828D01*
G01X1132308Y5374978D01*
G01X1125042Y5381537D01*
G01X1112084Y5391789D01*
G01X1097746Y5400000D01*
G01X1114855Y5410147D01*
G01X1129874Y5423189D01*
G01X1142319Y5438706D01*
G01X1151789Y5456198D01*
G01X1157980Y5475101D01*
G01X1160692Y5494806D01*
G01X1159837Y5514679D01*
G01X1155444Y5534079D01*
G01X1147652Y5552381D01*
G01X1136715Y5568995D01*
G01X1122983Y5583386D01*
G01X1106900Y5595090D01*
G01X1088983Y5603730D01*
G01X1069811Y5609029D01*
G01X1050000Y5610814D01*
G01X1030189Y5609029D01*
G01X1011016Y5603730D01*
G01X993100Y5595090D01*
G01X977017Y5583386D01*
G01X963285Y5568995D01*
G01X952348Y5552381D01*
G01X944556Y5534079D01*
G01X940163Y5514679D01*
G01X939308Y5494806D01*
G01X942019Y5475101D01*
G01X948210Y5456198D01*
G01X957681Y5438706D01*
G01X970126Y5423189D01*
G01X985145Y5410147D01*
G01X1002253Y5400000D01*
G01X984127Y5389110D01*
G01X968400Y5374974D01*
G01X955644Y5358109D01*
G01X946324Y5339128D01*
G01X940779Y5318722D01*
G01X939211Y5297634D01*
G01X616681Y5297634D01*
G01X768424Y6275000D01*
G01X1214186Y6275000D01*
G01X1216166Y6249843D01*
G01X1222057Y6225306D01*
G01X1231714Y6201992D01*
G01X1244899Y6180476D01*
G01X1261287Y6161287D01*
G01X1280476Y6144899D01*
G01X1301992Y6131714D01*
G01X1325306Y6122057D01*
G01X1349843Y6116166D01*
G01X1375000Y6114186D01*
G01X1400157Y6116166D01*
G01X1424694Y6122057D01*
G01X1448008Y6131714D01*
G01X1469524Y6144899D01*
G01X1488713Y6161287D01*
G01X1505101Y6180476D01*
G01X1518286Y6201992D01*
G01X1527943Y6225306D01*
G01X1533834Y6249843D01*
G01X1535814Y6275000D01*
G01X1533834Y6300157D01*
G01X1527943Y6324694D01*
G01X1518286Y6348008D01*
G01X1505101Y6369524D01*
G01X1488713Y6388713D01*
G01X1469524Y6405101D01*
G01X1448008Y6418286D01*
G01X1424694Y6427943D01*
G01X1400157Y6433834D01*
G01X1375000Y6435814D01*
G01X1349843Y6433834D01*
G01X1325306Y6427943D01*
G01X1301992Y6418286D01*
G01X1280476Y6405101D01*
G01X1261287Y6388713D01*
G01X1244899Y6369524D01*
G01X1231714Y6348008D01*
G01X1222057Y6324694D01*
G01X1216166Y6300157D01*
G01X1214186Y6275000D01*
G01X1214186Y6275000D01*
G01X768424Y6275000D01*
G01X975755Y7610400D01*
G01X1286213Y7610400D01*
G01X1287423Y7586348D01*
G01X1292576Y7562824D01*
G01X1301530Y7540468D01*
G01X1314042Y7519891D01*
G01X1329770Y7501654D01*
G01X1348286Y7486254D01*
G01X1369083Y7474113D01*
G01X1391596Y7465559D01*
G01X1415209Y7460828D01*
G01X1439279Y7460048D01*
G01X1463149Y7463241D01*
G01X1486167Y7470319D01*
G01X1507707Y7481089D01*
G01X1527181Y7495257D01*
G01X1544057Y7512437D01*
G01X1557875Y7532161D01*
G01X1568258Y7553890D01*
G01X1574922Y7577032D01*
G01X1577687Y7600955D01*
G01X1576477Y7625007D01*
G01X1571324Y7648532D01*
G01X1562370Y7670888D01*
G01X1562370Y7670888D01*
G01X1549858Y7691465D01*
G01X1534130Y7709702D01*
G01X1515614Y7725101D01*
G01X1494817Y7737243D01*
G01X1472304Y7745796D01*
G01X1448691Y7750527D01*
G01X1424622Y7751307D01*
G01X1400752Y7748115D01*
G01X1377733Y7741037D01*
G01X1356193Y7730267D01*
G01X1336719Y7716099D01*
G01X1319843Y7698918D01*
G01X1306026Y7679194D01*
G01X1295643Y7657465D01*
G01X1288978Y7634323D01*
G01X1286213Y7610400D01*
G01X975755Y7610400D01*
G01X1024358Y7923450D01*
G01X1912310Y7923450D01*
G01X1913521Y7899398D01*
G01X1918673Y7875873D01*
G01X1927628Y7853517D01*
G01X1940140Y7832940D01*
G01X1955868Y7814703D01*
G01X1974383Y7799304D01*
G01X1995181Y7787162D01*
G01X2017693Y7778609D01*
G01X2041306Y7773878D01*
G01X2065376Y7773098D01*
G01X2089246Y7776290D01*
G01X2112265Y7783368D01*
G01X2133805Y7794138D01*
G01X2153278Y7808306D01*
G01X2170154Y7825487D01*
G01X2183972Y7845211D01*
G01X2194355Y7866940D01*
G01X2201020Y7890082D01*
G01X2203785Y7914005D01*
G01X2202575Y7938057D01*
G01X2197422Y7961582D01*
G01X2188467Y7983937D01*
G01X2188467Y7983937D01*
G01X2175955Y8004514D01*
G01X2160227Y8022751D01*
G01X2141712Y8038151D01*
G01X2120914Y8050293D01*
G01X2098402Y8058846D01*
G01X2074789Y8063577D01*
G01X2050719Y8064357D01*
G01X2026849Y8061164D01*
G01X2003830Y8054087D01*
G01X1982290Y8043317D01*
G01X1962817Y8029148D01*
G01X1945941Y8011968D01*
G01X1932123Y7992244D01*
G01X1921740Y7970515D01*
G01X1915075Y7947373D01*
G01X1912310Y7923450D01*
G01X1024358Y7923450D01*
G01X1032553Y7976235D01*
G01X1267406Y8093662D01*
G01X1713856Y8093662D01*
G01X1714431Y8072610D01*
G01X1718653Y8051979D01*
G01X1726393Y8032394D01*
G01X1737417Y8014450D01*
G01X1751389Y7998694D01*
G01X1767885Y7985603D01*
G01X1786404Y7975575D01*
G01X1806383Y7968916D01*
G01X1827214Y7965827D01*
G01X1848265Y7966402D01*
G01X1868897Y7970624D01*
G01X1888482Y7978364D01*
G01X1906426Y7989388D01*
G01X1922182Y8003360D01*
G01X1935273Y8019856D01*
G01X1945301Y8038375D01*
G01X1951960Y8058353D01*
G01X1955049Y8079185D01*
G01X1954474Y8100236D01*
G01X1950252Y8120868D01*
G01X1942512Y8140453D01*
G01X1942512Y8140453D01*
G01X1931488Y8158396D01*
G01X1917516Y8174153D01*
G01X1901020Y8187244D01*
G01X1882501Y8197272D01*
G01X1862522Y8203931D01*
G01X1841691Y8207020D01*
G01X1820640Y8206445D01*
G01X1800008Y8202223D01*
G01X1780423Y8194482D01*
G01X1762479Y8183459D01*
G01X1746723Y8169486D01*
G01X1733632Y8152990D01*
G01X1723604Y8134472D01*
G01X1716945Y8114493D01*
G01X1713856Y8093662D01*
G01X1267406Y8093662D01*
G01X2016017Y8467967D01*
G01X2024381Y8473766D01*
G37*
G36*
G01X4307081Y7653416D02*
G01X4320449Y7646684D01*
G01X4334986Y7643122D01*
G01X4349952Y7642910D01*
G01X4364584Y7646060D01*
G01X4364584Y7186916D01*
G01X4366237Y7174359D01*
G01X4371083Y7162659D01*
G01X4378793Y7152611D01*
G01X4425264Y7106140D01*
G01X4418115Y7094279D01*
G01X4414547Y7080898D01*
G01X4414839Y7067052D01*
G01X4418970Y7053834D01*
G01X4426613Y7042285D01*
G01X4437166Y7033317D01*
G01X4449796Y7027636D01*
G01X4463507Y7025692D01*
G01X4586507Y7025692D01*
G01X4599152Y7027341D01*
G01X4610951Y7032176D01*
G01X4621116Y7039876D01*
G01X4628966Y7049924D01*
G01X4826480Y6852411D01*
G01X4826480Y6485799D01*
G01X4812760Y6484276D01*
G01X4800000Y6479011D01*
G01X4788634Y6483897D01*
G01X4776410Y6485801D01*
G01X4784105Y6493495D01*
G01X4791814Y6503543D01*
G01X4796661Y6515244D01*
G01X4798314Y6527800D01*
G01X4798314Y6649607D01*
G01X4796661Y6662163D01*
G01X4791814Y6673864D01*
G01X4784105Y6683911D01*
G01X4758705Y6709311D01*
G01X4748657Y6717021D01*
G01X4736956Y6721868D01*
G01X4724400Y6723521D01*
G01X4635799Y6723521D01*
G01X4634276Y6737240D01*
G01X4629011Y6750000D01*
G01X4634087Y6762044D01*
G01X4635821Y6774999D01*
G01X4634091Y6787954D01*
G01X4629018Y6800000D01*
G01X4634091Y6812046D01*
G01X4635821Y6825001D01*
G01X4634087Y6837956D01*
G01X4629011Y6850000D01*
G01X4634087Y6862044D01*
G01X4635821Y6874999D01*
G01X4634091Y6887954D01*
G01X4629018Y6900000D01*
G01X4634091Y6912046D01*
G01X4635821Y6925001D01*
G01X4634087Y6937956D01*
G01X4629011Y6950000D01*
G01X4634048Y6961901D01*
G01X4635820Y6974703D01*
G01X4634205Y6987525D01*
G01X4629315Y6999488D01*
G01X4621484Y7009769D01*
G01X4611251Y7017663D01*
G01X4599319Y7022627D01*
G01X4586507Y7024320D01*
G01X4463507Y7024320D01*
G01X4462623Y7024309D01*
G01X4446545Y7023912D01*
G01X4425080Y7023520D01*
G01X4290314Y7023520D01*
G01X4290314Y7408745D01*
G01X4291179Y7410316D01*
G01X4292766Y7412473D01*
G01X4300992Y7425002D01*
G01X4306194Y7439059D01*
G01X4308107Y7453924D01*
G01X4306632Y7468840D01*
G01X4301846Y7483043D01*
G01X4293992Y7495809D01*
G01X4283472Y7506485D01*
G01X4270824Y7514525D01*
G01X4256692Y7519520D01*
G01X4241800Y7521214D01*
G01X4226908Y7519520D01*
G01X4212776Y7514525D01*
G01X4200128Y7506485D01*
G01X4189608Y7495809D01*
G01X4181754Y7483043D01*
G01X4176968Y7468840D01*
G01X4175493Y7453924D01*
G01X4177406Y7439059D01*
G01X4182608Y7425002D01*
G01X4190834Y7412473D01*
G01X4192421Y7410316D01*
G01X4193286Y7408745D01*
G01X4193286Y6997700D01*
G01X4194939Y6985144D01*
G01X4199786Y6973443D01*
G01X4207495Y6963395D01*
G01X4230189Y6940702D01*
G01X4240237Y6932992D01*
G01X4251938Y6928145D01*
G01X4264494Y6926492D01*
G01X4414216Y6926492D01*
G01X4415733Y6912767D01*
G01X4420996Y6900000D01*
G01X4415733Y6887233D01*
G01X4414216Y6873508D01*
G01X4155201Y6873508D01*
G01X3641105Y7387605D01*
G01X3631057Y7395314D01*
G01X3619356Y7400161D01*
G01X3606800Y7401814D01*
G01X3589455Y7401814D01*
G01X3587884Y7402679D01*
G01X3585727Y7404266D01*
G01X3573198Y7412492D01*
G01X3559141Y7417694D01*
G01X3544276Y7419607D01*
G01X3529360Y7418132D01*
G01X3515157Y7413346D01*
G01X3502391Y7405492D01*
G01X3491715Y7394972D01*
G01X3483675Y7382324D01*
G01X3478680Y7368192D01*
G01X3476986Y7353300D01*
G01X3478680Y7338408D01*
G01X3483675Y7324276D01*
G01X3491715Y7311628D01*
G01X3502391Y7301108D01*
G01X3515157Y7293254D01*
G01X3529360Y7288468D01*
G01X3544276Y7286993D01*
G01X3559141Y7288906D01*
G01X3573198Y7294108D01*
G01X3585727Y7302334D01*
G01X3587703Y7303788D01*
G01X4067970Y6823521D01*
G01X3989289Y6823521D01*
G01X3615705Y7197105D01*
G01X3605657Y7204814D01*
G01X3593956Y7209661D01*
G01X3581400Y7211314D01*
G01X3576755Y7211314D01*
G01X3575184Y7212179D01*
G01X3573027Y7213766D01*
G01X3559331Y7222567D01*
G01X3543903Y7227766D01*
G01X3527674Y7229049D01*
G01X3511621Y7226340D01*
G01X3496712Y7219801D01*
G01X3483845Y7209827D01*
G01X3473796Y7197018D01*
G01X3467171Y7182147D01*
G01X3464369Y7166110D01*
G01X3465558Y7149874D01*
G01X3470667Y7134416D01*
G01X3479389Y7120670D01*
G01X3491197Y7109462D01*
G01X3505380Y7101469D01*
G01X3521082Y7097172D01*
G01X3537359Y7096831D01*
G01X3553228Y7100466D01*
G01X3567733Y7107858D01*
G01X3934889Y6740702D01*
G01X3944936Y6732992D01*
G01X3956637Y6728146D01*
G01X3969193Y6726493D01*
G01X4414216Y6726493D01*
G01X4415733Y6712767D01*
G01X4420996Y6700000D01*
G01X4416707Y6690551D01*
G01X4414491Y6680414D01*
G01X3919655Y6680414D01*
G01X3918084Y6681280D01*
G01X3915927Y6682866D01*
G01X3903840Y6690867D01*
G01X3890303Y6696050D01*
G01X3875963Y6698169D01*
G01X3861506Y6697121D01*
G01X3847621Y6692956D01*
G01X3834973Y6685875D01*
G01X3824166Y6676215D01*
G01X3815717Y6664437D01*
G01X3810028Y6651105D01*
G01X3807371Y6636855D01*
G01X3807875Y6622368D01*
G01X3811514Y6608337D01*
G01X3801590Y6600699D01*
G01X3447632Y6246742D01*
G01X3445909Y6246242D01*
G01X3443262Y6245839D01*
G01X3439414Y6245373D01*
G01X3439414Y7653416D01*
G01X4307081Y7653416D01*
G37*
G36*
G01X4742627Y7653416D02*
G01X4741886Y7643579D01*
G01X4742613Y7633740D01*
G01X4728449Y7631685D01*
G01X4715055Y7626640D01*
G01X4703057Y7618838D01*
G01X4693011Y7608643D01*
G01X4685388Y7596530D01*
G01X4680540Y7583064D01*
G01X4678695Y7568871D01*
G01X4678570Y7567361D01*
G01X4677980Y7563341D01*
G01X4677891Y7562693D01*
G01X4677130Y7556760D01*
G01X4676893Y7554165D01*
G01X4676848Y7553343D01*
G01X4676493Y7547481D01*
G01X4676493Y7431716D01*
G01X4613541Y7494668D01*
G01X4613042Y7496391D01*
G01X4612639Y7499038D01*
G01X4609596Y7513714D01*
G01X4603335Y7527332D01*
G01X4594176Y7539196D01*
G01X4582587Y7548700D01*
G01X4569159Y7555359D01*
G01X4554579Y7558832D01*
G01X4539591Y7558943D01*
G01X4524961Y7555684D01*
G01X4511437Y7549224D01*
G01X4499709Y7539891D01*
G01X4490376Y7528163D01*
G01X4483916Y7514639D01*
G01X4480657Y7500009D01*
G01X4480768Y7485021D01*
G01X4484241Y7470441D01*
G01X4490900Y7457013D01*
G01X4500404Y7445424D01*
G01X4512268Y7436265D01*
G01X4525886Y7430004D01*
G01X4540562Y7426961D01*
G01X4543209Y7426558D01*
G01X4544932Y7426059D01*
G01X4626480Y7344511D01*
G01X4626480Y7324920D01*
G01X4626088Y7303455D01*
G01X4625691Y7287377D01*
G01X4625680Y7286493D01*
G01X4625680Y7190429D01*
G01X4613541Y7202568D01*
G01X4613042Y7204291D01*
G01X4612639Y7206938D01*
G01X4609457Y7222033D01*
G01X4602873Y7235985D01*
G01X4593243Y7248038D01*
G01X4581090Y7257539D01*
G01X4567070Y7263976D01*
G01X4551942Y7266999D01*
G01X4536525Y7266444D01*
G01X4521653Y7262343D01*
G01X4508131Y7254916D01*
G01X4496692Y7244566D01*
G01X4487953Y7231853D01*
G01X4482388Y7217464D01*
G01X4480298Y7202180D01*
G01X4481797Y7186826D01*
G01X4461612Y7207011D01*
G01X4461612Y7653416D01*
G01X4742627Y7653416D01*
G37*
G36*
G01X4643860Y6275264D02*
G01X4654215Y6268785D01*
G01X4665844Y6265050D01*
G01X4678035Y6264287D01*
G01X4690039Y6266545D01*
G01X4701121Y6271683D01*
G01X4710599Y6279388D01*
G01X4717893Y6289185D01*
G01X4717893Y6053761D01*
G01X4706521Y6055614D01*
G01X4582414Y6055614D01*
G01X4582414Y6213818D01*
G01X4643860Y6275264D01*
G37*
G36*
G01X4724308Y6436507D02*
G01X4724254Y6438812D01*
G01X4725769Y6439474D01*
G01X4725680Y6436507D01*
G01X4725680Y6392781D01*
G01X4724308Y6390531D01*
G01X4724308Y6436507D01*
G37*
G54D10*
G01X2024381Y8473766D02*
G02X4193286Y9544140I2875619J-3094265D01*
G01X4193286Y8811514D01*
G01X3848100Y8811514D01*
G03X3789293Y8782378I0J-73914D01*
G01X3724243Y8717327D01*
G01X3720501Y8714011D01*
G01X3716755Y8711335D01*
G01X3712391Y8708763D01*
G01X3707776Y8706498D01*
G01X3703315Y8704688D01*
G01X3699489Y8703441D01*
G01X3696975Y8702836D01*
G01X3695215Y8702600D01*
G03X3593025Y8584028I8330J-110500D01*
G03X3511279Y8602261I-63207J-91020D01*
G01X3503833Y8601921D01*
G01X3497089Y8602048D01*
G01X3492900Y8602609D01*
G01X3349004Y8746505D01*
G03X3314699Y8760714I-34305J-34305D01*
G01X2971800Y8760714D01*
G03X2937495Y8746505I0J-48514D01*
G01X2797795Y8606805D01*
G03X2783586Y8572500I34305J-34305D01*
G01X2783586Y7755055D01*
G01X2782721Y7753484D01*
G01X2781134Y7751327D01*
G03X2793067Y7655290I50966J-42427D01*
G03X2888128Y7673426I39033J53610D01*
G03X2979081Y7673246I45572J48174D01*
G03X2984666Y7764027I-45381J48354D01*
G01X2983079Y7766184D01*
G01X2982214Y7767755D01*
G01X2982214Y8488905D01*
G01X3017295Y8523986D01*
G01X3157414Y8523986D01*
G01X3246906Y8434494D01*
G01X3247423Y8430313D01*
G01X3247498Y8423505D01*
G01X3247047Y8415296D01*
G01X3246764Y8412008D01*
G03X3364162Y8283398I109327J-18090D01*
G03X3345127Y8233134I91020J-63207D01*
G01X3340553Y8241151D01*
G03X3291700Y8254516I-31109J-17744D01*
G01X3161405Y8180199D01*
G03X3148040Y8131345I17744J-31109D01*
G01X3222358Y8001050D01*
G03X3271211Y7987685I31109J17744D01*
G01X3401506Y8062003D01*
G03X3414871Y8110857I-17744J31109D01*
G01X3410298Y8118874D01*
G03X3565702Y8228262I44884J101317D01*
G03X3735795Y8290041I63207J91020D01*
G03X3620838Y8429802I-106886J29241D01*
G03X3640337Y8501079I-91020J63207D01*
G03X3814045Y8583769I63207J91020D01*
G01X3814281Y8585530D01*
G01X3814886Y8588043D01*
G01X3816133Y8591869D01*
G01X3817944Y8596330D01*
G01X3820208Y8600945D01*
G01X3822780Y8605309D01*
G01X3825456Y8609056D01*
G01X3828773Y8612797D01*
G01X3879662Y8663686D01*
G01X4193286Y8663686D01*
G01X4193286Y8610600D01*
G03X4203700Y8600186I10414J0D01*
G01X5727700Y8600186D01*
G03X5738114Y8610600I0J10414D01*
G01X5738114Y8663686D01*
G01X6732759Y8663686D01*
G01X6771386Y8625059D01*
G01X6771386Y8064500D01*
G03X6919214Y8064500I73914J0D01*
G01X6919214Y8655675D01*
G03X6897565Y8707940I-73914J0D01*
G01X6815640Y8789865D01*
G03X6763375Y8811514I-52265J-52265D01*
G01X5738114Y8811514D01*
G01X5738114Y9519697D01*
G02X7775619Y8473765I-838115J-4140196D01*
G03X7783983Y8467966I24380J26234D01*
G01X8767446Y7976234D01*
G01X9713527Y1882599D01*
G03X9714295Y1878958I34135J5300D01*
G02X7032274Y767392I-1414295J-378959D01*
G01X5833625Y3013060D01*
G03X3966366Y3013045I-933627J-241360D01*
G01X2767726Y767394D01*
G02X85705Y1878959I-1267726J732606D01*
G03X86473Y1882600I-33367J8941D01*
G01X1032553Y7976235D01*
G01X2016017Y8467967D01*
G03X2024381Y8473766I-16017J32033D01*
G01X1413844Y5361214D02*
G01X1153276Y5361214D01*
G01X1153014Y5361231D01*
G01X1150415Y5362120D01*
G01X1146758Y5364007D01*
G01X1142150Y5367030D01*
G01X1137195Y5370828D01*
G01X1132308Y5374978D01*
G01X1125042Y5381537D01*
G03X1097746Y5400000I-75042J-81538D01*
G03X1050000Y5610814I-47746J100000D01*
G03X1002253Y5400000I0J-110814D01*
G03X958211Y5237915I47746J-100000D01*
G03X1125042Y5218462I91789J62085D01*
G01X1132308Y5225022D01*
G01X1137195Y5229172D01*
G01X1142150Y5232970D01*
G01X1146758Y5235992D01*
G01X1150415Y5237879D01*
G01X1153014Y5238769D01*
G01X1153276Y5238786D01*
G01X1439200Y5238786D01*
G03X1482485Y5256715I0J61214D01*
G01X1893285Y5667515D01*
G03X1911214Y5710800I-43285J43285D01*
G01X1911214Y6396724D01*
G01X1911231Y6396986D01*
G01X1912120Y6399585D01*
G01X1914007Y6403242D01*
G01X1917030Y6407850D01*
G01X1920828Y6412805D01*
G01X1924978Y6417692D01*
G01X1931537Y6424958D01*
G03X1950000Y6452253I-81538J75042D01*
G03X2160814Y6500000I100000J47746D01*
G03X1950000Y6547746I-110814J0D01*
G03X1787915Y6591789I-100000J-47746D01*
G03X1768462Y6424958I62085J-91789D01*
G01X1775022Y6417692D01*
G01X1779172Y6412805D01*
G01X1782970Y6407850D01*
G01X1785992Y6403242D01*
G01X1787880Y6399585D01*
G01X1788769Y6396986D01*
G01X1788786Y6396724D01*
G01X1788786Y5736156D01*
G01X1413844Y5361214D01*
G01X1214186Y6275000D02*
G03X1535814Y6275000I160814J0D01*
G03X1214186Y6275000I-160814J0D01*
G01X1214186Y4725000D02*
G03X1535814Y4725000I160814J0D01*
G03X1214186Y4725000I-160814J0D01*
G01X1562370Y7670888D02*
G03X1301530Y7540468I-130420J-65210D01*
G03X1562370Y7670888I130420J65210D01*
G01X1942512Y8140453D02*
G03X1726393Y8032394I-108059J-54030D01*
G03X1942512Y8140453I108059J54030D01*
G01X2188467Y7983937D02*
G03X1927628Y7853517I-130420J-65210D01*
G03X2188467Y7983937I130420J65210D01*
G01X2135886Y2204495D02*
G01X2113505Y2182114D01*
G01X2012723Y2182114D01*
G01X2011117Y2182236D01*
G01X2008108Y2182693D01*
G01X1998978Y2184787D01*
G03X1919241Y2097264I-17778J-63887D01*
G03X2037011Y2085086I61959J23636D01*
G01X2133600Y2085086D01*
G03X2167905Y2099295I0J48514D01*
G01X2218705Y2150095D01*
G03X2232914Y2184400I-34305J34305D01*
G01X2232914Y6177505D01*
G01X2623595Y6568186D01*
G01X2735145Y6568186D01*
G01X2736716Y6567321D01*
G01X2738873Y6565734D01*
G03X2847614Y6616700I42427J50966D01*
G03X2738873Y6667666I-66314J0D01*
G01X2736716Y6666079D01*
G01X2735145Y6665214D01*
G01X2603500Y6665214D01*
G03X2569195Y6651005I0J-48514D01*
G01X2150095Y6231905D01*
G03X2135886Y6197600I34305J-34305D01*
G01X2135886Y2204495D01*
G01X2564186Y6275000D02*
G03X2885814Y6275000I160814J0D01*
G03X2564186Y6275000I-160814J0D01*
G01X2564186Y4725000D02*
G03X2885814Y4725000I160814J0D01*
G03X2564186Y4725000I-160814J0D01*
G01X3761486Y3576959D02*
G01X3490832Y3306305D01*
G01X3489109Y3305806D01*
G01X3486462Y3305402D01*
G03X3445609Y3192472I6038J-66039D01*
G03X3558539Y3233326I46891J46891D01*
G01X3558942Y3235973D01*
G01X3559441Y3237696D01*
G01X3844305Y3522559D01*
G03X3858514Y3556864I-34305J34305D01*
G01X3858514Y6266405D01*
G01X4058695Y6466586D01*
G01X4448336Y6466586D01*
G01X4004295Y6022546D01*
G03X3990086Y5988241I34305J-34305D01*
G01X3990086Y3962400D01*
G03X4004295Y3928095I48514J0D01*
G01X4067795Y3864595D01*
G03X4102100Y3850386I34305J34305D01*
G01X6025105Y3850386D01*
G01X6479286Y3396205D01*
G01X6479286Y1963855D01*
G01X6478421Y1962284D01*
G01X6476834Y1960127D01*
G03X6527800Y1851386I50966J-42427D01*
G03X6578766Y1960127I0J66314D01*
G01X6577179Y1962284D01*
G01X6576314Y1963855D01*
G01X6576314Y3416300D01*
G03X6562105Y3450605I-48514J0D01*
G01X6079505Y3933205D01*
G03X6045200Y3947414I-34305J-34305D01*
G01X4122195Y3947414D01*
G01X4087114Y3982495D01*
G01X4087114Y5968146D01*
G01X4554048Y6435080D01*
G01X4625680Y6435080D01*
G01X4625680Y6397503D01*
G01X4624998Y6396264D01*
G01X4620829Y6390205D01*
G01X4615315Y6383938D01*
G01X4499595Y6268218D01*
G03X4485386Y6233913I34305J-34305D01*
G01X4485386Y6055614D01*
G01X4393715Y6055614D01*
G03X4357901Y6019800I0J-35814D01*
G01X4357901Y5803130D01*
G03X4393715Y5767316I35814J0D01*
G01X4706521Y5767316D01*
G03X4717893Y5769170I0J35814D01*
G01X4717893Y5243702D01*
G01X4710032Y5235841D01*
G01X4708309Y5235342D01*
G01X4705662Y5234939D01*
G03X4664809Y5122009I6038J-66039D01*
G03X4777739Y5162862I46891J46891D01*
G01X4778142Y5165509D01*
G01X4778641Y5167232D01*
G01X4800712Y5189302D01*
G03X4814921Y5223607I-34305J34305D01*
G01X4814921Y6081418D01*
G03X4876492Y6103811I11079J65382D01*
G01X4876492Y5236821D01*
G03X4906943Y5120741I42730J-50825D01*
G03X4928995Y5120357I12166J65188D01*
G01X4928995Y5109195D01*
G01X4855468Y5035667D01*
G01X4853744Y5035167D01*
G01X4851097Y5034764D01*
G03X4810244Y4921834I6038J-66039D01*
G03X4923174Y4962687I46891J46891D01*
G01X4923577Y4965334D01*
G01X4924077Y4967058D01*
G01X5011814Y5054795D01*
G03X5026023Y5089100I-34305J34305D01*
G01X5026023Y5151230D01*
G03X5082286Y5133057I46376J47400D01*
G01X5082286Y5041585D01*
G01X5081421Y5040014D01*
G01X5079834Y5037857D01*
G03X5130800Y4929116I50966J-42427D01*
G03X5181766Y5037857I0J66314D01*
G01X5180179Y5040014D01*
G01X5179314Y5041585D01*
G01X5179314Y5231301D01*
G03X5254920Y5269016I14986J64599D01*
G03X5232120Y5350372I-60620J26884D01*
G01X5232120Y6065145D01*
G03X5310886Y6018701I63780J18155D01*
G01X5310886Y5608755D01*
G01X5310021Y5607184D01*
G01X5308434Y5605027D01*
G03X5297543Y5538698I50966J-42427D01*
G03X5350206Y5496926I61857J23902D01*
G03X5429646Y5427925I66192J-4024D01*
G03X5475730Y5522521I-13249J64977D01*
G01X5474027Y5526245D01*
G01X5472718Y5529803D01*
G01X5472266Y5531387D01*
G01X5472266Y5766174D01*
G01X5472253Y5767316D01*
G01X5879883Y5767316D01*
G03X5915697Y5803130I0J35814D01*
G01X5915697Y5953694D01*
G01X6276086Y5593305D01*
G01X6276086Y4122855D01*
G01X6275221Y4121284D01*
G01X6273634Y4119127D01*
G03X6324600Y4010386I50966J-42427D01*
G03X6375566Y4119127I0J66314D01*
G01X6373979Y4121284D01*
G01X6373114Y4122855D01*
G01X6373114Y5613400D01*
G03X6358905Y5647705I-48514J0D01*
G01X5976585Y6030024D01*
G03X6000212Y6063700I-12188J33676D01*
G01X6000212Y6153700D01*
G03X5964398Y6189514I-35814J0D01*
G01X5884398Y6189514D01*
G03X5848784Y6157479I0J-35814D01*
G01X5846298Y6157214D01*
G01X5809000Y6157214D01*
G02X5794165Y6162689I0J22837D01*
G03X5776534Y6170828I-23265J-27229D01*
G02X5776214Y6173560I11491J2732D01*
G01X5776214Y6491986D01*
G01X5825084Y6491986D01*
G01X5825084Y6483900D01*
G02X5824571Y6480458I-11811J0D01*
G03X5797784Y6445800I9027J-34658D01*
G01X5797784Y6355800D01*
G03X5833598Y6319986I35814J0D01*
G01X5913598Y6319986D01*
G03X5949412Y6355800I0J35814D01*
G01X5949412Y6445800D01*
G03X5922624Y6480458I-35814J0D01*
G02X5922112Y6483900I11298J3442D01*
G01X5922112Y6491986D01*
G01X6172200Y6491986D01*
G03X6182614Y6502400I0J10414D01*
G01X6182614Y6985000D01*
G03X6172200Y6995414I-10414J0D01*
G01X6082186Y6995414D01*
G01X6082186Y6998437D01*
G02X6087726Y7015593I29339J0D01*
G03X6094487Y7036537I-29052J20943D01*
G01X6094487Y7126536D01*
G03X6058673Y7162350I-35814J0D01*
G01X5978674Y7162350D01*
G03X5942860Y7126536I0J-35814D01*
G01X5942860Y7036537D01*
G03X5978674Y7000723I35814J0D01*
G01X5984935Y7000723D01*
G01X5985158Y6998437D01*
G01X5985158Y6995414D01*
G01X5742335Y6995414D01*
G03X5731921Y6985000I0J-10414D01*
G01X5731921Y6954960D01*
G01X5700481Y6923520D01*
G01X5485785Y6923520D01*
G03X5478996Y6950000I-49292J1473D01*
G03X5479004Y7000000I-42504J25006D01*
G03X5478996Y7050000I-42511J24994D01*
G03X5436493Y7124320I-42504J25006D01*
G01X5313493Y7124320D01*
G03X5270989Y7050000I0J-49314D01*
G03X5270982Y7000000I42504J-25006D01*
G03X5270989Y6950000I42511J-24994D01*
G03X5270982Y6900000I42504J-25006D01*
G03X5270989Y6850000I42511J-24994D01*
G03X5270982Y6800000I42504J-25006D01*
G03X5313493Y6725692I42511J-24994D01*
G01X5436493Y6725692D01*
G01X5437377Y6725703D01*
G01X5453455Y6726101D01*
G01X5474920Y6726493D01*
G01X5638198Y6726493D01*
G01X5679186Y6685505D01*
G01X5679186Y6173560D01*
G02X5678866Y6170828I-11811J0D01*
G03X5649214Y6141589I5634J-35368D01*
G01X5649214Y6584934D01*
G03X5635005Y6619238I-48514J0D01*
G01X5544932Y6709311D01*
G03X5510627Y6723521I-34305J-34305D01*
G01X5474920Y6723521D01*
G01X5453455Y6723913D01*
G01X5437377Y6724310D01*
G01X5436493Y6724321D01*
G01X5313493Y6724321D01*
G03X5270989Y6650000I0J-49314D01*
G03X5270982Y6600001I42504J-25006D01*
G03X5270989Y6550001I42511J-24994D01*
G03X5313493Y6475680I42504J-25006D01*
G01X5393049Y6475680D01*
G01X5398659Y6475286D01*
G01X5401286Y6474874D01*
G01X5404457Y6474162D01*
G01X5407234Y6473307D01*
G01X5409160Y6472502D01*
G01X5409821Y6472121D01*
G01X5410643Y6471448D01*
G01X5437886Y6444205D01*
G01X5437886Y6192295D01*
G01X5356289Y6110699D01*
G03X5301938Y6149339I-60389J-27399D01*
G01X5299291Y6149742D01*
G01X5297568Y6150241D01*
G01X5273520Y6174289D01*
G01X5273520Y6275081D01*
G01X5273912Y6296545D01*
G01X5274309Y6312623D01*
G01X5274320Y6313508D01*
G01X5274320Y6436507D01*
G03X5200000Y6479011I-49314J0D01*
G03X5150000Y6479018I-25006J-42504D01*
G03X5115814Y6484957I-24994J-42511D01*
G01X5115814Y6570545D01*
G01X5116679Y6572116D01*
G01X5118266Y6574273D01*
G03X5067300Y6683014I-50966J42427D01*
G03X5016334Y6574273I0J-66314D01*
G01X5017921Y6572116D01*
G01X5018786Y6570545D01*
G01X5018786Y6485427D01*
G03X5000000Y6479011I6220J-48920D01*
G03X4950000Y6479018I-25006J-42504D01*
G03X4923508Y6485798I-24994J-42511D01*
G01X4923508Y6872506D01*
G03X4909298Y6906811I-48514J0D01*
G01X4696832Y7119278D01*
G03X4700001Y7120989I-21837J44216D01*
G03X4750000Y7120982I25006J42504D01*
G03X4800000Y7120989I24994J42511D01*
G03X4850000Y7120982I25006J42504D01*
G03X4900000Y7120989I24994J42511D01*
G03X4926480Y7114201I25006J42504D01*
G01X4926480Y7089273D01*
G03X4948039Y6971881I39220J-53473D01*
G03X5026810Y7061550I17661J63919D01*
G01X5025291Y7065484D01*
G01X5024089Y7069343D01*
G01X5023508Y7071746D01*
G01X5023508Y7114202D01*
G03X5050000Y7120982I1499J49291D01*
G03X5100000Y7120989I24994J42511D01*
G03X5174320Y7163493I25006J42504D01*
G01X5174320Y7286493D01*
G03X5130777Y7335468I-49314J0D01*
G01X5165105Y7369795D01*
G03X5179314Y7404100I-34305J34305D01*
G01X5179455Y7530299D01*
G01X5262900Y7530299D01*
G03X5298056Y7559277I0J35814D01*
G02X5301000Y7559650I2944J-11438D01*
G01X5316200Y7559650D01*
G02X5319552Y7559164I0J-11811D01*
G03X5354300Y7532026I34747J8676D01*
G01X5440700Y7532026D01*
G03X5450586Y7533417I0J35814D01*
G01X5450586Y7389114D01*
G01X5245100Y7389114D01*
G03X5210795Y7374905I0J-48514D01*
G01X5190701Y7354810D01*
G03X5176494Y7320990I34305J-34305D01*
G01X5176102Y7301811D01*
G01X5175705Y7287483D01*
G01X5175692Y7286493D01*
G01X5175692Y7163493D01*
G03X5274320Y7163493I49314J0D01*
G01X5274320Y7286493D01*
G01X5274306Y7287483D01*
G01X5274179Y7292086D01*
G01X5473700Y7292086D01*
G03X5508005Y7306295I0J48514D01*
G01X5533405Y7331695D01*
G03X5547614Y7366000I-34305J34305D01*
G01X5547614Y7653416D01*
G01X7581900Y7653416D01*
G03X7617714Y7689230I0J35814D01*
G01X7617714Y7842997D01*
G03X7870208Y7982558I115938J88430D01*
G03X7588146Y7921965I-136555J-51130D01*
G03X7581900Y7922514I-6246J-35265D01*
G01X3200370Y7922514D01*
G03X3164811Y7890969I0J-35814D01*
G03X3160536Y7874000I31539J-16969D01*
G01X3160536Y5980204D01*
G03X3160536Y5932396I61856J-23904D01*
G01X3160536Y3784600D01*
G03X3196350Y3748786I35814J0D01*
G01X3403600Y3748786D01*
G03X3439414Y3784600I0J35814D01*
G01X3439414Y6114227D01*
G03X3515339Y6173762I9886J65573D01*
G01X3515742Y6176409D01*
G01X3516242Y6178132D01*
G01X3855990Y6517881D01*
G01X3972771Y6517881D01*
G01X3775695Y6320805D01*
G03X3761486Y6286500I34305J-34305D01*
G01X3761486Y3576959D01*
G01X6525103Y7020814D02*
G01X6362700Y7020814D01*
G03X6326886Y6985000I0J-35814D01*
G01X6326886Y6426200D01*
G03X6362700Y6390386I35814J0D01*
G01X6525103Y6390386D01*
G03X6542786Y6395056I0J35814D01*
G01X6542786Y3683000D01*
G03X6564435Y3630735I73914J0D01*
G01X6923786Y3271384D01*
G01X6923786Y3200400D01*
G03X7071614Y3200400I73914J0D01*
G01X7071614Y3302000D01*
G03X7049965Y3354265I-73914J0D01*
G01X6690614Y3713616D01*
G01X6690614Y7144884D01*
G01X6897565Y7351835D01*
G03X6793035Y7456365I-52265J52265D01*
G01X6564435Y7227765D01*
G03X6542786Y7175500I52265J-52265D01*
G01X6542786Y7016144D01*
G03X6525103Y7020814I-17683J-31144D01*
G01X7517284Y5373914D02*
G01X6953185Y5373914D01*
G01X6948195Y5374214D01*
G01X6943653Y5374971D01*
G01X6938749Y5376238D01*
G01X6933885Y5377900D01*
G01X6929450Y5379774D01*
G01X6925863Y5381598D01*
G01X6923658Y5382948D01*
G01X6922246Y5384026D01*
G03X6897746Y5400000I-72245J-84026D01*
G03X6850000Y5610814I-47746J100000D01*
G03X6802254Y5400000I0J-110814D01*
G03X6757175Y5239475I47746J-100000D01*
G03X6922246Y5215974I92825J60525D01*
G01X6923658Y5217052D01*
G01X6925863Y5218401D01*
G01X6929450Y5220225D01*
G01X6933885Y5222099D01*
G01X6938749Y5223762D01*
G01X6943653Y5225029D01*
G01X6948195Y5225785D01*
G01X6953185Y5226086D01*
G01X7547900Y5226086D01*
G03X7600165Y5247735I0J73914D01*
G01X7702265Y5349835D01*
G03X7723914Y5402100I-52265J52265D01*
G01X7723914Y6396814D01*
G01X7724215Y6401805D01*
G01X7724971Y6406347D01*
G01X7726238Y6411251D01*
G01X7727900Y6416115D01*
G01X7729775Y6420550D01*
G01X7731599Y6424137D01*
G01X7732948Y6426342D01*
G01X7734026Y6427754D01*
G03X7750000Y6452253I-84026J72245D01*
G03X7944941Y6442852I100000J47746D01*
G03X7845385Y6610718I-94941J57148D01*
G03X7846314Y6622400I-72985J11682D01*
G01X7846314Y7010400D01*
G03X7824665Y7062665I-73914J0D01*
G01X7741975Y7145355D01*
G03X7734472Y7151908I-52265J-52265D01*
G01X7734472Y7198781D01*
G03X7698658Y7234595I-35814J0D01*
G01X7554052Y7234595D01*
G01X7554052Y7595771D01*
G03X7518238Y7631585I-35814J0D01*
G01X7356669Y7631585D01*
G03X7320855Y7595771I0J-35814D01*
G01X7320855Y7225351D01*
G03X7309054Y7198781I24014J-26570D01*
G01X7309054Y7033681D01*
G03X7320263Y7007657I35814J0D01*
G01X7320263Y6343990D01*
G03X7014186Y6275000I-145263J-68991D01*
G03X7320263Y6206009I160814J0D01*
G01X7320263Y5790726D01*
G03X7356077Y5754912I35814J0D01*
G01X7518400Y5754912D01*
G03X7554214Y5790726I0J35814D01*
G01X7554214Y5887789D01*
G03X7576086Y5910891I-35814J55811D01*
G01X7576086Y5432716D01*
G01X7517284Y5373914D01*
G01X7014186Y4725000D02*
G03X7335814Y4725000I160814J0D01*
G03X7014186Y4725000I-160814J0D01*
G01X8065329Y8045082D02*
G03X7849211Y8153142I-108059J54030D01*
G03X8065329Y8045082I108059J-54030D01*
G01X8490170Y7553168D02*
G03X8229330Y7683588I-130420J65210D01*
G03X8490170Y7553168I130420J-65210D01*
G01X8364186Y6275000D02*
G03X8685814Y6275000I160814J0D01*
G03X8364186Y6275000I-160814J0D01*
G01X8364186Y4725000D02*
G03X8685814Y4725000I160814J0D01*
G03X8364186Y4725000I-160814J0D01*
G01X4307081Y7653416D02*
G03X4364584Y7646060I36319J55484D01*
G01X4364584Y7186916D01*
G03X4378793Y7152611I48514J0D01*
G01X4425264Y7106140D01*
G03X4463507Y7025692I38243J-31134D01*
G01X4586507Y7025692D01*
G03X4628966Y7049924I0J49314D01*
G01X4826480Y6852411D01*
G01X4826480Y6485799D01*
G03X4800000Y6479011I-1473J-49292D01*
G03X4776410Y6485801I-25006J-42504D01*
G01X4784105Y6493495D01*
G03X4798314Y6527800I-34305J34305D01*
G01X4798314Y6649607D01*
G03X4784105Y6683911I-48514J0D01*
G01X4758705Y6709311D01*
G03X4724400Y6723521I-34305J-34305D01*
G01X4635799Y6723521D01*
G03X4629011Y6750000I-49292J1473D01*
G03X4629018Y6800000I-42504J25006D01*
G03X4629011Y6850000I-42511J24994D01*
G03X4629018Y6900000I-42504J25006D01*
G03X4629011Y6950000I-42511J24994D01*
G03X4586507Y7024320I-42504J25006D01*
G01X4463507Y7024320D01*
G01X4462623Y7024309D01*
G01X4446545Y7023912D01*
G01X4425080Y7023520D01*
G01X4290314Y7023520D01*
G01X4290314Y7408745D01*
G01X4291179Y7410316D01*
G01X4292766Y7412473D01*
G03X4241800Y7521214I-50966J42427D01*
G03X4190834Y7412473I0J-66314D01*
G01X4192421Y7410316D01*
G01X4193286Y7408745D01*
G01X4193286Y6997700D01*
G03X4207495Y6963395I48514J0D01*
G01X4230189Y6940702D01*
G03X4264494Y6926492I34305J34305D01*
G01X4414216Y6926492D01*
G03X4420996Y6900000I49291J-1499D01*
G03X4414216Y6873508I42511J-24994D01*
G01X4155201Y6873508D01*
G01X3641105Y7387605D01*
G03X3606800Y7401814I-34305J-34305D01*
G01X3589455Y7401814D01*
G01X3587884Y7402679D01*
G01X3585727Y7404266D01*
G03X3476986Y7353300I-42427J-50966D01*
G03X3585727Y7302334I66314J0D01*
G01X3587703Y7303788D01*
G01X4067970Y6823521D01*
G01X3989289Y6823521D01*
G01X3615705Y7197105D01*
G03X3581400Y7211314I-34305J-34305D01*
G01X3576755Y7211314D01*
G01X3575184Y7212179D01*
G01X3573027Y7213766D01*
G03X3464369Y7166110I-42427J-50966D01*
G03X3567733Y7107858I66231J-3310D01*
G01X3934889Y6740702D01*
G03X3969193Y6726493I34305J34305D01*
G01X4414216Y6726493D01*
G03X4420996Y6700000I49291J-1499D01*
G03X4414491Y6680414I42511J-24994D01*
G01X3919655Y6680414D01*
G01X3918084Y6681280D01*
G01X3915927Y6682866D01*
G03X3834973Y6685875I-42427J-50966D01*
G03X3811514Y6608337I38527J-53975D01*
G03X3801590Y6600699I24381J-41943D01*
G01X3447632Y6246742D01*
G01X3445909Y6246242D01*
G01X3443262Y6245839D01*
G03X3439414Y6245373I6038J-66039D01*
G01X3439414Y7653416D01*
G01X4307081Y7653416D01*
G01X4742627Y7653416D02*
G03X4742613Y7633740I65573J-9886D01*
G03X4678695Y7568871I2382J-66271D01*
G01X4678570Y7567361D01*
G01X4677980Y7563341D01*
G01X4677891Y7562693D01*
G01X4677130Y7556760D01*
G03X4676893Y7554165I35523J-4554D01*
G01X4676848Y7553343D01*
G03X4676493Y7547481I48159J-5862D01*
G01X4676493Y7431716D01*
G01X4613541Y7494668D01*
G01X4613042Y7496391D01*
G01X4612639Y7499038D01*
G03X4499709Y7539891I-66039J-6038D01*
G03X4540562Y7426961I46891J-46891D01*
G01X4543209Y7426558D01*
G01X4544932Y7426059D01*
G01X4626480Y7344511D01*
G01X4626480Y7324920D01*
G01X4626088Y7303455D01*
G01X4625691Y7287377D01*
G01X4625680Y7286493D01*
G01X4625680Y7190429D01*
G01X4613541Y7202568D01*
G01X4613042Y7204291D01*
G01X4612639Y7206938D01*
G03X4536525Y7266444I-66039J-6038D01*
G03X4481797Y7186826I10075J-65544D01*
G01X4461612Y7207011D01*
G01X4461612Y7653416D01*
G01X4742627Y7653416D01*
G01X4643860Y6275264D02*
G03X4717893Y6289185I31134J38243D01*
G01X4717893Y6053761D01*
G03X4706521Y6055614I-11372J-33961D01*
G01X4582414Y6055614D01*
G01X4582414Y6213818D01*
G01X4643860Y6275264D01*
G01X4724308Y6436507D02*
G01X4724254Y6438812D01*
G01X4725769Y6439474D01*
G03X4725680Y6436507I49225J-2967D01*
G01X4725680Y6392781D01*
G03X4724308Y6390531I40727J-26361D01*
G01X4724308Y6436507D01*
G04 Copper End*

G04 Rect Start*
G36*
G01X3200370Y7689230D02*
G01X3200370Y7886700D01*
G01X7581900Y7886700D01*
G01X7581900Y7689230D01*
G01X3200370Y7689230D01*
G37*
G36*
G01X7698658Y7198781D02*
G01X7698658Y7033681D01*
G01X7344868Y7033681D01*
G01X7344868Y7198781D01*
G01X7698658Y7198781D01*
G37*
G36*
G01X7699668Y6998812D02*
G01X7699668Y6871212D01*
G01X7357568Y6871212D01*
G01X7357568Y6998812D01*
G01X7699668Y6998812D01*
G37*
G36*
G01X3196350Y3784600D02*
G01X3196350Y7874000D01*
G01X3403600Y7874000D01*
G01X3403600Y3784600D01*
G01X3196350Y3784600D01*
G37*
G36*
G01X7518238Y7595771D02*
G01X7518238Y7041251D01*
G01X7356669Y7041251D01*
G01X7356669Y7595771D01*
G01X7518238Y7595771D01*
G37*
G36*
G01X7356077Y5790726D02*
G01X7356077Y7010400D01*
G01X7518400Y7010400D01*
G01X7518400Y5790726D01*
G01X7356077Y5790726D01*
G37*
G36*
G01X6362700Y6426200D02*
G01X6362700Y6985000D01*
G01X6525103Y6985000D01*
G01X6525103Y6426200D01*
G01X6362700Y6426200D01*
G37*
G36*
G01X4393715Y5803130D02*
G01X4393715Y6019800D01*
G01X4706521Y6019800D01*
G01X4706521Y5803130D01*
G01X4393715Y5803130D01*
G37*
G36*
G01X5426252Y5803130D02*
G01X5426252Y6013829D01*
G01X5879883Y6013829D01*
G01X5879883Y5803130D01*
G01X5426252Y5803130D01*
G37*
G04 Rect End*

G04 TearDrop Start*
G36*
G01X5846298Y6096000D02*
G01X5846298Y6121400D01*
G03X5884398Y6140450I0J47625D01*
G01X5884398Y6076950D01*
G03X5846298Y6096000I-38100J-28575D01*
G37*
G36*
G01X5937098Y6025600D02*
G01X5911698Y6025600D01*
G03X5892648Y6063700I-47625J0D01*
G01X5956148Y6063700D01*
G03X5937098Y6025600I28575J-38100D01*
G37*
G36*
G01X5860898Y6483900D02*
G01X5886298Y6483900D01*
G03X5905348Y6445800I47625J0D01*
G01X5841848Y6445800D01*
G03X5860898Y6483900I-28575J38100D01*
G37*
G36*
G01X6020972Y6483900D02*
G01X6046372Y6483900D01*
G03X6053602Y6445800I104002J0D01*
G01X6001922Y6445800D01*
G03X6020972Y6483900I-28575J38100D01*
G37*
G36*
G01X6046372Y6998437D02*
G01X6020972Y6998437D01*
G03X6001922Y7036537I-47625J0D01*
G01X6058673Y7036537D01*
G03X6046372Y6998437I52852J-38100D01*
G37*
G36*
G01X4470002Y7747000D02*
G01X4470002Y7772400D01*
G03X4508102Y7791450I0J47625D01*
G01X4508102Y7727950D01*
G03X4470002Y7747000I-38100J-28575D01*
G37*
G36*
G01X5553886Y5933948D02*
G01X5602921Y5947063D01*
G03X5582200Y5913902I61457J-61457D01*
G01X5520050Y5913902D01*
G03X5553886Y5933948I-22246J76128D01*
G37*
G36*
G01X4521200Y5939302D02*
G01X4546600Y5939302D01*
G03X4565650Y5901202I47625J0D01*
G01X4502150Y5901202D01*
G03X4521200Y5939302I-28575J38100D01*
G37*
G36*
G01X5715000Y6173560D02*
G01X5740400Y6173560D01*
G03X5759450Y6135460I47625J0D01*
G01X5695950Y6135460D01*
G03X5715000Y6173560I-28575J38100D01*
G37*
G36*
G01X5809000Y6121400D02*
G01X5809000Y6096000D01*
G03X5770900Y6076950I0J-47625D01*
G01X5770900Y6135460D01*
G03X5809000Y6121400I38100J44591D01*
G37*
G36*
G01X5140496Y7548235D02*
G01X5162859Y7606519D01*
G03X5176500Y7646760I-52535J40241D01*
G01X5176500Y7566113D01*
G03X5140496Y7548235I8569J-62450D01*
G37*
G36*
G01X5301000Y7620864D02*
G01X5301000Y7595464D01*
G03X5262900Y7576414I0J-47625D01*
G01X5262900Y7639914D01*
G03X5301000Y7620864I38100J28575D01*
G37*
G36*
G01X5316200Y7595464D02*
G01X5316200Y7620864D01*
G03X5354300Y7639914I0J47625D01*
G01X5354300Y7576414D01*
G03X5316200Y7595464I-38100J-28575D01*
G37*
G36*
G01X5474593Y6887706D02*
G01X5474593Y6862306D01*
G01X5452686Y6861906D01*
G01X5436493Y6861506D01*
G01X5436493Y6888506D01*
G01X5452686Y6888106D01*
G01X5474593Y6887706D01*
G37*
G36*
G01X5474593Y6837694D02*
G01X5474593Y6812294D01*
G01X5452686Y6811894D01*
G01X5436493Y6811494D01*
G01X5436493Y6838494D01*
G01X5452686Y6838094D01*
G01X5474593Y6837694D01*
G37*
G36*
G01X5474593Y6787707D02*
G01X5474593Y6762307D01*
G01X5452686Y6761906D01*
G01X5436493Y6761506D01*
G01X5436493Y6788507D01*
G01X5452686Y6788107D01*
G01X5474593Y6787707D01*
G37*
G36*
G01X5474593Y6687707D02*
G01X5474593Y6662307D01*
G01X5452686Y6661907D01*
G01X5436493Y6661507D01*
G01X5436493Y6688507D01*
G01X5452686Y6688107D01*
G01X5474593Y6687707D01*
G37*
G36*
G01X5473700Y6591300D02*
G01X5473700Y6565900D01*
G01X5462661Y6565214D01*
G01X5452325Y6563703D01*
G01X5443374Y6562193D01*
G01X5436493Y6561507D01*
G01X5436493Y6588507D01*
G01X5443361Y6588943D01*
G01X5452313Y6589904D01*
G01X5462657Y6590864D01*
G01X5473700Y6591300D01*
G37*
G36*
G01X5460270Y6508390D02*
G01X5434716Y6498024D01*
G01X5430235Y6501697D01*
G01X5425053Y6504675D01*
G01X5419440Y6507022D01*
G01X5413664Y6508800D01*
G01X5407993Y6510074D01*
G01X5402697Y6510905D01*
G01X5394304Y6511494D01*
G01X5436493Y6538494D01*
G01X5437906Y6538275D01*
G01X5439275Y6537643D01*
G01X5441929Y6535306D01*
G01X5444546Y6531811D01*
G01X5447217Y6527484D01*
G01X5453088Y6517641D01*
G01X5456469Y6512778D01*
G01X5460270Y6508390D01*
G37*
G36*
G01X5237706Y6275408D02*
G01X5212306Y6275408D01*
G01X5211906Y6297315D01*
G01X5211506Y6313508D01*
G01X5238506Y6313508D01*
G01X5238106Y6297315D01*
G01X5237706Y6275408D01*
G37*
G36*
G01X5196306Y6275408D02*
G01X5170906Y6275408D01*
G01X5170501Y6281098D01*
G01X5169435Y6286686D01*
G01X5166199Y6297229D01*
G01X5162964Y6306386D01*
G01X5161897Y6310242D01*
G01X5161493Y6313508D01*
G01X5188493Y6313508D01*
G01X5188829Y6310262D01*
G01X5189714Y6306416D01*
G01X5192400Y6297256D01*
G01X5195085Y6286696D01*
G01X5195970Y6281101D01*
G01X5196306Y6275408D01*
G37*
G36*
G01X5137706Y6280706D02*
G01X5112306Y6280706D01*
G01X5111906Y6299566D01*
G01X5111506Y6313508D01*
G01X5138506Y6313508D01*
G01X5138106Y6299566D01*
G01X5137706Y6280706D01*
G37*
G36*
G01X5054600Y6474607D02*
G01X5080000Y6474607D01*
G01X5080365Y6468915D01*
G01X5081327Y6463322D01*
G01X5084247Y6452770D01*
G01X5087166Y6443611D01*
G01X5088129Y6439761D01*
G01X5088494Y6436507D01*
G01X5061493Y6436507D01*
G01X5061197Y6439742D01*
G01X5060416Y6443584D01*
G01X5058047Y6452746D01*
G01X5055677Y6463313D01*
G01X5054896Y6468912D01*
G01X5054600Y6474607D01*
G37*
G36*
G01X5037706Y6275408D02*
G01X5012306Y6275408D01*
G01X5011906Y6297315D01*
G01X5011506Y6313508D01*
G01X5038506Y6313508D01*
G01X5038106Y6297315D01*
G01X5037706Y6275408D01*
G37*
G36*
G01X4990209Y6275408D02*
G01X4964809Y6275408D01*
G01X4964291Y6286714D01*
G01X4963152Y6297304D01*
G01X4962012Y6306471D01*
G01X4961494Y6313508D01*
G01X4988494Y6313508D01*
G01X4989352Y6297312D01*
G01X4989942Y6286717D01*
G01X4990209Y6275408D01*
G37*
G36*
G01X4937706Y6275408D02*
G01X4912306Y6275408D01*
G01X4911906Y6297315D01*
G01X4911506Y6313508D01*
G01X4938507Y6313508D01*
G01X4938106Y6297315D01*
G01X4937706Y6275408D01*
G37*
G36*
G01X4862294Y6474607D02*
G01X4887694Y6474607D01*
G01X4888094Y6452700D01*
G01X4888494Y6436507D01*
G01X4861494Y6436507D01*
G01X4861894Y6452700D01*
G01X4862294Y6474607D01*
G37*
G36*
G01X4838700Y6275408D02*
G01X4813300Y6275408D01*
G01X4813020Y6286717D01*
G01X4812403Y6297312D01*
G01X4811507Y6313508D01*
G01X4838507Y6313508D01*
G01X4838700Y6275408D01*
G37*
G36*
G01X4779107Y6275408D02*
G01X4753707Y6275408D01*
G01X4754042Y6281101D01*
G01X4754924Y6286696D01*
G01X4757600Y6297256D01*
G01X4760277Y6306416D01*
G01X4761159Y6310262D01*
G01X4761494Y6313508D01*
G01X4788494Y6313508D01*
G01X4788091Y6310242D01*
G01X4787027Y6306387D01*
G01X4783800Y6297230D01*
G01X4780574Y6286686D01*
G01X4779510Y6281098D01*
G01X4779107Y6275408D01*
G37*
G36*
G01X4737707Y6275408D02*
G01X4712307Y6275408D01*
G01X4711907Y6297315D01*
G01X4711507Y6313508D01*
G01X4738507Y6313508D01*
G01X4738107Y6297315D01*
G01X4737707Y6275408D01*
G37*
G36*
G01X4627659Y6309711D02*
G01X4641448Y6359422D01*
G01X4649127Y6368149D01*
G01X4655512Y6377431D01*
G01X4657993Y6381936D01*
G01X4659877Y6386168D01*
G01X4661075Y6389987D01*
G01X4661494Y6393257D01*
G01X4661494Y6329757D01*
G01X4661232Y6330947D01*
G01X4660482Y6331596D01*
G01X4659295Y6331752D01*
G01X4657723Y6331459D01*
G01X4653630Y6329713D01*
G01X4648618Y6326725D01*
G01X4637492Y6318496D01*
G01X4627659Y6309711D01*
G37*
G36*
G01X4425407Y6502400D02*
G01X4425407Y6527800D01*
G01X4431096Y6528259D01*
G01X4436677Y6529471D01*
G01X4442073Y6531184D01*
G01X4447204Y6533147D01*
G01X4456359Y6536823D01*
G01X4460223Y6538035D01*
G01X4463507Y6538494D01*
G01X4463507Y6511494D01*
G01X4460246Y6511104D01*
G01X4456392Y6510073D01*
G01X4447235Y6506947D01*
G01X4436688Y6503821D01*
G01X4431099Y6502791D01*
G01X4425407Y6502400D01*
G37*
G36*
G01X4425407Y6553695D02*
G01X4425407Y6579095D01*
G01X4431098Y6579499D01*
G01X4436686Y6580565D01*
G01X4447229Y6583801D01*
G01X4456386Y6587036D01*
G01X4460242Y6588103D01*
G01X4463507Y6588507D01*
G01X4463507Y6561507D01*
G01X4460262Y6561171D01*
G01X4456416Y6560286D01*
G01X4447256Y6557601D01*
G01X4436696Y6554915D01*
G01X4431101Y6554030D01*
G01X4425407Y6553695D01*
G37*
G36*
G01X4450565Y6616700D02*
G01X4450565Y6642100D01*
G01X4454394Y6641537D01*
G01X4457970Y6640297D01*
G01X4461080Y6639058D01*
G01X4463507Y6638494D01*
G01X4463507Y6611494D01*
G01X4461036Y6612308D01*
G01X4457931Y6614097D01*
G01X4454379Y6615887D01*
G01X4452493Y6616476D01*
G01X4450565Y6616700D01*
G37*
G36*
G01X4624607Y6687707D02*
G01X4624607Y6662307D01*
G01X4602700Y6661907D01*
G01X4586507Y6661507D01*
G01X4586507Y6688507D01*
G01X4602700Y6688107D01*
G01X4624607Y6687707D01*
G37*
G36*
G01X4425407Y6762307D02*
G01X4425407Y6787707D01*
G01X4447314Y6788107D01*
G01X4463507Y6788507D01*
G01X4463507Y6761506D01*
G01X4447314Y6761906D01*
G01X4425407Y6762307D01*
G37*
G36*
G01X4425407Y6812294D02*
G01X4425407Y6837694D01*
G01X4447314Y6838094D01*
G01X4463507Y6838494D01*
G01X4463507Y6811494D01*
G01X4447314Y6811894D01*
G01X4425407Y6812294D01*
G37*
G36*
G01X4425407Y6962306D02*
G01X4425407Y6987706D01*
G01X4447314Y6988106D01*
G01X4463507Y6988506D01*
G01X4463507Y6961506D01*
G01X4447314Y6961906D01*
G01X4425407Y6962306D01*
G37*
G36*
G01X4459711Y7122342D02*
G01X4509422Y7108552D01*
G01X4518148Y7100874D01*
G01X4527431Y7094488D01*
G01X4531936Y7092007D01*
G01X4536167Y7090123D01*
G01X4539987Y7088925D01*
G01X4543257Y7088506D01*
G01X4479757Y7088506D01*
G01X4480947Y7088768D01*
G01X4481596Y7089518D01*
G01X4481752Y7090705D01*
G01X4481459Y7092277D01*
G01X4479712Y7096370D01*
G01X4476725Y7101383D01*
G01X4468496Y7112509D01*
G01X4459711Y7122342D01*
G37*
G36*
G01X4662294Y7324593D02*
G01X4687694Y7324593D01*
G01X4688094Y7302686D01*
G01X4688494Y7286493D01*
G01X4661494Y7286493D01*
G01X4661894Y7302686D01*
G01X4662294Y7324593D01*
G37*
G36*
G01X4712307Y7324593D02*
G01X4737707Y7324593D01*
G01X4738107Y7302686D01*
G01X4738507Y7286493D01*
G01X4711507Y7286493D01*
G01X4711907Y7302686D01*
G01X4712307Y7324593D01*
G37*
G36*
G01X4770906Y7324593D02*
G01X4796306Y7324593D01*
G01X4795971Y7318899D01*
G01X4795086Y7313304D01*
G01X4792400Y7302745D01*
G01X4789715Y7293584D01*
G01X4788830Y7289738D01*
G01X4788494Y7286493D01*
G01X4761494Y7286493D01*
G01X4761898Y7289758D01*
G01X4762965Y7293614D01*
G01X4766200Y7302771D01*
G01X4769436Y7313314D01*
G01X4770502Y7318902D01*
G01X4770906Y7324593D01*
G37*
G36*
G01X4812307Y7324593D02*
G01X4837707Y7324593D01*
G01X4838107Y7302686D01*
G01X4838507Y7286493D01*
G01X4811507Y7286493D01*
G01X4811907Y7302686D01*
G01X4812307Y7324593D01*
G37*
G36*
G01X4862294Y7324593D02*
G01X4887694Y7324593D01*
G01X4888094Y7302686D01*
G01X4888494Y7286493D01*
G01X4861494Y7286493D01*
G01X4861894Y7302686D01*
G01X4862294Y7324593D01*
G37*
G36*
G01X4912306Y7324593D02*
G01X4937706Y7324593D01*
G01X4938106Y7302686D01*
G01X4938507Y7286493D01*
G01X4911506Y7286493D01*
G01X4911906Y7302686D01*
G01X4912306Y7324593D01*
G37*
G36*
G01X4987694Y7125393D02*
G01X4962294Y7125393D01*
G01X4961894Y7147300D01*
G01X4961494Y7163493D01*
G01X4988494Y7163493D01*
G01X4988094Y7147300D01*
G01X4987694Y7125393D01*
G37*
G36*
G01X5030310Y7321570D02*
G01X5061770Y7317110D01*
G01X5053589Y7308861D01*
G01X5046097Y7300644D01*
G01X5043026Y7296718D01*
G01X5040626Y7293006D01*
G01X5039064Y7289574D01*
G01X5038506Y7286493D01*
G01X5011506Y7286493D01*
G01X5011872Y7289843D01*
G01X5012929Y7293816D01*
G01X5014614Y7298248D01*
G01X5016867Y7302975D01*
G01X5019624Y7307835D01*
G01X5022826Y7312663D01*
G01X5026408Y7317296D01*
G01X5030310Y7321570D01*
G37*
G36*
G01X5212306Y7320506D02*
G01X5237706Y7320506D01*
G01X5238106Y7300949D01*
G01X5238506Y7286493D01*
G01X5211506Y7286493D01*
G01X5211906Y7300949D01*
G01X5212306Y7320506D01*
G37*
G36*
G01X1152108Y5325400D02*
G01X1152108Y5274600D01*
G01X1148158Y5274342D01*
G01X1144197Y5273605D01*
G01X1136330Y5270912D01*
G01X1128676Y5266963D01*
G01X1121408Y5262196D01*
G01X1114696Y5257051D01*
G01X1108711Y5251968D01*
G01X1099608Y5243750D01*
G01X1099608Y5356250D01*
G01X1108711Y5348031D01*
G01X1114696Y5342949D01*
G01X1121408Y5337804D01*
G01X1128676Y5333037D01*
G01X1136330Y5329087D01*
G01X1144197Y5326395D01*
G01X1148158Y5325658D01*
G01X1152108Y5325400D01*
G37*
G36*
G01X1875400Y6397892D02*
G01X1824600Y6397892D01*
G01X1824342Y6401842D01*
G01X1823605Y6405803D01*
G01X1820912Y6413670D01*
G01X1816963Y6421324D01*
G01X1812196Y6428592D01*
G01X1807051Y6435304D01*
G01X1801968Y6441289D01*
G01X1793750Y6450392D01*
G01X1906250Y6450392D01*
G01X1898031Y6441289D01*
G01X1892949Y6435304D01*
G01X1887804Y6428592D01*
G01X1883037Y6421324D01*
G01X1879087Y6413670D01*
G01X1876395Y6405803D01*
G01X1875658Y6401842D01*
G01X1875400Y6397892D01*
G37*
G36*
G01X6952108Y5338100D02*
G01X6952108Y5261900D01*
G01X6944164Y5261421D01*
G01X6936217Y5260097D01*
G01X6928465Y5258095D01*
G01X6921108Y5255581D01*
G01X6914344Y5252722D01*
G01X6908373Y5249686D01*
G01X6903395Y5246639D01*
G01X6899608Y5243750D01*
G01X6899608Y5356250D01*
G01X6903395Y5353360D01*
G01X6908373Y5350314D01*
G01X6914344Y5347278D01*
G01X6921108Y5344419D01*
G01X6928465Y5341905D01*
G01X6936217Y5339902D01*
G01X6944164Y5338578D01*
G01X6952108Y5338100D01*
G37*
G36*
G01X7688100Y6397892D02*
G01X7611900Y6397892D01*
G01X7611421Y6405836D01*
G01X7610097Y6413783D01*
G01X7608095Y6421535D01*
G01X7605581Y6428892D01*
G01X7602722Y6435656D01*
G01X7599686Y6441627D01*
G01X7596640Y6446605D01*
G01X7593750Y6450392D01*
G01X7706250Y6450392D01*
G01X7703360Y6446605D01*
G01X7700314Y6441627D01*
G01X7697278Y6435656D01*
G01X7694419Y6428892D01*
G01X7691905Y6421535D01*
G01X7689903Y6413783D01*
G01X7688578Y6405836D01*
G01X7688100Y6397892D01*
G37*
G36*
G01X7695260Y6599142D02*
G01X7749142Y6545260D01*
G01X7743863Y6539305D01*
G01X7739180Y6532749D01*
G01X7735115Y6525852D01*
G01X7731690Y6518871D01*
G01X7728928Y6512067D01*
G01X7726853Y6505699D01*
G01X7725487Y6500024D01*
G01X7724853Y6495303D01*
G01X7645303Y6574853D01*
G01X7650024Y6575487D01*
G01X7655699Y6576853D01*
G01X7662067Y6578928D01*
G01X7668871Y6581690D01*
G01X7675852Y6585115D01*
G01X7682749Y6589180D01*
G01X7689305Y6593863D01*
G01X7695260Y6599142D01*
G37*
G36*
G01X5960202Y6904154D02*
G01X5968163Y6932114D01*
G03X6008574Y6918644I40411J53882D01*
G01X5973672Y6863742D01*
G03X5960202Y6904154I-67352J0D01*
G37*
G36*
G01X6020972Y6956744D02*
G01X6046372Y6956744D01*
G03X6065422Y6918644I47625J0D01*
G01X6001922Y6918644D01*
G03X6020972Y6956744I-28575J38100D01*
G37*
G36*
G01X5961889Y6732465D02*
G01X6011599Y6718675D01*
G03X6045435Y6698629I56082J56082D01*
G01X5981935Y6698629D01*
G03X5961889Y6732465I-76128J-22246D01*
G37*
G36*
G01X6046372Y6520529D02*
G01X6020972Y6520529D01*
G03X6001922Y6558629I-47625J0D01*
G01X6065422Y6558629D01*
G03X6046372Y6520529I28575J-38100D01*
G37*
G36*
G01X5790200Y6684139D02*
G01X5798160Y6712099D01*
G03X5838572Y6698629I40411J53882D01*
G01X5803670Y6643728D01*
G03X5790200Y6684139I-67352J0D01*
G37*
G36*
G01X5886298Y6520529D02*
G01X5860898Y6520529D01*
G03X5841848Y6558629I-47625J0D01*
G01X5905348Y6558629D01*
G03X5886298Y6520529I28575J-38100D01*
G37*
G36*
G01X5937140Y6793134D02*
G01X5929180Y6765174D01*
G03X5888769Y6778644I-40411J-53882D01*
G01X5923670Y6833545D01*
G03X5937140Y6793134I67352J0D01*
G37*
G36*
G01X3449172Y8559767D02*
G01X3470187Y8574673D01*
G01X3473241Y8572162D01*
G01X3476787Y8570163D01*
G01X3480750Y8568625D01*
G01X3485061Y8567499D01*
G01X3494430Y8566277D01*
G01X3504313Y8566092D01*
G01X3514131Y8566539D01*
G01X3523302Y8567214D01*
G01X3531247Y8567711D01*
G01X3537386Y8567626D01*
G01X3454840Y8491190D01*
G01X3455110Y8497478D01*
G01X3455902Y8505621D01*
G01X3456815Y8515019D01*
G01X3457449Y8525070D01*
G01X3457403Y8535171D01*
G01X3456275Y8544723D01*
G01X3455180Y8549104D01*
G01X3453665Y8553122D01*
G01X3451679Y8556701D01*
G01X3449172Y8559767D01*
G37*
G36*
G01X3274910Y8457139D02*
G01X3292871Y8475099D01*
G01X3295931Y8472590D01*
G01X3299494Y8470599D01*
G01X3303486Y8469074D01*
G01X3307833Y8467966D01*
G01X3317296Y8466796D01*
G01X3327292Y8466687D01*
G01X3337231Y8467233D01*
G01X3346520Y8468032D01*
G01X3354570Y8468679D01*
G01X3360788Y8468770D01*
G01X3281239Y8389221D01*
G01X3281331Y8395440D01*
G01X3281978Y8403489D01*
G01X3282776Y8412779D01*
G01X3283323Y8422717D01*
G01X3283213Y8432714D01*
G01X3282043Y8442177D01*
G01X3280935Y8446524D01*
G01X3279411Y8450515D01*
G01X3277419Y8454079D01*
G01X3274910Y8457139D01*
G37*
G36*
G01X3748805Y8691241D02*
G01X3802686Y8637359D01*
G01X3797408Y8631404D01*
G01X3792724Y8624848D01*
G01X3788659Y8617951D01*
G01X3785234Y8610970D01*
G01X3782473Y8604166D01*
G01X3780398Y8597798D01*
G01X3779031Y8592123D01*
G01X3778397Y8587402D01*
G01X3698848Y8666952D01*
G01X3703569Y8667586D01*
G01X3709243Y8668952D01*
G01X3715612Y8671027D01*
G01X3722416Y8673789D01*
G01X3729396Y8677214D01*
G01X3736294Y8681279D01*
G01X3742850Y8685962D01*
G01X3748805Y8691241D01*
G37*
G36*
G01X4584942Y7472618D02*
G01X4566982Y7454658D01*
G01X4563115Y7457288D01*
G01X4557414Y7459729D01*
G01X4550924Y7461610D01*
G01X4544690Y7462560D01*
G01X4577040Y7494910D01*
G01X4577990Y7488676D01*
G01X4579871Y7482186D01*
G01X4582312Y7476485D01*
G01X4584942Y7472618D01*
G37*
G36*
G01X4254500Y7413376D02*
G01X4229100Y7413376D01*
G01X4228225Y7417971D01*
G01X4225920Y7423728D01*
G01X4222661Y7429647D01*
G01X4218925Y7434726D01*
G01X4264675Y7434726D01*
G01X4260939Y7429647D01*
G01X4257680Y7423728D01*
G01X4255375Y7417971D01*
G01X4254500Y7413376D01*
G37*
G36*
G01X4737707Y7515768D02*
G01X4712307Y7545871D01*
G01X4712654Y7552207D01*
G01X4713414Y7558139D01*
G01X4714168Y7563276D01*
G01X4714496Y7567221D01*
G01X4748005Y7537118D01*
G01X4746084Y7536471D01*
G01X4744223Y7534996D01*
G01X4742484Y7532818D01*
G01X4740925Y7530063D01*
G01X4739607Y7526855D01*
G01X4738592Y7523320D01*
G01X4737938Y7519582D01*
G01X4737707Y7515768D01*
G37*
G36*
G01X4820900Y7602006D02*
G01X4795500Y7602006D01*
G01X4794626Y7606600D01*
G01X4792320Y7612357D01*
G01X4789061Y7618276D01*
G01X4785325Y7623356D01*
G01X4831075Y7623356D01*
G01X4827339Y7618276D01*
G01X4824080Y7612357D01*
G01X4821775Y7606600D01*
G01X4820900Y7602006D01*
G37*
G36*
G01X4978400Y7565776D02*
G01X4953000Y7565776D01*
G01X4952125Y7570371D01*
G01X4949820Y7576128D01*
G01X4946561Y7582047D01*
G01X4942825Y7587126D01*
G01X4988575Y7587126D01*
G01X4984839Y7582047D01*
G01X4981580Y7576128D01*
G01X4979275Y7570371D01*
G01X4978400Y7565776D01*
G37*
G36*
G01X4897100Y7489602D02*
G01X4871700Y7489602D01*
G01X4870826Y7494197D01*
G01X4868521Y7499954D01*
G01X4865262Y7505872D01*
G01X4861525Y7510952D01*
G01X4907275Y7510952D01*
G01X4903539Y7505872D01*
G01X4900280Y7499954D01*
G01X4897975Y7494197D01*
G01X4897100Y7489602D01*
G37*
G36*
G01X5034218Y7416558D02*
G01X5016258Y7434518D01*
G01X5018888Y7438385D01*
G01X5021329Y7444086D01*
G01X5023210Y7450576D01*
G01X5024160Y7456810D01*
G01X5056510Y7424460D01*
G01X5050276Y7423510D01*
G01X5043786Y7421629D01*
G01X5038085Y7419188D01*
G01X5034218Y7416558D01*
G37*
G36*
G01X4962294Y7083335D02*
G01X4987694Y7069394D01*
G01X4988204Y7065367D01*
G01X4989550Y7059799D01*
G01X4991453Y7053691D01*
G01X4993634Y7048044D01*
G01X4950060Y7061985D01*
G01X4952342Y7063663D01*
G01X4954552Y7065875D01*
G01X4958471Y7071397D01*
G01X4961242Y7077550D01*
G01X4962019Y7080551D01*
G01X4962294Y7083335D01*
G37*
G36*
G01X4912306Y5231496D02*
G01X4937706Y5222650D01*
G01X4938372Y5218545D01*
G01X4940127Y5212951D01*
G01X4942609Y5206869D01*
G01X4945453Y5201300D01*
G01X4900567Y5210146D01*
G01X4902756Y5212100D01*
G01X4904877Y5214509D01*
G01X4908638Y5220189D01*
G01X4911298Y5226185D01*
G01X4912043Y5228989D01*
G01X4912306Y5231496D01*
G37*
G36*
G01X5118100Y5036954D02*
G01X5143500Y5036954D01*
G01X5144375Y5032359D01*
G01X5146680Y5026602D01*
G01X5149939Y5020683D01*
G01X5153675Y5015604D01*
G01X5107925Y5015604D01*
G01X5111661Y5020683D01*
G01X5114920Y5026602D01*
G01X5117225Y5032359D01*
G01X5118100Y5036954D01*
G37*
G36*
G01X5034058Y5219012D02*
G01X5052018Y5236972D01*
G01X5055885Y5234342D01*
G01X5061586Y5231901D01*
G01X5068076Y5230020D01*
G01X5074310Y5229070D01*
G01X5041960Y5196720D01*
G01X5041009Y5202954D01*
G01X5039129Y5209443D01*
G01X5036688Y5215145D01*
G01X5034058Y5219012D01*
G37*
G36*
G01X5346700Y5604124D02*
G01X5372100Y5604124D01*
G01X5372975Y5599529D01*
G01X5375280Y5593772D01*
G01X5378539Y5587853D01*
G01X5382275Y5582774D01*
G01X5336525Y5582774D01*
G01X5340261Y5587853D01*
G01X5343520Y5593772D01*
G01X5345825Y5599529D01*
G01X5346700Y5604124D01*
G37*
G36*
G01X3469682Y6218142D02*
G01X3487642Y6200182D01*
G01X3485012Y6196315D01*
G01X3482571Y6190614D01*
G01X3480691Y6184124D01*
G01X3479740Y6177890D01*
G01X3447390Y6210240D01*
G01X3453624Y6211191D01*
G01X3460114Y6213071D01*
G01X3465815Y6215512D01*
G01X3469682Y6218142D01*
G37*
G36*
G01X3512882Y3277706D02*
G01X3530842Y3259745D01*
G01X3528212Y3255878D01*
G01X3525771Y3250177D01*
G01X3523890Y3243687D01*
G01X3522940Y3237454D01*
G01X3490590Y3269804D01*
G01X3496824Y3270754D01*
G01X3503314Y3272634D01*
G01X3509015Y3275075D01*
G01X3512882Y3277706D01*
G37*
G36*
G01X2011367Y2146300D02*
G01X2030417Y2120900D01*
G01X2027339Y2120622D01*
G01X2024129Y2119835D01*
G01X2020909Y2118612D01*
G01X2017807Y2117026D01*
G01X2014946Y2115149D01*
G01X2012453Y2113055D01*
G01X2010451Y2110815D01*
G01X2009067Y2108503D01*
G01X1990017Y2150098D01*
G01X2001405Y2147487D01*
G01X2007065Y2146626D01*
G01X2011367Y2146300D01*
G37*
G36*
G01X2739776Y6604000D02*
G01X2739776Y6629400D01*
G01X2744371Y6630275D01*
G01X2750128Y6632580D01*
G01X2756047Y6635839D01*
G01X2761126Y6639575D01*
G01X2761126Y6593825D01*
G01X2756047Y6597561D01*
G01X2750128Y6600820D01*
G01X2744371Y6603125D01*
G01X2739776Y6604000D01*
G37*
G36*
G01X3915024Y6644600D02*
G01X3915024Y6619200D01*
G01X3910429Y6618326D01*
G01X3904672Y6616021D01*
G01X3898753Y6612761D01*
G01X3893674Y6609025D01*
G01X3893674Y6654775D01*
G01X3898753Y6651039D01*
G01X3904672Y6647780D01*
G01X3910429Y6645475D01*
G01X3915024Y6644600D01*
G37*
G36*
G01X6311900Y4118224D02*
G01X6337300Y4118224D01*
G01X6338175Y4113629D01*
G01X6340480Y4107872D01*
G01X6343739Y4101953D01*
G01X6347475Y4096874D01*
G01X6301725Y4096874D01*
G01X6305461Y4101953D01*
G01X6308720Y4107872D01*
G01X6311025Y4113629D01*
G01X6311900Y4118224D01*
G37*
G36*
G01X4877517Y5007067D02*
G01X4895477Y4989107D01*
G01X4892847Y4985240D01*
G01X4890406Y4979539D01*
G01X4888526Y4973049D01*
G01X4887575Y4966815D01*
G01X4855225Y4999166D01*
G01X4861459Y5000116D01*
G01X4867949Y5001996D01*
G01X4873650Y5004437D01*
G01X4877517Y5007067D01*
G37*
G36*
G01X4732082Y5207242D02*
G01X4750042Y5189282D01*
G01X4747412Y5185415D01*
G01X4744971Y5179714D01*
G01X4743090Y5173224D01*
G01X4742140Y5166990D01*
G01X4709790Y5199340D01*
G01X4716024Y5200290D01*
G01X4722514Y5202171D01*
G01X4728215Y5204612D01*
G01X4732082Y5207242D01*
G37*
G36*
G01X5170906Y5328122D02*
G01X5196306Y5344164D01*
G01X5196583Y5341261D01*
G01X5197366Y5338175D01*
G01X5200163Y5331954D01*
G01X5204117Y5326500D01*
G01X5206347Y5324373D01*
G01X5208649Y5322814D01*
G01X5165803Y5306772D01*
G01X5167677Y5312368D01*
G01X5169311Y5318459D01*
G01X5170467Y5324044D01*
G01X5170906Y5328122D01*
G37*
G36*
G01X5411052Y5539347D02*
G01X5436452Y5528315D01*
G01X5437055Y5524270D01*
G01X5438643Y5518696D01*
G01X5440888Y5512594D01*
G01X5443462Y5506965D01*
G01X5399062Y5517997D01*
G01X5401299Y5519835D01*
G01X5403465Y5522161D01*
G01X5407305Y5527775D01*
G01X5410022Y5533837D01*
G01X5410783Y5536723D01*
G01X5411052Y5539347D01*
G37*
G36*
G01X6515100Y1959224D02*
G01X6540500Y1959224D01*
G01X6541375Y1954629D01*
G01X6543680Y1948872D01*
G01X6546939Y1942953D01*
G01X6550675Y1937874D01*
G01X6504925Y1937874D01*
G01X6508661Y1942953D01*
G01X6511920Y1948872D01*
G01X6514225Y1954629D01*
G01X6515100Y1959224D01*
G37*
G36*
G01X4584942Y7180518D02*
G01X4566982Y7162558D01*
G01X4563115Y7165188D01*
G01X4557414Y7167629D01*
G01X4550924Y7169510D01*
G01X4544690Y7170460D01*
G01X4577040Y7202810D01*
G01X4577990Y7196576D01*
G01X4579871Y7190086D01*
G01X4582312Y7184385D01*
G01X4584942Y7180518D01*
G37*
G36*
G01X5257558Y6103682D02*
G01X5275518Y6121642D01*
G01X5279385Y6119012D01*
G01X5285086Y6116571D01*
G01X5291576Y6114690D01*
G01X5297810Y6113740D01*
G01X5265460Y6081390D01*
G01X5264510Y6087624D01*
G01X5262629Y6094114D01*
G01X5260188Y6099815D01*
G01X5257558Y6103682D01*
G37*
G36*
G01X4813300Y6188324D02*
G01X4838700Y6188324D01*
G01X4839575Y6183729D01*
G01X4841880Y6177972D01*
G01X4845139Y6172053D01*
G01X4848875Y6166974D01*
G01X4803125Y6166974D01*
G01X4806861Y6172053D01*
G01X4810120Y6177972D01*
G01X4812425Y6183729D01*
G01X4813300Y6188324D01*
G37*
G36*
G01X5080000Y6575176D02*
G01X5054600Y6575176D01*
G01X5053725Y6579771D01*
G01X5051420Y6585528D01*
G01X5048161Y6591447D01*
G01X5044425Y6596526D01*
G01X5090175Y6596526D01*
G01X5086439Y6591447D01*
G01X5083180Y6585528D01*
G01X5080875Y6579771D01*
G01X5080000Y6575176D01*
G37*
G36*
G01X3572124Y7175500D02*
G01X3572124Y7150100D01*
G01X3567529Y7149225D01*
G01X3561772Y7146920D01*
G01X3555853Y7143661D01*
G01X3550774Y7139925D01*
G01X3550774Y7185675D01*
G01X3555853Y7181939D01*
G01X3561772Y7178680D01*
G01X3567529Y7176375D01*
G01X3572124Y7175500D01*
G37*
G36*
G01X2819400Y7750424D02*
G01X2844800Y7750424D01*
G01X2845675Y7745829D01*
G01X2847980Y7740072D01*
G01X2851239Y7734153D01*
G01X2854975Y7729074D01*
G01X2809225Y7729074D01*
G01X2812961Y7734153D01*
G01X2816220Y7740072D01*
G01X2818525Y7745829D01*
G01X2819400Y7750424D01*
G37*
G36*
G01X3584824Y7366000D02*
G01X3584824Y7340600D01*
G01X3580229Y7339725D01*
G01X3574472Y7337420D01*
G01X3568553Y7334161D01*
G01X3563474Y7330425D01*
G01X3563474Y7376175D01*
G01X3568553Y7372439D01*
G01X3574472Y7369180D01*
G01X3580229Y7366875D01*
G01X3584824Y7366000D01*
G37*
G36*
G01X2921000Y7763124D02*
G01X2946400Y7763124D01*
G01X2947275Y7758529D01*
G01X2949580Y7752772D01*
G01X2952839Y7746853D01*
G01X2956575Y7741774D01*
G01X2910825Y7741774D01*
G01X2914561Y7746853D01*
G01X2917820Y7752772D01*
G01X2920125Y7758529D01*
G01X2921000Y7763124D01*
G37*
G04 TearDrop End*

G04 Pad Start*
G54D11*
G01X5924398Y6108700D03*
G01X6064402Y6108700D03*
G01X5873598Y6400800D03*
G01X6013602Y6400800D03*
G01X5878669Y7081537D03*
G01X6018674Y7081537D03*
G54D12*
G01X4553102Y7760005D03*
G01X4553102Y7620000D03*
G01X5626100Y7753502D03*
G01X5626100Y7613498D03*
G01X5537200Y5873902D03*
G01X5537200Y5733898D03*
G01X4533900Y5861202D03*
G01X4533900Y5721198D03*
G54D11*
G01X7436002Y6934200D03*
G01X7295998Y6934200D03*
G01X7426075Y6736550D03*
G01X7286070Y6736550D03*
G01X7425755Y7511041D03*
G01X7285750Y7511041D03*
G01X7425755Y7320541D03*
G01X7285750Y7320541D03*
G01X7425755Y7137199D03*
G01X7285750Y7137199D03*
G54D13*
G01X7619863Y7093090D03*
G01X7619863Y6953110D03*
G54D14*
G01X5727700Y5944464D03*
G01X5727700Y6095136D03*
G01X5219700Y7455764D03*
G01X5219700Y7606436D03*
G01X5397500Y7758836D03*
G01X5397500Y7608164D03*
G54D15*
G01X1834452Y8086423D03*
G01X1431973Y7885183D03*
G54D16*
G01X2058048Y7918727D03*
G01X1431950Y7605678D03*
G54D15*
G01X8359750Y7897872D03*
G01X7957270Y8099112D03*
G54D16*
G01X8359750Y7618378D03*
G01X7733652Y7931427D03*
G54D17*
G01X5374993Y7075006D03*
G01X5374993Y7024993D03*
G01X5374993Y6975006D03*
G01X5374993Y6924994D03*
G01X5374993Y6875006D03*
G01X5374993Y6824994D03*
G01X5374993Y6775007D03*
G01X5374993Y6724994D03*
G01X5374993Y6675007D03*
G01X5374993Y6624994D03*
G01X5374993Y6575007D03*
G01X5374993Y6524994D03*
G54D18*
G01X5225006Y6375007D03*
G01X5174993Y6375007D03*
G01X5125006Y6375007D03*
G01X5074993Y6375007D03*
G01X5025006Y6375007D03*
G01X4974994Y6375007D03*
G01X4925006Y6375007D03*
G01X4874994Y6375007D03*
G01X4825007Y6375007D03*
G01X4774994Y6375007D03*
G01X4725007Y6375007D03*
G01X4674994Y6375007D03*
G54D17*
G01X4525007Y6524994D03*
G01X4525007Y6575007D03*
G01X4525007Y6624994D03*
G01X4525007Y6675007D03*
G01X4525007Y6724994D03*
G01X4525007Y6775007D03*
G01X4525007Y6824994D03*
G01X4525007Y6875006D03*
G01X4525007Y6924994D03*
G01X4525007Y6975006D03*
G01X4525007Y7024993D03*
G01X4525007Y7075006D03*
G54D18*
G01X4674994Y7224993D03*
G01X4725007Y7224993D03*
G01X4774994Y7224993D03*
G01X4825007Y7224993D03*
G01X4874994Y7224993D03*
G01X4925006Y7224993D03*
G01X4974994Y7224993D03*
G01X5025006Y7224993D03*
G01X5074993Y7224993D03*
G01X5125006Y7224993D03*
G01X5174993Y7224993D03*
G01X5225006Y7224993D03*
G54D20*
G01X1375000Y4725000D03*
G01X1375000Y6275000D03*
G01X2725000Y6275000D03*
G01X2725000Y4725000D03*
G54D21*
G01X1050000Y5500000D03*
G01X1050000Y5700000D03*
G01X1050000Y5300000D03*
G01X2050000Y6500000D03*
G01X2250000Y6500000D03*
G01X1850000Y6500000D03*
G54D20*
G01X7175000Y4725000D03*
G01X7175000Y6275000D03*
G01X8525000Y6275000D03*
G01X8525000Y4725000D03*
G54D21*
G01X6850000Y5500000D03*
G01X6850000Y5700000D03*
G01X6850000Y5300000D03*
G01X7850000Y6500000D03*
G01X8050000Y6500000D03*
G01X7650000Y6500000D03*
G54D22*
G01X6033672Y6848644D03*
G01X6033672Y6628629D03*
G01X5863670Y6628629D03*
G01X5863670Y6848644D03*
G54D21*
G01X3529818Y8493009D03*
G01X3628909Y8319282D03*
G01X3356091Y8393918D03*
G01X3455182Y8220191D03*
G01X3182365Y8294827D03*
G54D23*
G01X3281456Y8121101D03*
G54D21*
G01X3703544Y8592099D03*
G01X3802635Y8418373D03*
G04 Pad End*

G04 Via Start*
G54D24*
G01X7518400Y5943600D03*
G01X7416800Y5854700D03*
G01X7467600Y7785100D03*
G01X3289300Y7759700D03*
G01X4546600Y7493000D03*
G01X3299975Y5880133D03*
G01X3365500Y5956300D03*
G01X3222392Y5956300D03*
G01X3365500Y7823200D03*
G01X3365500Y7708900D03*
G01X4241800Y7454900D03*
G01X4343400Y7810500D03*
G01X4343400Y7708900D03*
G01X5956300Y7785100D03*
G01X4744995Y7567469D03*
G01X4808200Y7643530D03*
G01X4965700Y7607300D03*
G01X4884400Y7531126D03*
G01X5054600Y7454900D03*
G01X4965700Y7035800D03*
G01X4919109Y5185930D03*
G01X5130800Y4995430D03*
G01X5072400Y5198630D03*
G01X3238500Y4241800D03*
G01X3348061Y4222750D03*
G01X3314700Y3987800D03*
G01X6845300Y8064500D03*
G01X6845300Y7404100D03*
G01X6997700Y3200400D03*
G01X5359400Y5562600D03*
G01X3449300Y6179800D03*
G01X3492500Y3239364D03*
G01X1981200Y2120900D03*
G01X2781300Y6616700D03*
G01X3873500Y6631900D03*
G01X6324600Y4076700D03*
G01X4857135Y4968725D03*
G01X5842000Y5981700D03*
G01X4648200Y5969000D03*
G01X4446865Y5969000D03*
G01X5830287Y5833999D03*
G01X4711700Y5168900D03*
G01X5194300Y5295900D03*
G01X5416398Y5492902D03*
G01X6527800Y1917700D03*
G01X4546600Y7200900D03*
G01X5295900Y6083300D03*
G01X6413500Y6934200D03*
G01X6489700Y6858000D03*
G01X6400800Y6527800D03*
G01X6489700Y6464300D03*
G01X4826000Y6146800D03*
G01X5067300Y6616700D03*
G01X4406900Y4533900D03*
G01X4521200Y7327900D03*
G01X3530600Y7162800D03*
G01X2832100Y7708900D03*
G01X3543300Y7353300D03*
G01X2933700Y7721600D03*
G01X289814Y797813D03*
G01X289814Y1051813D03*
G01X289814Y1305813D03*
G01X289814Y1559813D03*
G01X289814Y1813813D03*
G01X289814Y2067813D03*
G01X289814Y2321813D03*
G01X289814Y2575813D03*
G01X289814Y2829813D03*
G01X543814Y543813D03*
G01X543814Y797813D03*
G01X543814Y1051813D03*
G01X543814Y1305813D03*
G01X543814Y1559813D03*
G01X543814Y1813813D03*
G01X543814Y2321813D03*
G01X543814Y2575813D03*
G01X543814Y3591813D03*
G01X543814Y3845813D03*
G01X543814Y4099813D03*
G01X543814Y4353813D03*
G01X543814Y4607813D03*
G01X797814Y289813D03*
G01X797814Y543813D03*
G01X797814Y797813D03*
G01X797814Y1051813D03*
G01X797814Y1305813D03*
G01X797814Y1559813D03*
G01X797814Y1813813D03*
G01X797814Y2067813D03*
G01X797814Y2321813D03*
G01X797814Y2575813D03*
G01X797814Y2829813D03*
G01X797814Y3083813D03*
G01X797814Y3337813D03*
G01X797814Y6131813D03*
G01X1051814Y289813D03*
G01X1051814Y543813D03*
G01X1051814Y797813D03*
G01X1051814Y1051813D03*
G01X1051814Y1305813D03*
G01X1051814Y1559813D03*
G01X1051814Y1813813D03*
G01X1051814Y2067813D03*
G01X1051814Y2321813D03*
G01X1051814Y2575813D03*
G01X1051814Y2829813D03*
G01X1051814Y3083813D03*
G01X1051814Y3337813D03*
G01X1051814Y3591813D03*
G01X1051814Y3845813D03*
G01X1051814Y4099813D03*
G01X1051814Y4353813D03*
G01X1051814Y4607813D03*
G01X1051814Y4861813D03*
G01X1051814Y5115813D03*
G01X1051814Y5877813D03*
G01X1051814Y6131813D03*
G01X1051814Y6385813D03*
G01X1051814Y6639813D03*
G01X1051814Y6893813D03*
G01X1051814Y7147813D03*
G01X1051814Y7401813D03*
G01X1051814Y7655813D03*
G01X1305814Y289813D03*
G01X1305814Y543813D03*
G01X1305814Y797813D03*
G01X1305814Y1051813D03*
G01X1305814Y1305813D03*
G01X1305814Y1559813D03*
G01X1305814Y1813813D03*
G01X1305814Y2321813D03*
G01X1305814Y2575813D03*
G01X1305814Y2829813D03*
G01X1305814Y3083813D03*
G01X1305814Y3591813D03*
G01X1305814Y3845813D03*
G01X1305814Y4099813D03*
G01X1305814Y4353813D03*
G01X1305814Y5115813D03*
G01X1305814Y5623813D03*
G01X1305814Y5877813D03*
G01X1305814Y6639813D03*
G01X1305814Y6893813D03*
G01X1305814Y7147813D03*
G01X1305814Y7401813D03*
G01X1305814Y7909813D03*
G01X1559814Y289813D03*
G01X1559814Y543813D03*
G01X1559814Y797813D03*
G01X1559814Y2321813D03*
G01X1559814Y4607813D03*
G01X1559814Y4861813D03*
G01X1559814Y5115813D03*
G01X1559814Y5623813D03*
G01X1559814Y5877813D03*
G01X1559814Y6131813D03*
G01X1559814Y6385813D03*
G01X1559814Y6639813D03*
G01X1559814Y6893813D03*
G01X1559814Y7147813D03*
G01X1559814Y7401813D03*
G01X1559814Y7909813D03*
G01X1559814Y8163813D03*
G01X1813814Y289813D03*
G01X1813814Y543813D03*
G01X1813814Y797813D03*
G01X1813814Y1051813D03*
G01X1813814Y1305813D03*
G01X1813814Y1559813D03*
G01X1813814Y1813813D03*
G01X1813814Y2067813D03*
G01X1813814Y2321813D03*
G01X1813814Y3083813D03*
G01X1813814Y3337813D03*
G01X1813814Y3591813D03*
G01X1813814Y3845813D03*
G01X1813814Y4099813D03*
G01X1813814Y4353813D03*
G01X1813814Y4861813D03*
G01X1813814Y5115813D03*
G01X1813814Y5369813D03*
G01X1813814Y7147813D03*
G01X1813814Y7401813D03*
G01X1813814Y7655813D03*
G01X1813814Y7909813D03*
G01X2067814Y289813D03*
G01X2067814Y543813D03*
G01X2067814Y797813D03*
G01X2067814Y1305813D03*
G01X2067814Y1559813D03*
G01X2067814Y2321813D03*
G01X2067814Y2829813D03*
G01X2067814Y3591813D03*
G01X2067814Y3845813D03*
G01X2067814Y4353813D03*
G01X2067814Y4607813D03*
G01X2067814Y5369813D03*
G01X2067814Y5623813D03*
G01X2067814Y5877813D03*
G01X2067814Y6131813D03*
G01X2067814Y7147813D03*
G01X2067814Y7401813D03*
G01X2067814Y7655813D03*
G01X2067814Y8163813D03*
G01X2067814Y8417813D03*
G01X2321814Y543813D03*
G01X2321814Y797813D03*
G01X2321814Y1051813D03*
G01X2321814Y1305813D03*
G01X2321814Y1559813D03*
G01X2321814Y1813813D03*
G01X2321814Y2067813D03*
G01X2321814Y2575813D03*
G01X2321814Y2829813D03*
G01X2321814Y3083813D03*
G01X2321814Y3591813D03*
G01X2321814Y3845813D03*
G01X2321814Y4099813D03*
G01X2321814Y4353813D03*
G01X2321814Y4607813D03*
G01X2321814Y4861813D03*
G01X2321814Y5115813D03*
G01X2321814Y5369813D03*
G01X2321814Y5623813D03*
G01X2321814Y5877813D03*
G01X2321814Y6131813D03*
G01X2321814Y6639813D03*
G01X2321814Y6893813D03*
G01X2321814Y7147813D03*
G01X2321814Y7401813D03*
G01X2321814Y7655813D03*
G01X2321814Y7909813D03*
G01X2321814Y8163813D03*
G01X2321814Y8417813D03*
G01X2321814Y8671813D03*
G01X2575814Y797813D03*
G01X2575814Y1051813D03*
G01X2575814Y1305813D03*
G01X2575814Y1559813D03*
G01X2575814Y1813813D03*
G01X2575814Y3845813D03*
G01X2575814Y4099813D03*
G01X2575814Y4353813D03*
G01X2575814Y4861813D03*
G01X2575814Y5115813D03*
G01X2575814Y5369813D03*
G01X2575814Y5623813D03*
G01X2575814Y5877813D03*
G01X2575814Y6131813D03*
G01X2575814Y7147813D03*
G01X2575814Y7401813D03*
G01X2575814Y7655813D03*
G01X2575814Y8163813D03*
G01X2575814Y8417813D03*
G01X2575814Y8671813D03*
G01X2829814Y8925813D03*
G01X2829814Y1051813D03*
G01X2829814Y1305813D03*
G01X2829814Y1559813D03*
G01X2829814Y1813813D03*
G01X2829814Y2067813D03*
G01X2829814Y2321813D03*
G01X2829814Y2575813D03*
G01X2829814Y2829813D03*
G01X2829814Y3083813D03*
G01X2829814Y3337813D03*
G01X2829814Y3591813D03*
G01X2829814Y4099813D03*
G01X2829814Y4353813D03*
G01X2829814Y5115813D03*
G01X2829814Y5369813D03*
G01X2829814Y5623813D03*
G01X2829814Y5877813D03*
G01X2829814Y7147813D03*
G01X3083814Y8925813D03*
G01X3083814Y1559813D03*
G01X3083814Y1813813D03*
G01X3083814Y2321813D03*
G01X3083814Y2575813D03*
G01X3083814Y3337813D03*
G01X3083814Y3591813D03*
G01X3083814Y3845813D03*
G01X3083814Y4099813D03*
G01X3083814Y4353813D03*
G01X3083814Y4607813D03*
G01X3083814Y4861813D03*
G01X3083814Y5115813D03*
G01X3083814Y5369813D03*
G01X3083814Y5623813D03*
G01X3083814Y5877813D03*
G01X3083814Y7655813D03*
G01X3083814Y8163813D03*
G01X3083814Y8417813D03*
G01X3337814Y8925813D03*
G01X3337814Y9179813D03*
G01X3337814Y2067813D03*
G01X3337814Y2321813D03*
G01X3337814Y2575813D03*
G01X3337814Y2829813D03*
G01X3337814Y3083813D03*
G01X3337814Y3337813D03*
G01X3337814Y3591813D03*
G01X3591814Y8925813D03*
G01X3591814Y9179813D03*
G01X3591814Y2575813D03*
G01X3591814Y2829813D03*
G01X3591814Y3083813D03*
G01X3591814Y3591813D03*
G01X3591814Y3845813D03*
G01X3591814Y4099813D03*
G01X3591814Y4353813D03*
G01X3591814Y4607813D03*
G01X3591814Y4861813D03*
G01X3591814Y5115813D03*
G01X3591814Y5369813D03*
G01X3591814Y5623813D03*
G01X3591814Y6131813D03*
G01X3845814Y8925813D03*
G01X3845814Y9179813D03*
G01X3845814Y9433813D03*
G01X3845814Y3083813D03*
G01X3845814Y3337813D03*
G01X3845814Y8163813D03*
G01X4099814Y8925813D03*
G01X4099814Y9179813D03*
G01X4099814Y9433813D03*
G01X4099814Y3591813D03*
G01X4099814Y8163813D03*
G01X4099814Y8417813D03*
G01X4353814Y4099813D03*
G01X4353814Y5115813D03*
G01X4353814Y5369813D03*
G01X4353814Y5623813D03*
G01X4353814Y6131813D03*
G01X4353814Y8417813D03*
G01X4607814Y4099813D03*
G01X4607814Y4353813D03*
G01X4607814Y4861813D03*
G01X4607814Y5115813D03*
G01X4607814Y5369813D03*
G01X4607814Y5623813D03*
G01X4607814Y8163813D03*
G01X4861814Y4099813D03*
G01X4861814Y4353813D03*
G01X5115814Y4099813D03*
G01X5369814Y4099813D03*
G01X5369814Y4861813D03*
G01X5369814Y5115813D03*
G01X5369814Y5369813D03*
G01X5369814Y6385813D03*
G01X5623814Y3591813D03*
G01X5623814Y4099813D03*
G01X5623814Y4861813D03*
G01X5623814Y5115813D03*
G01X5623814Y5369813D03*
G01X5623814Y5623813D03*
G01X5623814Y7147813D03*
G01X5623814Y7401813D03*
G01X5623814Y8163813D03*
G01X5623814Y8417813D03*
G01X5877814Y8925813D03*
G01X5877814Y9179813D03*
G01X5877814Y9433813D03*
G01X5877814Y3083813D03*
G01X5877814Y3337813D03*
G01X5877814Y3591813D03*
G01X5877814Y4099813D03*
G01X5877814Y4353813D03*
G01X5877814Y4861813D03*
G01X5877814Y5115813D03*
G01X5877814Y5369813D03*
G01X5877814Y5623813D03*
G01X5877814Y7401813D03*
G01X5877814Y8163813D03*
G01X5877814Y8417813D03*
G01X6131814Y8925813D03*
G01X6131814Y9179813D03*
G01X6131814Y2575813D03*
G01X6131814Y2829813D03*
G01X6131814Y3083813D03*
G01X6131814Y3337813D03*
G01X6131814Y3591813D03*
G01X6131814Y4099813D03*
G01X6131814Y4353813D03*
G01X6131814Y4607813D03*
G01X6131814Y4861813D03*
G01X6131814Y5115813D03*
G01X6131814Y5369813D03*
G01X6131814Y5623813D03*
G01X6131814Y6385813D03*
G01X6131814Y7147813D03*
G01X6131814Y7401813D03*
G01X6131814Y8163813D03*
G01X6131814Y8417813D03*
G01X6385814Y8925813D03*
G01X6385814Y9179813D03*
G01X6385814Y2067813D03*
G01X6385814Y2321813D03*
G01X6385814Y2575813D03*
G01X6385814Y2829813D03*
G01X6385814Y3337813D03*
G01X6385814Y7147813D03*
G01X6385814Y7401813D03*
G01X6385814Y8163813D03*
G01X6385814Y8417813D03*
G01X6639814Y8925813D03*
G01X6639814Y9179813D03*
G01X6639814Y2321813D03*
G01X6639814Y2829813D03*
G01X6639814Y3083813D03*
G01X6639814Y3337813D03*
G01X6639814Y7401813D03*
G01X6639814Y8163813D03*
G01X6639814Y8417813D03*
G01X6893814Y8925813D03*
G01X6893814Y1305813D03*
G01X6893814Y1813813D03*
G01X6893814Y2829813D03*
G01X6893814Y3083813D03*
G01X6893814Y3591813D03*
G01X6893814Y3845813D03*
G01X6893814Y4099813D03*
G01X6893814Y4353813D03*
G01X6893814Y4607813D03*
G01X6893814Y4861813D03*
G01X6893814Y5115813D03*
G01X6893814Y6385813D03*
G01X6893814Y6639813D03*
G01X6893814Y6893813D03*
G01X6893814Y7147813D03*
G01X7147814Y797813D03*
G01X7147814Y1051813D03*
G01X7147814Y1559813D03*
G01X7147814Y1813813D03*
G01X7147814Y3083813D03*
G01X7147814Y3337813D03*
G01X7147814Y3591813D03*
G01X7147814Y3845813D03*
G01X7147814Y4099813D03*
G01X7147814Y4353813D03*
G01X7147814Y5115813D03*
G01X7147814Y5623813D03*
G01X7147814Y6639813D03*
G01X7147814Y6893813D03*
G01X7147814Y7147813D03*
G01X7147814Y7401813D03*
G01X7147814Y8163813D03*
G01X7147814Y8671813D03*
G01X7401814Y543813D03*
G01X7401814Y797813D03*
G01X7401814Y1051813D03*
G01X7401814Y1559813D03*
G01X7401814Y1813813D03*
G01X7401814Y2067813D03*
G01X7401814Y2575813D03*
G01X7401814Y2829813D03*
G01X7401814Y8671813D03*
G01X7655814Y289813D03*
G01X7655814Y543813D03*
G01X7655814Y797813D03*
G01X7655814Y1051813D03*
G01X7655814Y1813813D03*
G01X7655814Y3337813D03*
G01X7655814Y4099813D03*
G01X7655814Y4353813D03*
G01X7655814Y4607813D03*
G01X7655814Y4861813D03*
G01X7655814Y5115813D03*
G01X7655814Y7401813D03*
G01X7655814Y7655813D03*
G01X7655814Y8163813D03*
G01X7909814Y289813D03*
G01X7909814Y543813D03*
G01X7909814Y797813D03*
G01X7909814Y1051813D03*
G01X7909814Y1305813D03*
G01X7909814Y1813813D03*
G01X7909814Y2067813D03*
G01X7909814Y2575813D03*
G01X7909814Y2829813D03*
G01X7909814Y3083813D03*
G01X7909814Y3337813D03*
G01X7909814Y3591813D03*
G01X7909814Y3845813D03*
G01X7909814Y4099813D03*
G01X7909814Y4353813D03*
G01X7909814Y4607813D03*
G01X7909814Y4861813D03*
G01X7909814Y5115813D03*
G01X7909814Y5369813D03*
G01X7909814Y5623813D03*
G01X7909814Y5877813D03*
G01X7909814Y6131813D03*
G01X7909814Y7147813D03*
G01X7909814Y7401813D03*
G01X7909814Y7655813D03*
G01X7909814Y7909813D03*
G01X8163814Y289813D03*
G01X8163814Y543813D03*
G01X8163814Y797813D03*
G01X8163814Y1051813D03*
G01X8163814Y1305813D03*
G01X8163814Y1813813D03*
G01X8163814Y2067813D03*
G01X8163814Y2575813D03*
G01X8163814Y2829813D03*
G01X8163814Y3083813D03*
G01X8163814Y3337813D03*
G01X8163814Y3591813D03*
G01X8163814Y3845813D03*
G01X8163814Y4099813D03*
G01X8163814Y4353813D03*
G01X8163814Y4607813D03*
G01X8163814Y4861813D03*
G01X8163814Y5115813D03*
G01X8163814Y5369813D03*
G01X8163814Y5623813D03*
G01X8163814Y5877813D03*
G01X8163814Y6131813D03*
G01X8163814Y6385813D03*
G01X8163814Y6639813D03*
G01X8163814Y6893813D03*
G01X8163814Y7147813D03*
G01X8163814Y7401813D03*
G01X8163814Y7655813D03*
G01X8163814Y7909813D03*
G01X8163814Y8163813D03*
G01X8417814Y289813D03*
G01X8417814Y543813D03*
G01X8417814Y797813D03*
G01X8417814Y1051813D03*
G01X8417814Y1305813D03*
G01X8417814Y1813813D03*
G01X8417814Y2067813D03*
G01X8417814Y3083813D03*
G01X8417814Y3337813D03*
G01X8417814Y3591813D03*
G01X8417814Y3845813D03*
G01X8417814Y4099813D03*
G01X8417814Y4353813D03*
G01X8417814Y5115813D03*
G01X8417814Y5369813D03*
G01X8417814Y5623813D03*
G01X8417814Y5877813D03*
G01X8417814Y6639813D03*
G01X8417814Y6893813D03*
G01X8417814Y7147813D03*
G01X8417814Y7401813D03*
G01X8671814Y289813D03*
G01X8671814Y543813D03*
G01X8671814Y797813D03*
G01X8671814Y1051813D03*
G01X8671814Y1305813D03*
G01X8671814Y1813813D03*
G01X8671814Y2067813D03*
G01X8671814Y3083813D03*
G01X8671814Y3337813D03*
G01X8671814Y3591813D03*
G01X8671814Y3845813D03*
G01X8671814Y4099813D03*
G01X8671814Y4353813D03*
G01X8671814Y4861813D03*
G01X8671814Y5115813D03*
G01X8671814Y5369813D03*
G01X8671814Y5623813D03*
G01X8671814Y5877813D03*
G01X8671814Y6131813D03*
G01X8671814Y6639813D03*
G01X8671814Y6893813D03*
G01X8671814Y7147813D03*
G01X8671814Y7401813D03*
G01X8671814Y7655813D03*
G01X8671814Y7909813D03*
G01X8925814Y289813D03*
G01X8925814Y543813D03*
G01X8925814Y797813D03*
G01X8925814Y1051813D03*
G01X8925814Y1305813D03*
G01X8925814Y1559813D03*
G01X8925814Y1813813D03*
G01X8925814Y2067813D03*
G01X8925814Y2321813D03*
G01X8925814Y2575813D03*
G01X8925814Y2829813D03*
G01X8925814Y3083813D03*
G01X8925814Y3337813D03*
G01X8925814Y3591813D03*
G01X8925814Y3845813D03*
G01X8925814Y4099813D03*
G01X8925814Y4353813D03*
G01X8925814Y4607813D03*
G01X8925814Y4861813D03*
G01X8925814Y5115813D03*
G01X8925814Y5369813D03*
G01X8925814Y5623813D03*
G01X8925814Y5877813D03*
G01X8925814Y6131813D03*
G01X8925814Y6385813D03*
G01X8925814Y6639813D03*
G01X9179814Y543813D03*
G01X9179814Y797813D03*
G01X9179814Y1051813D03*
G01X9179814Y1305813D03*
G01X9179814Y1813813D03*
G01X9179814Y2067813D03*
G01X9179814Y2575813D03*
G01X9179814Y2829813D03*
G01X9179814Y3083813D03*
G01X9179814Y3337813D03*
G01X9179814Y3591813D03*
G01X9179814Y3845813D03*
G01X9179814Y4099813D03*
G01X9179814Y4353813D03*
G01X9179814Y4607813D03*
G01X9179814Y4861813D03*
G01X9179814Y5115813D03*
G01X9433814Y797813D03*
G01X9433814Y1051813D03*
G01X9433814Y1305813D03*
G01X9433814Y1559813D03*
G01X9433814Y1813813D03*
G01X9433814Y2067813D03*
G01X9433814Y2575813D03*
G01X9433814Y2829813D03*
G01X9433814Y3083813D03*
G01X9433814Y3337813D03*
G01X9687814Y1305813D03*
G01X9687814Y1559813D03*
G01X9687814Y1813813D03*
G01X3693414Y7515373D03*
G01X3693414Y6753373D03*
G01X3947414Y7261373D03*
G01X4635500Y6146800D03*
G04 Via End*

G04 Track Start*
G54D25*
G01X6018674Y7081537D02*
G01X6033672Y7066538D01*
G01X6033672Y6848644D01*
G01X5863670Y6628629D02*
G01X5873598Y6618702D01*
G01X5873598Y6400800D01*
G01X5863670Y6628629D02*
G01X5667305Y6824994D01*
G01X5374993Y6824994D01*
G01X5792114Y6946544D02*
G01X5720576Y6875006D01*
G01X5374993Y6875006D01*
G01X6033672Y6848644D02*
G01X5935772Y6946544D01*
G01X5792114Y6946544D01*
G01X5924398Y6108700D02*
G01X5741264Y6108700D01*
G01X5727700Y6095136D01*
G01X5510627Y6675007D02*
G01X5374993Y6675007D01*
G01X5727700Y6095136D02*
G01X5727700Y6705600D01*
G01X5658293Y6775007D01*
G01X5374993Y6775007D01*
G54D26*
G01X7619863Y7093090D02*
G01X7689710Y7093090D01*
G01X7772400Y7010400D01*
G01X7772400Y6622400D01*
G01X7650000Y6500000D01*
G01X7650000Y5402100D01*
G01X7547900Y5300000D01*
G01X6850000Y5300000D01*
G54D25*
G01X4264494Y6975006D02*
G01X4525007Y6975006D01*
G01X4553102Y7772705D02*
G01X4540098Y7759700D01*
G01X4463898Y7759700D01*
G01X4413098Y7708900D01*
G01X4413098Y7186916D01*
G01X4525007Y7075006D01*
G01X4783606Y7233605D02*
G01X4774994Y7224993D01*
G01X5658002Y7753502D02*
G01X5613400Y7708900D01*
G01X5517061Y7708900D01*
G01X5499100Y7690939D01*
G01X5499100Y7366000D01*
G01X5473700Y7340600D01*
G01X5245100Y7340600D01*
G01X5225006Y7320506D01*
G01X5225006Y7224993D01*
G01X5025006Y7298306D02*
G01X5025006Y7224993D01*
G01X5130800Y7404100D02*
G01X5025006Y7298306D01*
G01X5397500Y7608164D02*
G01X5182464Y7608164D01*
G01X5130800Y7556500D01*
G01X5130800Y7404100D01*
G01X4783606Y7411377D02*
G01X4783606Y7233605D01*
G01X4965700Y7607300D02*
G01X4965700Y7480300D01*
G01X4874994Y7389594D01*
G01X4874994Y7224993D01*
G01X4825007Y7224993D02*
G01X4825007Y7398961D01*
G01X4884400Y7458355D01*
G01X4884400Y7531126D01*
G01X5054600Y7454900D02*
G01X4925006Y7325306D01*
G01X4925006Y7224993D01*
G01X4808200Y7643530D02*
G01X4808200Y7435970D01*
G01X4783606Y7411377D01*
G01X4674994Y7224993D02*
G01X4674994Y7364606D01*
G01X4546600Y7493000D01*
G01X4744995Y7567469D02*
G01X4725007Y7547481D01*
G01X4725007Y7224993D01*
G01X4965700Y7035800D02*
G01X4974994Y7045094D01*
G01X4974994Y7224993D01*
G01X5125006Y6280706D02*
G01X5125006Y6375007D01*
G54D26*
G01X6763375Y8737600D02*
G01X6845300Y8655675D01*
G54D27*
G01X1850000Y6500000D02*
G01X1850000Y5710800D01*
G01X1439200Y5300000D02*
G01X1050000Y5300000D01*
G01X1850000Y5710800D02*
G01X1439200Y5300000D01*
G54D26*
G01X6845300Y8655675D02*
G01X6845300Y8064500D01*
G54D25*
G01X4533900Y6233913D02*
G01X4674994Y6375007D01*
G01X4533900Y5861202D02*
G01X4533900Y6233913D01*
G01X4515113Y6515100D02*
G01X4525007Y6524994D01*
G01X4450565Y6629400D02*
G01X4520601Y6629400D01*
G01X4525007Y6624994D01*
G01X2184400Y2184400D02*
G01X2184400Y6197600D01*
G01X1981200Y2120900D02*
G01X1993900Y2133600D01*
G01X2133600Y2133600D01*
G01X2184400Y2184400D01*
G01X5130800Y4995430D02*
G01X5130800Y6274912D01*
G01X5125006Y6280706D01*
G01X4919109Y5185930D02*
G01X4925006Y5191827D01*
G01X4925006Y6375007D01*
G01X5194300Y5295900D02*
G01X5183606Y5306594D01*
G01X5183606Y6366395D01*
G01X5174993Y6375007D01*
G01X4774994Y6375007D02*
G01X4766407Y6366420D01*
G01X4766407Y5223607D01*
G01X4711700Y5168900D01*
G01X5378586Y6578600D02*
G01X5374993Y6575007D01*
G01X5537200Y5899302D02*
G01X5600700Y5962802D01*
G01X5600700Y6584934D01*
G01X5510627Y6675007D01*
G01X5398352Y5791574D02*
G01X5398352Y6033352D01*
G01X5537200Y6172200D01*
G01X5537200Y6515100D01*
G01X5473700Y6578600D01*
G01X5378586Y6578600D01*
G01X5486400Y6464300D02*
G01X5425706Y6524994D01*
G01X5374993Y6524994D01*
G01X5359400Y5562600D02*
G01X5359400Y6045200D01*
G01X5486400Y6172200D01*
G01X5486400Y6464300D01*
G01X5423752Y5766174D02*
G01X5398352Y5791574D01*
G01X5416398Y5492902D02*
G01X5423752Y5500257D01*
G01X5423752Y5766174D01*
G54D26*
G01X6845300Y7404100D02*
G01X6616700Y7175500D01*
G01X6616700Y3683000D01*
G01X6997700Y3302000D01*
G01X6997700Y3200400D01*
G54D25*
G01X6324600Y4076700D02*
G01X6324600Y5613400D01*
G01X5924398Y6013602D01*
G01X5924398Y6108700D01*
G01X6527800Y1917700D02*
G01X6527800Y3416300D01*
G01X4102100Y3898900D02*
G01X4038600Y3962400D01*
G01X6527800Y3416300D02*
G01X6045200Y3898900D01*
G01X4102100Y3898900D01*
G01X4241800Y7454900D02*
G01X4241800Y6997700D01*
G01X4264494Y6975006D01*
G01X4546600Y7200900D02*
G01X4874994Y6872506D01*
G01X4874994Y6375007D01*
G01X4749800Y6649607D02*
G01X4724400Y6675007D01*
G01X4525007Y6675007D01*
G01X4705594Y6483594D02*
G01X4749800Y6527800D01*
G01X4749800Y6649607D01*
G01X5295900Y6083300D02*
G01X5225006Y6154194D01*
G01X5225006Y6375007D01*
G01X4826000Y6374014D02*
G01X4825007Y6375007D01*
G01X4826000Y6374014D02*
G01X4826000Y6146800D01*
G01X4977509Y6372491D02*
G01X4974994Y6375007D01*
G01X4857135Y4968725D02*
G01X4977509Y5089100D01*
G01X4977509Y6372491D01*
G01X5072400Y5198630D02*
G01X5025006Y5246024D01*
G01X5025006Y6375007D01*
G01X3873500Y6631900D02*
G01X4448065Y6631900D01*
G01X4450565Y6629400D01*
G01X3492500Y3239364D02*
G01X3810000Y3556864D01*
G01X3810000Y6286500D01*
G01X4038600Y6515100D01*
G01X4515113Y6515100D01*
G01X4038600Y3962400D02*
G01X4038600Y5988241D01*
G01X4533953Y6483594D01*
G01X4705594Y6483594D01*
G01X2184400Y6197600D02*
G01X2603500Y6616700D01*
G01X2781300Y6616700D01*
G01X4516395Y6566395D02*
G01X4525007Y6575007D01*
G01X3449300Y6179800D02*
G01X3835895Y6566395D01*
G01X4516395Y6566395D01*
G01X5067300Y6616700D02*
G01X5067300Y6382701D01*
G01X5074993Y6375007D01*
G01X5863670Y6848644D02*
G01X6033672Y6678642D01*
G01X6033672Y6628629D01*
G01X6033672Y6420870D01*
G01X6013602Y6400800D01*
G01X4725007Y6375007D02*
G01X4725007Y6274407D01*
G01X4673600Y6223000D01*
G01X2832100Y7708900D02*
G01X2832100Y8572500D01*
G01X2971800Y8712200D01*
G01X2933700Y8509000D02*
G01X2997200Y8572500D01*
G01X2933700Y8509000D02*
G01X2933700Y7721600D01*
G01X4525007Y6775007D02*
G01X3969193Y6775007D01*
G01X3581400Y7162800D01*
G01X3530600Y7162800D01*
G01X4525007Y6824994D02*
G01X4135106Y6824994D01*
G01X3606800Y7353300D01*
G01X3543300Y7353300D01*
G54D26*
G01X3703545Y8592099D02*
G01X3848100Y8736654D01*
G01X3848100Y8737600D01*
G01X6763375Y8737600D01*
G54D25*
G01X2971800Y8712200D02*
G01X3314699Y8712200D01*
G01X3529818Y8497082D02*
G01X3529818Y8493008D01*
G01X3529818Y8497082D02*
G01X3314699Y8712200D01*
G01X3356092Y8393918D02*
G01X3177509Y8572500D01*
G01X2997200Y8572500D01*
G04 Track End*

M02*

