G04 Layer: TopSolderMaskLayer*
G04 EasyEDA Pro v3.2.117, 2026-06-19 14:17:38*
G04 Gerber Generator version 0.3*
G04 Scale: 100 percent, Rotated: No, Reflected: No*
G04 Dimensions in millimeters*
G04 Leading zeros omitted, absolute positions, 4 integers and 5 decimals*
G04 Generated by one-click*
%FSLAX45Y45*%
%MOMM*%
%AMRoundRect*1,1,$1,$2,$3*1,1,$1,$4,$5*1,1,$1,0-$2,0-$3*1,1,$1,0-$4,0-$5*20,1,$1,$2,$3,$4,$5,0*20,1,$1,$4,$5,0-$2,0-$3,0*20,1,$1,0-$2,0-$3,0-$4,0-$5,0*20,1,$1,0-$4,0-$5,$2,$3,0*4,1,4,$2,$3,$4,$5,0-$2,0-$3,0-$4,0-$5,$2,$3,0*%
%ADD10RoundRect,0.1016X-0.4X0.45X0.4X0.45*%
%ADD11RoundRect,0.1016X-0.45X-0.4X-0.45X0.4*%
%ADD12RoundRect,0.1016X-0.40005X-0.40005X-0.40005X0.40005*%
%ADD13RoundRect,0.1016X-0.40324X0.432X0.40324X0.432*%
%ADD14RoundRect,0.1016X-0.432X-0.40324X-0.432X0.40324*%
%ADD15RoundRect,0.1016X-0.75X-0.95X-0.75X0.95*%
%ADD16RoundRect,0.1016X-0.95X0.75X0.95X0.75*%
%ADD17RoundRect,0.1016X-0.75X-1.1X-0.75X1.1*%
%ADD18C,1.8039*%
%ADD19C,1.8016*%
%ADD20C,2.3016*%
%ADD21O,1.9666X0.7316*%
%ADD22RoundRect,0.10003X-1.2X-1.65X-1.2X1.65*%
%ADD23RoundRect,0.1016X-1.05X-0.5X-1.05X0.5*%
%ADD24RoundRect,0.1016X-0.55X-1.25X-0.55X1.25*%
%ADD25RoundRect,0.1016X-1.8X-1.17X-1.8X1.17*%
%ADD26C,2.6016*%
%ADD27C,1.6016*%
%ADD28RoundRect,0.10003X-1.75X-0.75X-1.75X0.75*%
%ADD29RoundRect,0.1016X-0.25X1.0X0.25X1.0*%
%ADD30C,1.6*%
%ADD31RoundRect,0.1X-1.02307X0.27988X0.27988X1.02307*%
%ADD32RoundRect,0.1X-0.45X1.0X0.45X1.0*%
%ADD33RoundRect,0.1X-0.8X0.8X0.8X0.8*%
G75*


G04 Pad Start*
G54D10*
G01X7029298Y2755900D03*
G01X7169302Y2755900D03*
G54D11*
G01X8001000Y2063598D03*
G01X8001000Y2203602D03*
G01X8534400Y2063598D03*
G01X8534400Y2203602D03*
G54D10*
G01X7715098Y2717800D03*
G01X7855102Y2717800D03*
G01X7245198Y4038600D03*
G01X7385202Y4038600D03*
G01X3908694Y4409445D03*
G01X4048699Y4409445D03*
G01X4397797Y4403247D03*
G01X4257792Y4403247D03*
G54D11*
G01X5765800Y4382430D03*
G01X5765800Y4242425D03*
G01X5981700Y4382430D03*
G01X5981700Y4242425D03*
G01X3708400Y5505602D03*
G01X3708400Y5365598D03*
G01X2031992Y6724508D03*
G01X2031992Y6864513D03*
G01X6578600Y5492902D03*
G01X6578600Y5352898D03*
G01X7937500Y6724498D03*
G01X7937500Y6864502D03*
G54D12*
G01X6866890Y2401316D03*
G01X6706870Y2400808D03*
G01X6866890Y2033016D03*
G01X6706870Y2032508D03*
G01X6716776Y2569964D03*
G01X6876796Y2570472D03*
G01X6716776Y2221484D03*
G01X6876796Y2221992D03*
G54D13*
G01X7885836Y1587500D03*
G01X7735164Y1587500D03*
G54D14*
G01X5575300Y4393336D03*
G01X5575300Y4242664D03*
G01X5118100Y4393336D03*
G01X5118100Y4242664D03*
G01X5303224Y4393336D03*
G01X5303224Y4242664D03*
G54D13*
G01X1563691Y4356859D03*
G01X1413018Y4356859D03*
G01X473218Y3197283D03*
G01X623891Y3197283D03*
G01X1535836Y2133600D03*
G01X1385164Y2133600D03*
G54D14*
G01X2679700Y3239364D03*
G01X2679700Y3390036D03*
G01X2438400Y8025536D03*
G01X2438400Y7874864D03*
G54D13*
G01X7619136Y8356600D03*
G01X7468464Y8356600D03*
G54D15*
G01X6451600Y3112501D03*
G01X6451600Y3872499D03*
G54D16*
G01X8535401Y1587500D03*
G01X9295399Y1587500D03*
G54D17*
G01X1565694Y3227603D03*
G01X1565694Y4087597D03*
G01X2015706Y3227603D03*
G01X2015706Y4087597D03*
G01X1540294Y954303D03*
G01X1540294Y1814297D03*
G01X1990306Y954303D03*
G01X1990306Y1814297D03*
G01X473794Y2068787D03*
G01X473794Y2928780D03*
G01X923806Y2068787D03*
G01X923806Y2928780D03*
G01X2607094Y2097303D03*
G01X2607094Y2957297D03*
G01X3057106Y2097303D03*
G01X3057106Y2957297D03*
G54D19*
G01X1834452Y8086423D03*
G01X1431973Y7885183D03*
G54D20*
G01X2058048Y7918727D03*
G01X1431950Y7605678D03*
G54D19*
G01X8359750Y7897872D03*
G01X7957270Y8099112D03*
G54D20*
G01X8359750Y7618378D03*
G01X7733652Y7931427D03*
G54D21*
G01X7714769Y2075680D03*
G01X7714769Y2202680D03*
G01X7714769Y2329680D03*
G01X7714769Y2456680D03*
G01X7178270Y2075680D03*
G01X7178270Y2202680D03*
G01X7178270Y2329680D03*
G01X7178270Y2456680D03*
G54D22*
G01X7446520Y2266180D03*
G54D23*
G01X8267700Y2398700D03*
G01X8267700Y2198700D03*
G54D24*
G01X7259298Y3153700D03*
G01X7489295Y3153700D03*
G01X7719292Y3153700D03*
G54D25*
G01X7489295Y3747692D03*
G54D26*
G01X1375000Y4725000D03*
G01X1375000Y6275000D03*
G01X2725000Y6275000D03*
G01X2725000Y4725000D03*
G54D27*
G01X1050000Y5500000D03*
G01X1050000Y5700000D03*
G01X1050000Y5300000D03*
G01X2050000Y6500000D03*
G01X2250000Y6500000D03*
G01X1850000Y6500000D03*
G54D26*
G01X7175000Y4725000D03*
G01X7175000Y6275000D03*
G01X8525000Y6275000D03*
G01X8525000Y4725000D03*
G54D27*
G01X6850000Y5500000D03*
G01X6850000Y5700000D03*
G01X6850000Y5300000D03*
G01X7850000Y6500000D03*
G01X8050000Y6500000D03*
G01X7650000Y6500000D03*
G54D28*
G01X9259989Y2370976D03*
G01X8520011Y2919006D03*
G01X8519986Y2668994D03*
G01X9260015Y3217024D03*
G54D29*
G01X3938003Y4698987D03*
G01X4008006Y4698987D03*
G01X4078008Y4698987D03*
G01X4148011Y4698987D03*
G01X4217988Y4698987D03*
G01X4287990Y4698987D03*
G01X4357992Y4698987D03*
G01X4427995Y4698987D03*
G01X4497997Y4698987D03*
G01X4568000Y4698987D03*
G01X4638002Y4698987D03*
G01X4708004Y4698987D03*
G01X4778007Y4698987D03*
G01X4848009Y4698987D03*
G01X4917986Y4698987D03*
G01X4987989Y4698987D03*
G01X5057991Y4698987D03*
G01X5127993Y4698987D03*
G01X5197996Y4698987D03*
G01X5267998Y4698987D03*
G01X5338001Y4698987D03*
G01X5408003Y4698987D03*
G01X5478005Y4698987D03*
G01X5548008Y4698987D03*
G01X5617985Y4699013D03*
G01X5687987Y4698987D03*
G01X5757990Y4698987D03*
G01X5827992Y4698987D03*
G01X5897994Y4699013D03*
G01X5967997Y4698987D03*
G54D30*
G01X3529818Y8493009D03*
G01X3628909Y8319282D03*
G01X3356091Y8393918D03*
G01X3455182Y8220191D03*
G01X3182365Y8294827D03*
G54D31*
G01X3281456Y8121101D03*
G54D30*
G01X3703544Y8592099D03*
G01X3802635Y8418373D03*
G54D32*
G01X4475947Y8313852D03*
G01X4602947Y8313852D03*
G01X4729947Y8313852D03*
G01X4856947Y8313852D03*
G01X4983947Y8313852D03*
G01X5110947Y8313852D03*
G01X5237947Y8313852D03*
G01X5364947Y8313852D03*
G54D33*
G01X5424053Y9466148D03*
G04 Pad End*

M02*

